{
.appVersion = "1342";
DisplayStrings = (
murcielagobon
);
copyright = "Copyright 2015 The Alumni Sans Project Authors (https://github.com/googlefonts/alumni)";
customParameters = (
{
name = licenseURL;
value = "https://scripts.sil.org/OFL";
},
{
name = license;
value = "This Font Software is licensed under the SIL Open Font License, Version 1.1. This license is available with a FAQ at: https://scripts.sil.org/OFL";
},
{
name = vendorID;
value = GOOG;
},
{
name = fsType;
value = (
);
},
{
name = glyphOrder;
value = (
.notdef,
NULL,
CR,
space,
nbspace
);
},
{
name = Axes;
value = (
{
Name = Weight;
Tag = wght;
}
);
},
{
name = "Use Typo Metrics";
value = 1;
},
{
name = "Enforce Compatibility Check";
value = 1;
}
);
date = "2021-04-04 23:48:42 +0000";
designer = "Robert E. Leuschke";
designerURL = www.typesetit.com;
familyName = "Alumni Sans";
featurePrefixes = (
{
automatic = 1;
code = "languagesystem DFLT dflt;\012\012languagesystem latn dflt;\012languagesystem latn ROM;\012languagesystem latn MOL;\012languagesystem latn KAZ;\012languagesystem latn TAT;\012languagesystem latn TRK;\012languagesystem latn CRT;\012languagesystem latn AZE;\012\012languagesystem cyrl dflt;\012languagesystem cyrl BGR;\012";
name = Languagesystems;
}
);
features = (
{
automatic = 1;
code = "feature locl;\012feature sups;\012feature frac;\012feature ordn;\012feature pnum;\012feature tnum;\012feature salt;\012feature c2sc;\012";
name = aalt;
},
{
automatic = 1;

glyphs = (
{
glyphname = .notdef;
lastChange = "2021-05-18 00:21:22 +0000";
layers = (
{
background = {
paths = (
{
closed = 1;
nodes = (
"58 0 LINE",
"378 0 LINE",
"387 8 LINE",
"387 621 LINE",
"378 630 LINE",
"58 630 LINE",
"50 620 LINE",
"50 9 LINE"
);
},
{
closed = 1;
nodes = (
"67 613 LINE",
"370 613 LINE",
"370 16 LINE",
"67 16 LINE"
);
},
{
closed = 1;
nodes = (
"66 9 LINE",
"387 621 LINE",
"372 621 LINE",
"50 9 LINE"
);
},
{
closed = 1;
nodes = (
"65 621 LINE",
"50 621 LINE",
"371 9 LINE",
"387 9 LINE"
);
}
);
};
hints = (
{
horizontal = 1;
place = "{9.438, 611.679}";
type = Stem;
},
{
place = "{43.802, 325.265}";
type = Stem;
},
{
horizontal = 1;
place = "{9.438, 611.68}";
type = Stem;
},
{
place = "{381.198, 325.265}";
type = Stem;
}
);
layerId = "82B1C968-1149-4E0D-B361-F2F5D539D913";
paths = (
{
closed = 1;
nodes = (
"378 0 LINE",
"387 8 LINE",
"387 621 LINE",
"378 630 LINE",
"58 630 LINE",
"50 620 LINE",
"50 9 LINE",
"58 0 LINE"
);
},
{
closed = 1;
nodes = (
"66 9 LINE",
"387 621 LINE",
"372 621 LINE",
"50 9 LINE"
);
},
{
closed = 1;
nodes = (
"387 9 LINE",
"65 621 LINE",
"50 621 LINE",
"371 9 LINE"
);
},
{
closed = 1;
nodes = (
"67 613 LINE",
"370 613 LINE",
"370 16 LINE",
"67 16 LINE"
);
}
);
width = 437;
},
{
background = {
paths = (
{
closed = 1;
nodes = (
"58 0 LINE",
"378 0 LINE",
"387 8 LINE",
"387 621 LINE",
"378 630 LINE",
"58 630 LINE",
"50 620 LINE",
"50 9 LINE"
);
},
{
closed = 1;
nodes = (
"124 541 LINE",
"313 541 LINE",
"313 88 LINE",
"124 88 LINE"
);
},
{
closed = 1;
nodes = (
"86 9 LINE",
"387 621 LINE",
"351 621 LINE",
"50 9 LINE"
);
},
{
closed = 1;
nodes = (
"86 621 LINE",
"50 621 LINE",
"351 9 LINE",
"387 9 LINE"
);
}
);
};
layerId = "8A3706BD-364F-4FE3-9C2E-7E87DF0DB4CC";
paths = (
{
closed = 1;
nodes = (
"378 0 LINE",
"387 8 LINE",
"387 621 LINE",
"378 630 LINE",
"58 630 LINE",
"50 620 LINE",
"50 9 LINE",
"58 0 LINE"
);
},
{
closed = 1;
nodes = (
"86 9 LINE",
"387 621 LINE",
"351 621 LINE",
"50 9 LINE"
);
},
{
closed = 1;
nodes = (
"387 9 LINE",
"86 621 LINE",
"50 621 LINE",
"351 9 LINE"
);
},
{
closed = 1;
nodes = (
"124 541 LINE",
"313 541 LINE",
"313 88 LINE",
"124 88 LINE"
);
}
);
width = 437;
}
);
},
{
glyphname = A;
lastChange = "2021-05-18 00:21:14 +0000";
layers = (
{
background = {
paths = (
{
closed = 1;
nodes = (
"-4 0 LINE",
"60 160 LINE",
"254 160 LINE",
"273 0 LINE",
"292 0 LINE",
"226 591 LINE",
"213 591 LINE",
"-22 0 LINE"
);
},
{
closed = 1;
nodes = (
"211 536 LINE",
"253 175 LINE",
"65 175 LINE"
);
}
);
};
layerId = "82B1C968-1149-4E0D-B361-F2F5D539D913";
paths = (
{
closed = 1;
nodes = (
"-4 0 LINE",
"60 160 LINE",
"254 160 LINE",
"273 0 LINE",
"292 0 LINE",
"226 591 LINE",
"213 591 LINE",
"-22 0 LINE"
);
},
{
closed = 1;
nodes = (
"211 536 LINE",
"253 175 LINE",
"65 175 LINE"
);
}
);
width = 354;
},
{
background = {
paths = (
{
closed = 1;
nodes = (
"136 0 LINE",
"155 86 LINE",
"192 86 LINE",
"187 0 LINE",
"366 0 LINE",
"367 591 LINE",
"132 591 LINE",
"-37 0 LINE"
);
},
{
closed = 1;
nodes = (
"227 466 LINE",
"202 163 LINE",
"166 163 LINE"
);
}
);
};
layerId = "8A3706BD-364F-4FE3-9C2E-7E87DF0DB4CC";
paths = (
{
closed = 1;
nodes = (
"136 0 LINE",
"155 86 LINE",
"192 86 LINE",
"187 0 LINE",
"366 0 LINE",
"367 591 LINE",
"132 591 LINE",
"-37 0 LINE"
);
},
{
closed = 1;
nodes = (
"227 466 LINE",
"202 163 LINE",
"166 163 LINE"
);
}
);
width = 413;
}
);
unicode = 0041;
},
{
glyphname = AE;
lastChange = "2021-05-18 00:21:22 +0000";
layers = (
{
background = {
paths = (
{
closed = 1;
nodes = (
"-9 0 LINE",
"74 160 LINE",
"219 160 LINE",
"199 0 LINE",
"442 0 LINE",
"445 16 LINE",
"221 16 LINE",
"258 304 LINE",
"448 304 LINE",
"450 320 LINE",
"260 320 LINE",
"293 575 LINE",
"513 575 LINE",
"516 591 LINE",
"279 591 LINE",
"-27 0 LINE"
);
},
{
closed = 1;
nodes = (
"81 175 LINE",
"268 529 LINE",
"271 536 LINE",
"269 526 LINE",
"222 175 LINE"
);
}
);
};
layerId = "82B1C968-1149-4E0D-B361-F2F5D539D913";
paths = (
{
closed = 1;
nodes = (
"-9 0 LINE",
"74 160 LINE",
"219 160 LINE",
"199 0 LINE",
"442 0 LINE",
"445 16 LINE",
"221 16 LINE",
"258 304 LINE",
"448 304 LINE",
"450 320 LINE",
"260 320 LINE",
"293 575 LINE",
"513 575 LINE",
"516 591 LINE",
"279 591 LINE",
"-27 0 LINE"
);
},
{
closed = 1;
nodes = (
"268 529 LINE",
"271 536 LINE",
"269 526 LINE",
"222 175 LINE",
"81 175 LINE"
);
}
);
width = 524;
},
{
background = {
paths = (
{
closed = 1;
nodes = (
"136 0 LINE",
"165 86 LINE",
"202 86 LINE",
"187 0 LINE",
"518 0 LINE",
"534 108 LINE",
"379 108 LINE",
"395 240 LINE",
"527 240 LINE",
"545 365 LINE",
"411 365 LINE",
"425 480 LINE",
"574 480 LINE",
"590 591 LINE",
"204 591 LINE",
"-37 0 LINE"
);
},
{
closed = 1;
nodes = (
"186 163 LINE",
"275 441 LINE",
"284 466 LINE",
"278 441 LINE",
"222 163 LINE"
);
}
);
};
layerId = "8A3706BD-364F-4FE3-9C2E-7E87DF0DB4CC";
paths = (
{
closed = 1;
nodes = (
"136 0 LINE",
"165 86 LINE",
"202 86 LINE",
"187 0 LINE",
"518 0 LINE",
"534 108 LINE",
"379 108 LINE",
"395 240 LINE",
"527 240 LINE",
"545 365 LINE",
"411 365 LINE",
"425 480 LINE",
"574 480 LINE",
"590 591 LINE",
"204 591 LINE",
"-37 0 LINE"
);
},
{
closed = 1;
nodes = (
"275 441 LINE",
"284 466 LINE",
"278 441 LINE",
"222 163 LINE",
"186 163 LINE"
);
}
);
width = 580;
}
);
unicode = 00C6;
},
{
glyphname = B;
lastChange = "2021-05-18 00:21:22 +0000";
layers = (
{
background = {
paths = (
{
closed = 1;
nodes = (
"190 0 LINE",
"261 0 OFFCURVE",
"314 16 OFFCURVE",
"328 120 CURVE",
"341 209 LINE",
"349 267 OFFCURVE",
"323 307 OFFCURVE",
"292 310 CURVE",
"292 310 OFFCURVE",
"281 312 OFFCURVE",
"269 313 CURVE",
"281 314 OFFCURVE",
"292 318 OFFCURVE",
"295 319 CURVE",
"325 327 OFFCURVE",
"357 363 OFFCURVE",
"365 419 CURVE",
"376 494 LINE",
"386 566 OFFCURVE",
"341 591 OFFCURVE",
"283 591 CURVE",
"122 591 LINE",
"38 0 LINE"
);
},
{
closed = 1;
nodes = (
"100 303 LINE",
"220 303 LINE",
"284 303 OFFCURVE",
"331 284 OFFCURVE",
"321 211 CURVE",
"309 123 LINE",
"296 31 OFFCURVE",
"254 16 OFFCURVE",
"193 16 CURVE",
"60 16 LINE"
);
},
{
closed = 1;
nodes = (
"280 575 LINE",
"326 575 OFFCURVE",
"363 548 OFFCURVE",
"355 491 CURVE",
"345 416 LINE",
"337 357 OFFCURVE",
"294 319 OFFCURVE",
"222 319 CURVE",
"102 319 LINE",
"138 575 LINE"
);
}
);
};
layerId = "82B1C968-1149-4E0D-B361-F2F5D539D913";
paths = (
{
closed = 1;
nodes = (
"190 0 LINE SMOOTH",
"261 0 OFFCURVE",
"314 16 OFFCURVE",
"328 120 CURVE SMOOTH",
"341 209 LINE SMOOTH",
"349 267 OFFCURVE",
"323 307 OFFCURVE",
"292 310 CURVE",
"292 310 OFFCURVE",
"281 312 OFFCURVE",
"269 313 CURVE",
"281 314 OFFCURVE",
"292 318 OFFCURVE",
"295 319 CURVE SMOOTH",
"325 327 OFFCURVE",
"357 363 OFFCURVE",
"365 419 CURVE SMOOTH",
"376 494 LINE SMOOTH",
"386 566 OFFCURVE",
"341 591 OFFCURVE",
"283 591 CURVE SMOOTH",
"122 591 LINE",
"38 0 LINE"
);
},
{
closed = 1;
nodes = (
"100 303 LINE",
"220 303 LINE SMOOTH",
"284 303 OFFCURVE",
"331 284 OFFCURVE",
"321 211 CURVE SMOOTH",
"309 123 LINE SMOOTH",
"296 31 OFFCURVE",
"254 16 OFFCURVE",
"193 16 CURVE SMOOTH",
"60 16 LINE"
);
},
{
closed = 1;
nodes = (
"138 575 LINE",
"280 575 LINE SMOOTH",
"326 575 OFFCURVE",
"363 548 OFFCURVE",
"355 491 CURVE SMOOTH",
"345 416 LINE SMOOTH",
"337 357 OFFCURVE",
"294 319 OFFCURVE",
"222 319 CURVE SMOOTH",
"102 319 LINE"
);
}
);
width = 433;
},
{
background = {
paths = (
{
closed = 1;
nodes = (
"206 0 LINE",
"299 0 OFFCURVE",
"360 30 OFFCURVE",
"373 125 CURVE",
"384 202 LINE",
"395 280 OFFCURVE",
"354 316 OFFCURVE",
"297 316 CURVE",
"297 316 OFFCURVE",
"296 317 OFFCURVE",
"296 317 CURVE",
"296 317 OFFCURVE",
"297 318 OFFCURVE",
"297 318 CURVE",
"361 325 OFFCURVE",
"392 370 OFFCURVE",
"400 426 CURVE",
"409 490 LINE",
"418 549 OFFCURVE",
"387 591 OFFCURVE",
"299 591 CURVE",
"67 591 LINE",
"-17 0 LINE"
);
},
{
closed = 1;
nodes = (
"184 249 LINE",
"199 249 LINE",
"216 249 OFFCURVE",
"213 215 OFFCURVE",
"207 171 CURVE",
"206 165 LINE",
"199 118 OFFCURVE",
"190 81 OFFCURVE",
"176 81 CURVE",
"161 81 LINE"
);
},
{
closed = 1;
nodes = (
"236 507 LINE",
"253 507 OFFCURVE",
"249 474 OFFCURVE",
"243 431 CURVE",
"242 427 LINE",
"236 383 OFFCURVE",
"224 348 OFFCURVE",
"210 348 CURVE",
"198 348 LINE",
"221 507 LINE"
);
}
);
};
layerId = "8A3706BD-364F-4FE3-9C2E-7E87DF0DB4CC";
paths = (
{
closed = 1;
nodes = (
"206 0 LINE SMOOTH",
"299 0 OFFCURVE",
"360 30 OFFCURVE",
"373 125 CURVE SMOOTH",
"384 202 LINE SMOOTH",
"395 280 OFFCURVE",
"354 316 OFFCURVE",
"297 316 CURVE",
"297 316 OFFCURVE",
"296 317 OFFCURVE",
"296 317 CURVE",
"297 318 LINE",
"361 325 OFFCURVE",
"392 370 OFFCURVE",
"400 426 CURVE SMOOTH",
"409 490 LINE SMOOTH",
"418 549 OFFCURVE",
"387 591 OFFCURVE",
"299 591 CURVE SMOOTH",
"67 591 LINE",
"-17 0 LINE"
);
},
{
closed = 1;
nodes = (
"184 249 LINE",
"199 249 LINE SMOOTH",
"216 249 OFFCURVE",
"213 215 OFFCURVE",
"207 171 CURVE SMOOTH",
"206 165 LINE SMOOTH",
"199 118 OFFCURVE",
"190 81 OFFCURVE",
"176 81 CURVE SMOOTH",
"161 81 LINE"
);
},
{
closed = 1;
nodes = (
"221 507 LINE",
"236 507 LINE SMOOTH",
"253 507 OFFCURVE",
"249 474 OFFCURVE",
"243 431 CURVE SMOOTH",
"242 427 LINE SMOOTH",
"236 383 OFFCURVE",
"224 348 OFFCURVE",
"210 348 CURVE SMOOTH",
"198 348 LINE"
);
}
);
width = 420;
}
);
unicode = 0042;
},
{
glyphname = C;
lastChange = "2021-05-18 00:21:22 +0000";
layers = (
{
background = {
paths = (
{
closed = 1;
nodes = (
"299 121 LINE",
"284 17 OFFCURVE",
"235 4 OFFCURVE",
"165 4 CURVE",
"96 4 OFFCURVE",
"50 17 OFFCURVE",
"65 121 CURVE",
"113 467 LINE",
"128 571 OFFCURVE",
"178 584 OFFCURVE",
"247 584 CURVE",
"315 584 OFFCURVE",
"362 571 OFFCURVE",
"347 467 CURVE",
"335 381 LINE",
"355 381 LINE",
"368 469 LINE",
"384 583 OFFCURVE",
"328 599 OFFCURVE",
"250 599 CURVE",
"172 599 OFFCURVE",
"111 585 OFFCURVE",
"95 469 CURVE",
"45 118 LINE",
"29 4 OFFCURVE",
"85 -12 OFFCURVE",
"162 -12 CURVE",
"242 -12 OFFCURVE",
"302 2 OFFCURVE",
"318 118 CURVE",
"328 189 LINE",
"308 189 LINE"
);
}
);
};
layerId = "82B1C968-1149-4E0D-B361-F2F5D539D913";
paths = (
{
closed = 1;
nodes = (
"242 -12 OFFCURVE",
"302 2 OFFCURVE",
"318 118 CURVE SMOOTH",
"328 189 LINE",
"308 189 LINE",
"299 121 LINE SMOOTH",
"284 17 OFFCURVE",
"235 4 OFFCURVE",
"165 4 CURVE SMOOTH",
"96 4 OFFCURVE",
"50 17 OFFCURVE",
"65 121 CURVE SMOOTH",
"113 467 LINE SMOOTH",
"128 571 OFFCURVE",
"178 584 OFFCURVE",
"247 584 CURVE SMOOTH",
"315 584 OFFCURVE",
"362 571 OFFCURVE",
"347 467 CURVE SMOOTH",
"335 381 LINE",
"355 381 LINE",
"368 469 LINE SMOOTH",
"384 583 OFFCURVE",
"328 599 OFFCURVE",
"250 599 CURVE SMOOTH",
"172 599 OFFCURVE",
"111 585 OFFCURVE",
"95 469 CURVE SMOOTH",
"45 118 LINE SMOOTH",
"29 4 OFFCURVE",
"85 -12 OFFCURVE",
"162 -12 CURVE SMOOTH"
);
}
);
width = 413;
},
{
background = {
paths = (
{
closed = 1;
nodes = (
"197 110 LINE",
"194 87 OFFCURVE",
"186 80 OFFCURVE",
"177 80 CURVE",
"167 80 OFFCURVE",
"162 87 OFFCURVE",
"165 110 CURVE",
"216 473 LINE",
"219 496 OFFCURVE",
"226 503 OFFCURVE",
"236 503 CURVE",
"245 503 OFFCURVE",
"251 496 OFFCURVE",
"248 473 CURVE",
"228 327 LINE",
"387 327 LINE",
"406 465 LINE",
"420 564 OFFCURVE",
"359 600 OFFCURVE",
"250 600 CURVE",
"141 600 OFFCURVE",
"63 564 OFFCURVE",
"49 465 CURVE",
"8 173 LINE",
"-14 14 OFFCURVE",
"55 -12 OFFCURVE",
"164 -12 CURVE",
"273 -12 OFFCURVE",
"343 14 OFFCURVE",
"365 174 CURVE",
"376 248 LINE",
"217 248 LINE"
);
}
);
};
layerId = "8A3706BD-364F-4FE3-9C2E-7E87DF0DB4CC";
paths = (
{
closed = 1;
nodes = (
"273 -12 OFFCURVE",
"343 14 OFFCURVE",
"365 174 CURVE SMOOTH",
"376 248 LINE",
"217 248 LINE",
"197 110 LINE SMOOTH",
"194 87 OFFCURVE",
"186 80 OFFCURVE",
"177 80 CURVE SMOOTH",
"167 80 OFFCURVE",
"162 87 OFFCURVE",
"165 110 CURVE SMOOTH",
"216 473 LINE SMOOTH",
"219 496 OFFCURVE",
"226 503 OFFCURVE",
"236 503 CURVE SMOOTH",
"245 503 OFFCURVE",
"251 496 OFFCURVE",
"248 473 CURVE SMOOTH",
"228 327 LINE",
"387 327 LINE",
"406 465 LINE SMOOTH",
"420 564 OFFCURVE",
"359 600 OFFCURVE",
"250 600 CURVE SMOOTH",
"141 600 OFFCURVE",
"63 564 OFFCURVE",
"49 465 CURVE SMOOTH",
"8 173 LINE SMOOTH",
"-14 14 OFFCURVE",
"55 -12 OFFCURVE",
"164 -12 CURVE SMOOTH"
);
}
);
width = 404;
}
);
unicode = 0043;
},
{
glyphname = D;
lastChange = "2021-05-18 00:21:18 +0000";
layers = (
{
background = {
paths = (
{
closed = 1;
nodes = (
"190 0 LINE",
"261 0 OFFCURVE",
"315 25 OFFCURVE",
"330 130 CURVE",
"376 461 LINE",
"391 566 OFFCURVE",
"345 591 OFFCURVE",
"274 591 CURVE",
"122 591 LINE",
"38 0 LINE"
);
},
{
closed = 1;
nodes = (
"138 575 LINE",
"271 575 LINE",
"332 575 OFFCURVE",
"369 549 OFFCURVE",
"356 458 CURVE",
"310 133 LINE",
"297 42 OFFCURVE",
"254 16 OFFCURVE",
"193 16 CURVE",
"60 16 LINE"
);
}
);
};
layerId = "82B1C968-1149-4E0D-B361-F2F5D539D913";
paths = (
{
closed = 1;
nodes = (
"190 0 LINE SMOOTH",
"261 0 OFFCURVE",
"315 25 OFFCURVE",
"330 130 CURVE SMOOTH",
"376 461 LINE SMOOTH",
"391 566 OFFCURVE",
"345 591 OFFCURVE",
"274 591 CURVE SMOOTH",
"122 591 LINE",
"38 0 LINE"
);
},
{
closed = 1;
nodes = (
"138 575 LINE",
"271 575 LINE SMOOTH",
"332 575 OFFCURVE",
"369 549 OFFCURVE",
"356 458 CURVE SMOOTH",
"310 133 LINE SMOOTH",
"297 42 OFFCURVE",
"254 16 OFFCURVE",
"193 16 CURVE SMOOTH",
"60 16 LINE"
);
}
);
width = 423;
},
{
background = {
paths = (
{
closed = 1;
nodes = (
"191 0 LINE",
"284 0 OFFCURVE",
"345 30 OFFCURVE",
"358 125 CURVE",
"409 490 LINE",
"418 549 OFFCURVE",
"387 591 OFFCURVE",
"299 591 CURVE",
"67 591 LINE",
"-17 0 LINE"
);
},
{
closed = 1;
nodes = (
"220 503 LINE",
"235 503 LINE",
"245 503 OFFCURVE",
"251 496 OFFCURVE",
"248 473 CURVE",
"197 110 LINE",
"194 87 OFFCURVE",
"186 80 OFFCURVE",
"176 80 CURVE",
"161 80 LINE"
);
}
);
};
layerId = "8A3706BD-364F-4FE3-9C2E-7E87DF0DB4CC";
paths = (
{
closed = 1;
nodes = (
"191 0 LINE SMOOTH",
"284 0 OFFCURVE",
"345 30 OFFCURVE",
"358 125 CURVE SMOOTH",
"409 490 LINE SMOOTH",
"418 549 OFFCURVE",
"387 591 OFFCURVE",
"299 591 CURVE SMOOTH",
"67 591 LINE",
"-17 0 LINE"
);
},
{
closed = 1;
nodes = (
"220 503 LINE",
"235 503 LINE SMOOTH",
"245 503 OFFCURVE",
"251 496 OFFCURVE",
"248 473 CURVE SMOOTH",
"197 110 LINE SMOOTH",
"194 87 OFFCURVE",
"186 80 OFFCURVE",
"176 80 CURVE SMOOTH",
"161 80 LINE"
);
}
);
width = 407;
}
);
unicode = 0044;
},
{
glyphname = Eth;
lastChange = "2021-05-18 00:21:22 +0000";
layers = (
{
background = {
paths = (
{
closed = 1;
nodes = (
"194 0 LINE",
"265 0 OFFCURVE",
"319 25 OFFCURVE",
"334 130 CURVE",
"380 461 LINE",
"395 566 OFFCURVE",
"349 591 OFFCURVE",
"278 591 CURVE",
"126 591 LINE",
"42 0 LINE"
);
},
{
closed = 1;
nodes = (
"142 575 LINE",
"275 575 LINE",
"336 575 OFFCURVE",
"373 549 OFFCURVE",
"360 458 CURVE",
"314 133 LINE",
"301 42 OFFCURVE",
"258 16 OFFCURVE",
"197 16 CURVE",
"64 16 LINE"
);
},
{
closed = 1;
nodes = (
"18 279 LINE",
"177 279 LINE",
"179 298 LINE",
"20 298 LINE"
);
}
);
};
hints = (
{
horizontal = 1;
place = "{-42, -26}";
type = Stem;
},
{
horizontal = 1;
place = "{176, -27}";
type = Stem;
},
{
horizontal = 1;
place = "{533, -26}";
type = Stem;
},
{
place = "{70, -23}";
type = Stem;
},
{
place = "{323, -22}";
type = Stem;
},
{
horizontal = 1;
place = "{128, -23}";
type = Stem;
},
{
place = "{-37, 157}";
type = Stem;
}
);
layerId = "82B1C968-1149-4E0D-B361-F2F5D539D913";
paths = (
{
closed = 1;
nodes = (
"194 0 LINE SMOOTH",
"265 0 OFFCURVE",
"319 25 OFFCURVE",
"334 130 CURVE SMOOTH",
"380 461 LINE SMOOTH",
"395 566 OFFCURVE",
"349 591 OFFCURVE",
"278 591 CURVE SMOOTH",
"126 591 LINE",
"42 0 LINE"
);
},
{
closed = 1;
nodes = (
"177 279 LINE",
"179 298 LINE",
"20 298 LINE",
"18 279 LINE"
);
},
{
closed = 1;
nodes = (
"142 575 LINE",
"275 575 LINE SMOOTH",
"336 575 OFFCURVE",
"373 549 OFFCURVE",
"360 458 CURVE SMOOTH",
"314 133 LINE SMOOTH",
"301 42 OFFCURVE",
"258 16 OFFCURVE",
"197 16 CURVE SMOOTH",
"64 16 LINE"
);
}
);
width = 427;
},
{
background = {
paths = (
{
closed = 1;
nodes = (
"238 0 LINE",
"331 0 OFFCURVE",
"392 30 OFFCURVE",
"405 125 CURVE",
"456 490 LINE",
"465 549 OFFCURVE",
"434 591 OFFCURVE",
"346 591 CURVE",
"92 591 LINE",
"8 0 LINE"
);
},
{
closed = 1;
nodes = (
"245 503 LINE",
"270 503 LINE",
"292 503 OFFCURVE",
"298 496 OFFCURVE",
"295 473 CURVE",
"244 110 LINE",
"241 87 OFFCURVE",
"233 80 OFFCURVE",
"211 80 CURVE",
"186 80 LINE"
);
},
{
closed = 1;
nodes = (
"3 246 LINE",
"232 246 LINE",
"245 335 LINE",
"16 335 LINE"
);
}
);
};
layerId = "8A3706BD-364F-4FE3-9C2E-7E87DF0DB4CC";
paths = (
{
closed = 1;
nodes = (
"238 0 LINE SMOOTH",
"331 0 OFFCURVE",
"392 30 OFFCURVE",
"405 125 CURVE SMOOTH",
"456 490 LINE SMOOTH",
"465 549 OFFCURVE",
"434 591 OFFCURVE",
"346 591 CURVE SMOOTH",
"92 591 LINE",
"8 0 LINE"
);
},
{
closed = 1;
nodes = (
"232 246 LINE",
"245 335 LINE",
"16 335 LINE",
"3 246 LINE"
);
},
{
closed = 1;
nodes = (
"245 503 LINE",
"270 503 LINE SMOOTH",
"292 503 OFFCURVE",
"298 496 OFFCURVE",
"295 473 CURVE SMOOTH",
"244 110 LINE SMOOTH",
"241 87 OFFCURVE",
"233 80 OFFCURVE",
"211 80 CURVE SMOOTH",
"186 80 LINE"
);
}
);
width = 454;
}
);
note = Eth;
rightKerningGroup = parenright;
unicode = 00D0;
},
{
glyphname = E;
lastChange = "2021-05-18 00:21:14 +0000";
layers = (
{
background = {
paths = (
{
closed = 1;
nodes = (
"279 0 LINE",
"282 16 LINE",
"61 16 LINE",
"101 304 LINE",
"271 304 LINE",
"273 320 LINE",
"103 320 LINE",
"139 575 LINE",
"360 575 LINE",
"363 591 LINE",
"122 591 LINE",
"38 0 LINE"
);
}
);
};
layerId = "82B1C968-1149-4E0D-B361-F2F5D539D913";
paths = (
{
closed = 1;
nodes = (
"279 0 LINE",
"282 16 LINE",
"61 16 LINE",
"101 304 LINE",
"271 304 LINE",
"273 320 LINE",
"103 320 LINE",
"139 575 LINE",
"360 575 LINE",
"363 591 LINE",
"122 591 LINE",
"38 0 LINE"
);
}
);
width = 386;
},
{
background = {
paths = (
{
closed = 1;
nodes = (
"269 0 LINE",
"285 108 LINE",
"165 108 LINE",
"183 240 LINE",
"293 240 LINE",
"311 365 LINE",
"201 365 LINE",
"217 480 LINE",
"337 480 LINE",
"353 591 LINE",
"67 591 LINE",
"-17 0 LINE"
);
}
);
};
layerId = "8A3706BD-364F-4FE3-9C2E-7E87DF0DB4CC";
paths = (
{
closed = 1;
nodes = (
"269 0 LINE",
"285 108 LINE",
"165 108 LINE",
"183 240 LINE",
"293 240 LINE",
"311 365 LINE",
"201 365 LINE",
"217 480 LINE",
"337 480 LINE",
"353 591 LINE",
"67 591 LINE",
"-17 0 LINE"
);
}
);
width = 336;
}
);
unicode = 0045;
},
{
glyphname = F;
lastChange = "2021-05-18 00:21:14 +0000";
layers = (
{
background = {
paths = (
{
closed = 1;
nodes = (
"40 0 LINE",
"83 304 LINE",
"253 304 LINE",
"255 320 LINE",
"85 320 LINE",
"121 575 LINE",
"342 575 LINE",
"345 591 LINE",
"104 591 LINE",
"20 0 LINE"
);
}
);
};
layerId = "82B1C968-1149-4E0D-B361-F2F5D539D913";
paths = (
{
closed = 1;
nodes = (
"40 0 LINE",
"83 304 LINE",
"253 304 LINE",
"255 320 LINE",
"85 320 LINE",
"121 575 LINE",
"342 575 LINE",
"345 591 LINE",
"104 591 LINE",
"20 0 LINE"
);
}
);
width = 345;
},
{
background = {
paths = (
{
closed = 1;
nodes = (
"149 0 LINE",
"183 240 LINE",
"293 240 LINE",
"311 365 LINE",
"201 365 LINE",
"217 480 LINE",
"337 480 LINE",
"353 591 LINE",
"67 591 LINE",
"-17 0 LINE"
);
}
);
};
layerId = "8A3706BD-364F-4FE3-9C2E-7E87DF0DB4CC";
paths = (
{
closed = 1;
nodes = (
"149 0 LINE",
"183 240 LINE",
"293 240 LINE",
"311 365 LINE",
"201 365 LINE",
"217 480 LINE",
"337 480 LINE",
"353 591 LINE",
"67 591 LINE",
"-17 0 LINE"
);
}
);
width = 334;
}
);
unicode = 0046;
},
{
glyphname = G;
lastChange = "2021-05-18 00:21:22 +0000";
layers = (
{
background = {
paths = (
{
closed = 1;
nodes = (
"280 0 LINE",
"317 266 LINE",
"198 266 LINE",
"196 250 LINE",
"295 250 LINE",
"277 121 LINE",
"266 47 OFFCURVE",
"211 4 OFFCURVE",
"143 4 CURVE",
"74 4 OFFCURVE",
"28 17 OFFCURVE",
"43 121 CURVE",
"91 466 LINE",
"106 570 OFFCURVE",
"156 583 OFFCURVE",
"225 583 CURVE",
"295 583 OFFCURVE",
"340 570 OFFCURVE",
"325 466 CURVE",
"316 401 LINE",
"336 401 LINE",
"346 469 LINE",
"362 583 OFFCURVE",
"308 599 OFFCURVE",
"229 599 CURVE",
"150 599 OFFCURVE",
"89 585 OFFCURVE",
"73 469 CURVE",
"23 118 LINE",
"7 4 OFFCURVE",
"63 -12 OFFCURVE",
"140 -12 CURVE",
"185 -12 OFFCURVE",
"219 0 OFFCURVE",
"247 29 CURVE",
"255 38 OFFCURVE",
"265 52 OFFCURVE",
"274 65 CURVE",
"274 65 OFFCURVE",
"266 0 OFFCURVE",
"266 0 CURVE"
);
}
);
};
layerId = "82B1C968-1149-4E0D-B361-F2F5D539D913";
paths = (
{
closed = 1;
nodes = (
"185 -12 OFFCURVE",
"219 0 OFFCURVE",
"247 29 CURVE SMOOTH",
"255 38 OFFCURVE",
"265 52 OFFCURVE",
"274 65 CURVE",
"266 0 LINE",
"280 0 LINE",
"317 266 LINE",
"198 266 LINE",
"196 250 LINE",
"295 250 LINE",
"277 121 LINE SMOOTH",
"266 47 OFFCURVE",
"211 4 OFFCURVE",
"143 4 CURVE SMOOTH",
"74 4 OFFCURVE",
"28 17 OFFCURVE",
"43 121 CURVE SMOOTH",
"91 466 LINE SMOOTH",
"106 570 OFFCURVE",
"156 583 OFFCURVE",
"225 583 CURVE SMOOTH",
"295 583 OFFCURVE",
"340 570 OFFCURVE",
"325 466 CURVE SMOOTH",
"316 401 LINE",
"336 401 LINE",
"346 469 LINE SMOOTH",
"362 583 OFFCURVE",
"308 599 OFFCURVE",
"229 599 CURVE SMOOTH",
"150 599 OFFCURVE",
"89 585 OFFCURVE",
"73 469 CURVE SMOOTH",
"23 118 LINE SMOOTH",
"7 4 OFFCURVE",
"63 -12 OFFCURVE",
"140 -12 CURVE SMOOTH"
);
}
);
width = 401;
},
{
background = {
paths = (
{
closed = 1;
nodes = (
"341 0 LINE",
"384 311 LINE",
"205 311 LINE",
"193 222 LINE",
"218 222 LINE",
"202 110 LINE",
"199 87 OFFCURVE",
"189 80 OFFCURVE",
"176 80 CURVE",
"163 80 OFFCURVE",
"155 87 OFFCURVE",
"158 110 CURVE",
"209 473 LINE",
"212 496 OFFCURVE",
"222 503 OFFCURVE",
"235 503 CURVE",
"248 503 OFFCURVE",
"256 496 OFFCURVE",
"253 473 CURVE",
"239 373 LINE",
"393 373 LINE",
"406 463 LINE",
"420 562 OFFCURVE",
"350 598 OFFCURVE",
"244 598 CURVE",
"138 598 OFFCURVE",
"63 562 OFFCURVE",
"49 463 CURVE",
"5 151 LINE",
"-14 14 OFFCURVE",
"49 -10 OFFCURVE",
"111 -10 CURVE",
"173 -10 OFFCURVE",
"205 18 OFFCURVE",
"218 38 CURVE",
"218 38 OFFCURVE",
"218 38 OFFCURVE",
"218 38 CURVE SMOOTH",
"218 38 OFFCURVE",
"221 0 OFFCURVE",
"221 0 CURVE"
);
}
);
};
layerId = "8A3706BD-364F-4FE3-9C2E-7E87DF0DB4CC";
paths = (
{
closed = 1;
nodes = (
"173 -10 OFFCURVE",
"205 18 OFFCURVE",
"218 38 CURVE",
"218 38 OFFCURVE",
"218 38 OFFCURVE",
"218 38 CURVE",
"221 0 LINE",
"341 0 LINE",
"384 311 LINE",
"205 311 LINE",
"193 222 LINE",
"218 222 LINE",
"202 110 LINE SMOOTH",
"199 87 OFFCURVE",
"189 80 OFFCURVE",
"176 80 CURVE SMOOTH",
"163 80 OFFCURVE",
"155 87 OFFCURVE",
"158 110 CURVE SMOOTH",
"209 473 LINE SMOOTH",
"212 496 OFFCURVE",
"222 503 OFFCURVE",
"235 503 CURVE SMOOTH",
"248 503 OFFCURVE",
"256 496 OFFCURVE",
"253 473 CURVE SMOOTH",
"239 373 LINE",
"393 373 LINE",
"406 463 LINE SMOOTH",
"420 562 OFFCURVE",
"350 598 OFFCURVE",
"244 598 CURVE SMOOTH",
"138 598 OFFCURVE",
"63 562 OFFCURVE",
"49 463 CURVE SMOOTH",
"5 151 LINE SMOOTH",
"-14 14 OFFCURVE",
"49 -10 OFFCURVE",
"111 -10 CURVE SMOOTH"
);
}
);
width = 407;
}
);
unicode = 0047;
},
{
glyphname = H;
lastChange = "2021-05-18 00:21:14 +0000";
layers = (
{
background = {
paths = (
{
closed = 1;
nodes = (
"58 0 LINE",
"101 303 LINE",
"335 303 LINE",
"292 0 LINE",
"311 0 LINE",
"395 591 LINE",
"376 591 LINE",
"337 320 LINE",
"103 320 LINE",
"142 591 LINE",
"122 591 LINE",
"38 0 LINE"
);
}
);
};
layerId = "82B1C968-1149-4E0D-B361-F2F5D539D913";
paths = (
{
closed = 1;
nodes = (
"58 0 LINE",
"101 303 LINE",
"335 303 LINE",
"292 0 LINE",
"311 0 LINE",
"395 591 LINE",
"376 591 LINE",
"337 320 LINE",
"103 320 LINE",
"142 591 LINE",
"122 591 LINE",
"38 0 LINE"
);
}
);
width = 433;
},
{
background = {
paths = (
{
closed = 1;
nodes = (
"142 0 LINE",
"177 245 LINE",
"213 245 LINE",
"178 0 LINE",
"337 0 LINE",
"421 591 LINE",
"262 591 LINE",
"229 362 LINE",
"193 362 LINE",
"226 591 LINE",
"67 591 LINE",
"-17 0 LINE"
);
}
);
};
layerId = "8A3706BD-364F-4FE3-9C2E-7E87DF0DB4CC";
paths = (
{
closed = 1;
nodes = (
"142 0 LINE",
"177 245 LINE",
"213 245 LINE",
"178 0 LINE",
"337 0 LINE",
"421 591 LINE",
"262 591 LINE",
"229 362 LINE",
"193 362 LINE",
"226 591 LINE",
"67 591 LINE",
"-17 0 LINE"
);
}
);
width = 404;
}
);
unicode = 0048;
},
{
glyphname = I;
lastChange = "2021-05-18 00:21:14 +0000";
layers = (
{
background = {
paths = (
{
closed = 1;
nodes = (
"78 0 LINE",
"162 591 LINE",
"142 591 LINE",
"58 0 LINE"
);
}
);
};
layerId = "82B1C968-1149-4E0D-B361-F2F5D539D913";
paths = (
{
closed = 1;
nodes = (
"78 0 LINE",
"162 591 LINE",
"142 591 LINE",
"58 0 LINE"
);
}
);
width = 220;
},
{
background = {
paths = (
{
closed = 1;
nodes = (
"147 0 LINE",
"231 591 LINE",
"72 591 LINE",
"-12 0 LINE"
);
}
);
};
layerId = "8A3706BD-364F-4FE3-9C2E-7E87DF0DB4CC";
paths = (
{
closed = 1;
nodes = (
"147 0 LINE",
"231 591 LINE",
"72 591 LINE",
"-12 0 LINE"
);
}
);
width = 219;
}
);
unicode = 0049;
},
{
glyphname = J;
lastChange = "2021-05-18 00:21:20 +0000";
layers = (
{
background = {
paths = (
{
closed = 1;
nodes = (
"-14 -2 OFFCURVE",
"7 -1 OFFCURVE",
"7 -1 CURVE",
"90 -1 OFFCURVE",
"95 32 OFFCURVE",
"110 136 CURVE",
"174 591 LINE",
"154 591 LINE",
"83 86 LINE",
"75 29 OFFCURVE",
"47 16 OFFCURVE",
"11 16 CURVE",
"-24 16 LINE",
"-27 -1 LINE"
);
}
);
};
layerId = "82B1C968-1149-4E0D-B361-F2F5D539D913";
paths = (
{
closed = 1;
nodes = (
"-14 -2 OFFCURVE",
"7 -1 OFFCURVE",
"7 -1 CURVE",
"90 -1 OFFCURVE",
"95 32 OFFCURVE",
"110 136 CURVE SMOOTH",
"174 591 LINE",
"154 591 LINE",
"83 86 LINE SMOOTH",
"75 29 OFFCURVE",
"47 16 OFFCURVE",
"11 16 CURVE SMOOTH",
"-24 16 LINE",
"-27 -1 LINE"
);
}
);
width = 194;
},
{
background = {
paths = (
{
closed = 1;
nodes = (
"-27 -1 OFFCURVE",
"6 -1 OFFCURVE",
"17 -1 CURVE",
"144 -1 OFFCURVE",
"202 33 OFFCURVE",
"220 159 CURVE",
"281 591 LINE",
"122 591 LINE",
"60 156 LINE",
"55 117 OFFCURVE",
"46 108 OFFCURVE",
"8 108 CURVE",
"-21 108 LINE",
"-36 0 LINE"
);
}
);
};
layerId = "8A3706BD-364F-4FE3-9C2E-7E87DF0DB4CC";
paths = (
{
closed = 1;
nodes = (
"144 -1 OFFCURVE",
"202 33 OFFCURVE",
"220 159 CURVE SMOOTH",
"281 591 LINE",
"122 591 LINE",
"60 156 LINE SMOOTH",
"55 117 OFFCURVE",
"46 108 OFFCURVE",
"8 108 CURVE SMOOTH",
"-21 108 LINE",
"-36 0 LINE",
"-27 -1 OFFCURVE",
"6 -1 OFFCURVE",
"17 -1 CURVE SMOOTH"
);
}
);
width = 264;
}
);
unicode = 004A;
},
{
glyphname = K;
lastChange = "2021-05-18 00:21:14 +0000";
layers = (
{
background = {
paths = (
{
closed = 1;
nodes = (
"288 0 LINE",
"144 306 LINE",
"365 591 LINE",
"341 591 LINE",
"122 308 LINE",
"263 0 LINE"
);
},
{
closed = 1;
nodes = (
"58 0 LINE",
"142 591 LINE",
"122 591 LINE",
"38 0 LINE"
);
}
);
};
layerId = "82B1C968-1149-4E0D-B361-F2F5D539D913";
paths = (
{
closed = 1;
nodes = (
"288 0 LINE",
"144 306 LINE",
"365 591 LINE",
"341 591 LINE",
"122 308 LINE",
"263 0 LINE"
);
},
{
closed = 1;
nodes = (
"58 0 LINE",
"142 591 LINE",
"122 591 LINE",
"38 0 LINE"
);
}
);
width = 390;
},
{
background = {
paths = (
{
closed = 1;
nodes = (
"392 0 LINE",
"338 307 LINE",
"474 591 LINE",
"305 591 LINE",
"183 306 LINE",
"221 0 LINE"
);
},
{
closed = 1;
nodes = (
"142 0 LINE",
"226 591 LINE",
"67 591 LINE",
"-17 0 LINE"
);
}
);
};
layerId = "8A3706BD-364F-4FE3-9C2E-7E87DF0DB4CC";
paths = (
{
closed = 1;
nodes = (
"392 0 LINE",
"338 307 LINE",
"474 591 LINE",
"305 591 LINE",
"183 306 LINE",
"221 0 LINE"
);
},
{
closed = 1;
nodes = (
"142 0 LINE",
"226 591 LINE",
"67 591 LINE",
"-17 0 LINE"
);
}
);
width = 439;
}
);
unicode = 004B;
},
{
glyphname = L;
lastChange = "2021-05-18 00:21:14 +0000";
layers = (
{
background = {
paths = (
{
closed = 1;
nodes = (
"248 0 LINE",
"251 16 LINE",
"61 16 LINE",
"142 591 LINE",
"122 591 LINE",
"38 0 LINE"
);
}
);
};
layerId = "82B1C968-1149-4E0D-B361-F2F5D539D913";
paths = (
{
closed = 1;
nodes = (
"248 0 LINE",
"251 16 LINE",
"61 16 LINE",
"142 591 LINE",
"122 591 LINE",
"38 0 LINE"
);
}
);
width = 281;
},
{
background = {
paths = (
{
closed = 1;
nodes = (
"266 0 LINE",
"282 108 LINE",
"173 108 LINE",
"241 591 LINE",
"84 591 LINE",
"0 0 LINE"
);
}
);
};
layerId = "8A3706BD-364F-4FE3-9C2E-7E87DF0DB4CC";
paths = (
{
closed = 1;
nodes = (
"266 0 LINE",
"282 108 LINE",
"173 108 LINE",
"241 591 LINE",
"84 591 LINE",
"0 0 LINE"
);
}
);
width = 302;
}
);
unicode = 004C;
},
{
glyphname = Lslash;
lastChange = "2021-05-18 00:21:14 +0000";
layers = (
{
background = {
paths = (
{
closed = 1;
nodes = (
"282 0 LINE",
"285 16 LINE",
"95 16 LINE",
"119 188 LINE",
"238 240 LINE",
"241 260 LINE",
"122 209 LINE",
"176 591 LINE",
"156 591 LINE",
"101 200 LINE",
"33 171 LINE",
"30 150 LINE",
"98 179 LINE",
"72 0 LINE"
);
}
);
};
hints = (
{
horizontal = 1;
place = "{0, 9}";
type = Stem;
},
{
horizontal = 1;
place = "{591, -20}";
target = down;
type = TopGhost;
},
{
place = "{114, 20}";
type = Stem;
}
);
layerId = "82B1C968-1149-4E0D-B361-F2F5D539D913";
paths = (
{
closed = 1;
nodes = (
"282 0 LINE",
"285 16 LINE",
"95 16 LINE",
"119 188 LINE",
"238 240 LINE",
"241 260 LINE",
"122 209 LINE",
"176 591 LINE",
"156 591 LINE",
"101 200 LINE",
"33 171 LINE",
"30 150 LINE",
"98 179 LINE",
"72 0 LINE"
);
}
);
width = 374;
},
{
background = {
paths = (
{
closed = 1;
nodes = (
"292 0 LINE",
"307 108 LINE",
"198 108 LINE",
"215 225 LINE",
"279 253 LINE",
"288 316 LINE",
"224 289 LINE",
"265 585 LINE",
"108 585 LINE",
"57 219 LINE",
"1 196 LINE",
"-8 132 LINE",
"48 155 LINE",
"26 0 LINE"
);
}
);
};
layerId = "8A3706BD-364F-4FE3-9C2E-7E87DF0DB4CC";
paths = (
{
closed = 1;
nodes = (
"292 0 LINE",
"307 108 LINE",
"198 108 LINE",
"215 225 LINE",
"279 253 LINE",
"288 316 LINE",
"224 289 LINE",
"265 585 LINE",
"108 585 LINE",
"57 219 LINE",
"1 196 LINE",
"-8 132 LINE",
"48 155 LINE",
"26 0 LINE"
);
}
);
width = 353;
}
);
note = Lslash;
unicode = 0141;
},
{
glyphname = M;
lastChange = "2021-05-18 00:21:14 +0000";
layers = (
{
background = {
paths = (
{
closed = 1;
nodes = (
"58 0 LINE",
"130 508 LINE",
"212 0 LINE",
"230 0 LINE",
"456 508 LINE",
"384 0 LINE",
"404 0 LINE",
"488 591 LINE",
"474 591 LINE",
"226 30 LINE",
"139 591 LINE",
"122 591 LINE",
"38 0 LINE"
);
}
);
};
layerId = "82B1C968-1149-4E0D-B361-F2F5D539D913";
paths = (
{
closed = 1;
nodes = (
"58 0 LINE",
"130 508 LINE",
"212 0 LINE",
"230 0 LINE",
"456 508 LINE",
"384 0 LINE",
"404 0 LINE",
"488 591 LINE",
"474 591 LINE",
"226 30 LINE",
"139 591 LINE",
"122 591 LINE",
"38 0 LINE"
);
}
);
width = 526;
},
{
background = {
paths = (
{
closed = 1;
nodes = (
"122 0 LINE",
"180 412 LINE",
"175 0 LINE",
"281 0 LINE",
"392 412 LINE",
"334 0 LINE",
"473 0 LINE",
"557 591 LINE",
"355 591 LINE",
"269 289 LINE",
"269 591 LINE",
"67 591 LINE",
"-17 0 LINE"
);
}
);
};
layerId = "8A3706BD-364F-4FE3-9C2E-7E87DF0DB4CC";
paths = (
{
closed = 1;
nodes = (
"122 0 LINE",
"180 412 LINE",
"175 0 LINE",
"281 0 LINE",
"392 412 LINE",
"334 0 LINE",
"473 0 LINE",
"557 591 LINE",
"355 591 LINE",
"269 289 LINE",
"269 591 LINE",
"67 591 LINE",
"-17 0 LINE"
);
}
);
width = 540;
}
);
unicode = 004D;
},
{
glyphname = N;
lastChange = "2021-05-18 00:21:14 +0000";
layers = (
{
background = {
paths = (
{
closed = 1;
nodes = (
"58 0 LINE",
"134 534 LINE",
"291 0 LINE",
"311 0 LINE",
"395 591 LINE",
"376 591 LINE",
"299 46 LINE",
"140 591 LINE",
"122 591 LINE",
"38 0 LINE"
);
}
);
};
layerId = "82B1C968-1149-4E0D-B361-F2F5D539D913";
paths = (
{
closed = 1;
nodes = (
"58 0 LINE",
"134 534 LINE",
"291 0 LINE",
"311 0 LINE",
"395 591 LINE",
"376 591 LINE",
"299 46 LINE",
"140 591 LINE",
"122 591 LINE",
"38 0 LINE"
);
}
);
width = 433;
},
{
background = {
paths = (
{
closed = 1;
nodes = (
"122 0 LINE",
"157 245 LINE",
"195 0 LINE",
"332 0 LINE",
"416 591 LINE",
"277 591 LINE",
"238 316 LINE",
"205 591 LINE",
"67 591 LINE",
"-17 0 LINE"
);
}
);
};
layerId = "8A3706BD-364F-4FE3-9C2E-7E87DF0DB4CC";
paths = (
{
closed = 1;
nodes = (
"122 0 LINE",
"157 245 LINE",
"195 0 LINE",
"332 0 LINE",
"416 591 LINE",
"277 591 LINE",
"238 316 LINE",
"205 591 LINE",
"67 591 LINE",
"-17 0 LINE"
);
}
);
width = 399;
}
);
unicode = 004E;
},
{
glyphname = Eng;
lastChange = "2021-05-18 00:21:20 +0000";
layers = (
{
background = {
paths = (
{
closed = 1;
nodes = (
"152 -250 OFFCURVE",
"164 -249 OFFCURVE",
"181 -249 CURVE SMOOTH",
"264 -249 OFFCURVE",
"269 -216 OFFCURVE",
"283 -112 CURVE SMOOTH",
"382 591 LINE",
"363 591 LINE",
"286 46 LINE",
"127 591 LINE",
"109 591 LINE",
"26 0 LINE",
"46 0 LINE",
"121 534 LINE",
"279 0 LINE",
"256 -162 LINE SMOOTH",
"248 -219 OFFCURVE",
"220 -232 OFFCURVE",
"184 -232 CURVE SMOOTH",
"149 -232 LINE",
"147 -249 LINE"
);
}
);
};
layerId = "82B1C968-1149-4E0D-B361-F2F5D539D913";
paths = (
{
closed = 1;
nodes = (
"152 -250 OFFCURVE",
"164 -249 OFFCURVE",
"181 -249 CURVE SMOOTH",
"264 -249 OFFCURVE",
"269 -216 OFFCURVE",
"283 -112 CURVE SMOOTH",
"382 591 LINE",
"363 591 LINE",
"286 46 LINE",
"127 591 LINE",
"109 591 LINE",
"26 0 LINE",
"46 0 LINE",
"121 534 LINE",
"279 0 LINE",
"256 -162 LINE SMOOTH",
"248 -219 OFFCURVE",
"220 -232 OFFCURVE",
"184 -232 CURVE SMOOTH",
"149 -232 LINE",
"147 -249 LINE"
);
}
);
width = 373;
},
{
background = {
paths = (
{
closed = 1;
nodes = (
"149 -249 OFFCURVE",
"183 -250 OFFCURVE",
"194 -250 CURVE SMOOTH",
"321 -250 OFFCURVE",
"374 -215 OFFCURVE",
"374 -90 CURVE SMOOTH",
"374 591 LINE",
"235 591 LINE",
"235 316 LINE",
"163 591 LINE",
"25 591 LINE",
"25 0 LINE",
"164 0 LINE",
"164 245 LINE",
"215 74 LINE",
"215 -93 LINE SMOOTH",
"215 -132 OFFCURVE",
"208 -141 OFFCURVE",
"169 -141 CURVE SMOOTH",
"140 -141 LINE",
"140 -249 LINE"
);
}
);
};
layerId = "8A3706BD-364F-4FE3-9C2E-7E87DF0DB4CC";
paths = (
{
closed = 1;
nodes = (
"321 -250 OFFCURVE",
"374 -215 OFFCURVE",
"374 -90 CURVE SMOOTH",
"374 591 LINE",
"235 591 LINE",
"235 316 LINE",
"163 591 LINE",
"25 591 LINE",
"25 0 LINE",
"164 0 LINE",
"164 245 LINE",
"215 74 LINE",
"215 -93 LINE SMOOTH",
"215 -132 OFFCURVE",
"208 -141 OFFCURVE",
"169 -141 CURVE SMOOTH",
"140 -141 LINE",
"140 -249 LINE",
"194 -250 LINE SMOOTH"
);
}
);
width = 399;
}
);
unicode = 014A;
},
{
glyphname = O;
lastChange = "2021-05-18 00:21:18 +0000";
layers = (
{
background = {
paths = (
{
closed = 1;
nodes = (
"225 -12 OFFCURVE",
"285 2 OFFCURVE",
"301 118 CURVE",
"351 469 LINE",
"367 583 OFFCURVE",
"311 599 OFFCURVE",
"233 599 CURVE",
"155 599 OFFCURVE",
"94 585 OFFCURVE",
"78 469 CURVE",
"28 118 LINE",
"12 4 OFFCURVE",
"68 -12 OFFCURVE",
"145 -12 CURVE"
);
},
{
closed = 1;
nodes = (
"79 4 OFFCURVE",
"33 17 OFFCURVE",
"48 121 CURVE",
"96 466 LINE",
"111 570 OFFCURVE",
"161 583 OFFCURVE",
"230 583 CURVE",
"298 583 OFFCURVE",
"345 570 OFFCURVE",
"330 466 CURVE",
"282 121 LINE",
"267 17 OFFCURVE",
"218 4 OFFCURVE",
"148 4 CURVE"
);
}
);
};
layerId = "82B1C968-1149-4E0D-B361-F2F5D539D913";
paths = (
{
closed = 1;
nodes = (
"225 -12 OFFCURVE",
"285 2 OFFCURVE",
"301 118 CURVE SMOOTH",
"351 469 LINE SMOOTH",
"367 583 OFFCURVE",
"311 599 OFFCURVE",
"233 599 CURVE SMOOTH",
"155 599 OFFCURVE",
"94 585 OFFCURVE",
"78 469 CURVE SMOOTH",
"28 118 LINE SMOOTH",
"12 4 OFFCURVE",
"68 -12 OFFCURVE",
"145 -12 CURVE SMOOTH"
);
},
{
closed = 1;
nodes = (
"79 4 OFFCURVE",
"33 17 OFFCURVE",
"48 121 CURVE SMOOTH",
"96 466 LINE SMOOTH",
"111 570 OFFCURVE",
"161 583 OFFCURVE",
"230 583 CURVE SMOOTH",
"298 583 OFFCURVE",
"345 570 OFFCURVE",
"330 466 CURVE SMOOTH",
"282 121 LINE SMOOTH",
"267 17 OFFCURVE",
"218 4 OFFCURVE",
"148 4 CURVE SMOOTH"
);
}
);
width = 379;
},
{
background = {
paths = (
{
closed = 1;
nodes = (
"274 -12 OFFCURVE",
"354 14 OFFCURVE",
"376 174 CURVE",
"417 465 LINE",
"431 564 OFFCURVE",
"360 600 OFFCURVE",
"251 600 CURVE",
"142 600 OFFCURVE",
"64 564 OFFCURVE",
"50 465 CURVE",
"9 173 LINE",
"-13 14 OFFCURVE",
"56 -12 OFFCURVE",
"165 -12 CURVE"
);
},
{
closed = 1;
nodes = (
"168 80 OFFCURVE",
"153 87 OFFCURVE",
"156 110 CURVE",
"207 473 LINE",
"210 496 OFFCURVE",
"227 503 OFFCURVE",
"237 503 CURVE",
"246 503 OFFCURVE",
"262 496 OFFCURVE",
"259 473 CURVE",
"208 110 LINE",
"205 87 OFFCURVE",
"187 80 OFFCURVE",
"178 80 CURVE"
);
}
);
};
layerId = "8A3706BD-364F-4FE3-9C2E-7E87DF0DB4CC";
paths = (
{
closed = 1;
nodes = (
"274 -12 OFFCURVE",
"354 14 OFFCURVE",
"376 174 CURVE SMOOTH",
"417 465 LINE SMOOTH",
"431 564 OFFCURVE",
"360 600 OFFCURVE",
"251 600 CURVE SMOOTH",
"142 600 OFFCURVE",
"64 564 OFFCURVE",
"50 465 CURVE SMOOTH",
"9 173 LINE SMOOTH",
"-13 14 OFFCURVE",
"56 -12 OFFCURVE",
"165 -12 CURVE SMOOTH"
);
},
{
closed = 1;
nodes = (
"168 80 OFFCURVE",
"153 87 OFFCURVE",
"156 110 CURVE SMOOTH",
"207 473 LINE SMOOTH",
"210 496 OFFCURVE",
"227 503 OFFCURVE",
"237 503 CURVE SMOOTH",
"246 503 OFFCURVE",
"262 496 OFFCURVE",
"259 473 CURVE SMOOTH",
"208 110 LINE SMOOTH",
"205 87 OFFCURVE",
"187 80 OFFCURVE",
"178 80 CURVE SMOOTH"
);
}
);
width = 424;
}
);
unicode = 004F;
},
{
glyphname = Oslash;
lastChange = "2021-05-18 00:21:18 +0000";
layers = (
{
background = {
paths = (
{
closed = 1;
nodes = (
"249 -12 OFFCURVE",
"309 2 OFFCURVE",
"325 118 CURVE",
"375 469 LINE",
"391 583 OFFCURVE",
"335 599 OFFCURVE",
"257 599 CURVE",
"179 599 OFFCURVE",
"118 585 OFFCURVE",
"102 469 CURVE",
"52 118 LINE",
"36 4 OFFCURVE",
"92 -12 OFFCURVE",
"169 -12 CURVE"
);
},
{
closed = 1;
nodes = (
"103 4 OFFCURVE",
"57 17 OFFCURVE",
"72 121 CURVE",
"120 466 LINE",
"135 570 OFFCURVE",
"185 583 OFFCURVE",
"254 583 CURVE",
"322 583 OFFCURVE",
"369 570 OFFCURVE",
"354 466 CURVE",
"306 121 LINE",
"291 17 OFFCURVE",
"242 4 OFFCURVE",
"172 4 CURVE"
);
},
{
closed = 1;
nodes = (
"19 -14 LINE",
"408 591 LINE",
"385 591 LINE",
"-3 -14 LINE"
);
}
);
};
hints = (
{
horizontal = 1;
place = "{-87, 636}";
type = Stem;
},
{
place = "{-18, 319}";
type = Stem;
}
);
layerId = "82B1C968-1149-4E0D-B361-F2F5D539D913";
paths = (
{
closed = 1;
nodes = (
"19 -14 LINE",
"408 591 LINE",
"385 591 LINE",
"-3 -14 LINE"
);
},
{
closed = 1;
nodes = (
"249 -12 OFFCURVE",
"309 2 OFFCURVE",
"325 118 CURVE SMOOTH",
"375 469 LINE SMOOTH",
"391 583 OFFCURVE",
"335 599 OFFCURVE",
"257 599 CURVE SMOOTH",
"179 599 OFFCURVE",
"118 585 OFFCURVE",
"102 469 CURVE SMOOTH",
"52 118 LINE SMOOTH",
"36 4 OFFCURVE",
"92 -12 OFFCURVE",
"169 -12 CURVE SMOOTH"
);
},
{
closed = 1;
nodes = (
"103 4 OFFCURVE",
"57 17 OFFCURVE",
"72 121 CURVE SMOOTH",
"120 466 LINE SMOOTH",
"135 570 OFFCURVE",
"185 583 OFFCURVE",
"254 583 CURVE SMOOTH",
"322 583 OFFCURVE",
"369 570 OFFCURVE",
"354 466 CURVE SMOOTH",
"306 121 LINE SMOOTH",
"291 17 OFFCURVE",
"242 4 OFFCURVE",
"172 4 CURVE SMOOTH"
);
}
);
width = 427;
},
{
background = {
paths = (
{
closed = 1;
nodes = (
"273 -12 OFFCURVE",
"343 14 OFFCURVE",
"365 174 CURVE",
"406 465 LINE",
"420 564 OFFCURVE",
"359 600 OFFCURVE",
"250 600 CURVE",
"141 600 OFFCURVE",
"63 564 OFFCURVE",
"49 465 CURVE",
"8 173 LINE",
"-14 14 OFFCURVE",
"55 -12 OFFCURVE",
"164 -12 CURVE"
);
},
{
closed = 1;
nodes = (
"167 80 OFFCURVE",
"162 87 OFFCURVE",
"165 110 CURVE",
"216 473 LINE",
"220 496 OFFCURVE",
"227 503 OFFCURVE",
"237 503 CURVE",
"246 503 OFFCURVE",
"252 496 OFFCURVE",
"248 473 CURVE",
"197 110 LINE",
"194 87 OFFCURVE",
"186 80 OFFCURVE",
"177 80 CURVE"
);
},
{
closed = 1;
nodes = (
"43 -15 LINE",
"435 591 LINE",
"368 591 LINE",
"-23 -15 LINE"
);
}
);
};
layerId = "8A3706BD-364F-4FE3-9C2E-7E87DF0DB4CC";
paths = (
{
closed = 1;
nodes = (
"43 -15 LINE",
"435 591 LINE",
"368 591 LINE",
"-23 -15 LINE"
);
},
{
closed = 1;
nodes = (
"273 -12 OFFCURVE",
"343 14 OFFCURVE",
"365 174 CURVE SMOOTH",
"406 465 LINE SMOOTH",
"420 564 OFFCURVE",
"359 600 OFFCURVE",
"250 600 CURVE SMOOTH",
"141 600 OFFCURVE",
"63 564 OFFCURVE",
"49 465 CURVE SMOOTH",
"8 173 LINE SMOOTH",
"-14 14 OFFCURVE",
"55 -12 OFFCURVE",
"164 -12 CURVE SMOOTH"
);
},
{
closed = 1;
nodes = (
"167 80 OFFCURVE",
"162 87 OFFCURVE",
"165 110 CURVE SMOOTH",
"216 473 LINE SMOOTH",
"220 496 OFFCURVE",
"227 503 OFFCURVE",
"237 503 CURVE SMOOTH",
"246 503 OFFCURVE",
"252 496 OFFCURVE",
"248 473 CURVE SMOOTH",
"197 110 LINE SMOOTH",
"194 87 OFFCURVE",
"186 80 OFFCURVE",
"177 80 CURVE SMOOTH"
);
}
);
width = 411;
}
);
unicode = 00D8;
},
{
glyphname = OE;
lastChange = "2021-05-18 00:21:18 +0000";
layers = (
{
background = {
paths = (
{
closed = 1;
nodes = (
"249 -12 OFFCURVE",
"309 2 OFFCURVE",
"325 118 CURVE",
"375 469 LINE",
"391 583 OFFCURVE",
"335 599 OFFCURVE",
"257 599 CURVE",
"179 599 OFFCURVE",
"118 585 OFFCURVE",
"102 469 CURVE",
"52 118 LINE",
"36 4 OFFCURVE",
"92 -12 OFFCURVE",
"169 -12 CURVE"
);
},
{
closed = 1;
nodes = (
"103 4 OFFCURVE",
"57 17 OFFCURVE",
"72 121 CURVE",
"120 466 LINE",
"135 570 OFFCURVE",
"185 583 OFFCURVE",
"254 583 CURVE",
"322 583 OFFCURVE",
"369 570 OFFCURVE",
"354 466 CURVE",
"306 121 LINE",
"291 17 OFFCURVE",
"242 4 OFFCURVE",
"172 4 CURVE"
);
},
{
closed = 1;
nodes = (
"530 0 LINE",
"532 16 LINE",
"311 16 LINE",
"351 304 LINE",
"521 304 LINE",
"524 320 LINE",
"354 320 LINE",
"390 575 LINE",
"611 575 LINE",
"613 591 LINE",
"372 591 LINE",
"289 0 LINE"
);
}
);
};
layerId = "82B1C968-1149-4E0D-B361-F2F5D539D913";
paths = (
{
closed = 1;
nodes = (
"249 -12 OFFCURVE",
"309 2 OFFCURVE",
"325 118 CURVE SMOOTH",
"375 469 LINE SMOOTH",
"391 583 OFFCURVE",
"335 599 OFFCURVE",
"257 599 CURVE SMOOTH",
"179 599 OFFCURVE",
"118 585 OFFCURVE",
"102 469 CURVE SMOOTH",
"52 118 LINE SMOOTH",
"36 4 OFFCURVE",
"92 -12 OFFCURVE",
"169 -12 CURVE SMOOTH"
);
},
{
closed = 1;
nodes = (
"103 4 OFFCURVE",
"57 17 OFFCURVE",
"72 121 CURVE SMOOTH",
"120 466 LINE SMOOTH",
"135 570 OFFCURVE",
"185 583 OFFCURVE",
"254 583 CURVE SMOOTH",
"322 583 OFFCURVE",
"369 570 OFFCURVE",
"354 466 CURVE SMOOTH",
"306 121 LINE SMOOTH",
"291 17 OFFCURVE",
"242 4 OFFCURVE",
"172 4 CURVE SMOOTH"
);
},
{
closed = 1;
nodes = (
"530 0 LINE",
"532 16 LINE",
"311 16 LINE",
"351 304 LINE",
"521 304 LINE",
"524 320 LINE",
"354 320 LINE",
"390 575 LINE",
"611 575 LINE",
"613 591 LINE",
"372 591 LINE",
"289 0 LINE"
);
}
);
width = 636;
},
{
background = {
paths = (
{
closed = 1;
nodes = (
"273 -12 OFFCURVE",
"343 14 OFFCURVE",
"365 174 CURVE",
"406 465 LINE",
"420 564 OFFCURVE",
"359 600 OFFCURVE",
"250 600 CURVE",
"141 600 OFFCURVE",
"63 564 OFFCURVE",
"49 465 CURVE",
"8 173 LINE",
"-14 14 OFFCURVE",
"55 -12 OFFCURVE",
"164 -12 CURVE"
);
},
{
closed = 1;
nodes = (
"167 80 OFFCURVE",
"162 87 OFFCURVE",
"165 110 CURVE",
"216 473 LINE",
"219 496 OFFCURVE",
"226 503 OFFCURVE",
"236 503 CURVE",
"245 503 OFFCURVE",
"251 496 OFFCURVE",
"248 473 CURVE",
"197 110 LINE",
"194 87 OFFCURVE",
"186 80 OFFCURVE",
"177 80 CURVE"
);
},
{
closed = 1;
nodes = (
"489 0 LINE",
"504 108 LINE",
"356 108 LINE",
"374 240 LINE",
"512 240 LINE",
"530 365 LINE",
"392 365 LINE",
"408 480 LINE",
"556 480 LINE",
"572 591 LINE",
"266 591 LINE",
"183 0 LINE"
);
}
);
};
layerId = "8A3706BD-364F-4FE3-9C2E-7E87DF0DB4CC";
paths = (
{
closed = 1;
nodes = (
"273 -12 OFFCURVE",
"343 14 OFFCURVE",
"365 174 CURVE SMOOTH",
"406 465 LINE SMOOTH",
"420 564 OFFCURVE",
"359 600 OFFCURVE",
"250 600 CURVE SMOOTH",
"141 600 OFFCURVE",
"63 564 OFFCURVE",
"49 465 CURVE SMOOTH",
"8 173 LINE SMOOTH",
"-14 14 OFFCURVE",
"55 -12 OFFCURVE",
"164 -12 CURVE SMOOTH"
);
},
{
closed = 1;
nodes = (
"167 80 OFFCURVE",
"162 87 OFFCURVE",
"165 110 CURVE SMOOTH",
"216 473 LINE SMOOTH",
"219 496 OFFCURVE",
"226 503 OFFCURVE",
"236 503 CURVE SMOOTH",
"245 503 OFFCURVE",
"251 496 OFFCURVE",
"248 473 CURVE SMOOTH",
"197 110 LINE SMOOTH",
"194 87 OFFCURVE",
"186 80 OFFCURVE",
"177 80 CURVE SMOOTH"
);
},
{
closed = 1;
nodes = (
"489 0 LINE",
"504 108 LINE",
"356 108 LINE",
"374 240 LINE",
"512 240 LINE",
"530 365 LINE",
"392 365 LINE",
"408 480 LINE",
"556 480 LINE",
"572 591 LINE",
"266 591 LINE",
"183 0 LINE"
);
}
);
width = 555;
}
);
unicode = 0152;
},
{
glyphname = P;
lastChange = "2021-05-18 00:21:22 +0000";
layers = (
{
background = {
paths = (
{
closed = 1;
nodes = (
"58 0 LINE",
"96 268 LINE",
"216 268 LINE",
"324 268 OFFCURVE",
"352 322 OFFCURVE",
"360 381 CURVE",
"376 494 LINE",
"386 566 OFFCURVE",
"341 591 OFFCURVE",
"284 591 CURVE",
"122 591 LINE",
"38 0 LINE"
);
},
{
closed = 1;
nodes = (
"281 575 LINE",
"326 575 OFFCURVE",
"363 548 OFFCURVE",
"355 491 CURVE",
"341 385 LINE",
"331 318 OFFCURVE",
"289 284 OFFCURVE",
"218 284 CURVE",
"98 284 LINE",
"139 575 LINE"
);
}
);
};
layerId = "82B1C968-1149-4E0D-B361-F2F5D539D913";
paths = (
{
closed = 1;
nodes = (
"58 0 LINE",
"96 268 LINE",
"216 268 LINE SMOOTH",
"324 268 OFFCURVE",
"352 322 OFFCURVE",
"360 381 CURVE SMOOTH",
"376 494 LINE SMOOTH",
"386 566 OFFCURVE",
"341 591 OFFCURVE",
"284 591 CURVE SMOOTH",
"122 591 LINE",
"38 0 LINE"
);
},
{
closed = 1;
nodes = (
"139 575 LINE",
"281 575 LINE SMOOTH",
"326 575 OFFCURVE",
"363 548 OFFCURVE",
"355 491 CURVE SMOOTH",
"341 385 LINE SMOOTH",
"331 318 OFFCURVE",
"289 284 OFFCURVE",
"218 284 CURVE SMOOTH",
"98 284 LINE"
);
}
);
width = 418;
},
{
background = {
paths = (
{
closed = 1;
nodes = (
"149 0 LINE",
"181 224 LINE",
"255 224 LINE",
"347 224 OFFCURVE",
"383 303 OFFCURVE",
"396 392 CURVE",
"409 490 LINE",
"418 549 OFFCURVE",
"387 591 OFFCURVE",
"299 591 CURVE",
"67 591 LINE",
"-17 0 LINE"
);
},
{
closed = 1;
nodes = (
"236 507 LINE",
"253 507 OFFCURVE",
"250 483 OFFCURVE",
"241 418 CURVE SMOOTH",
"240 408 LINE SMOOTH",
"230 335 OFFCURVE",
"219 310 OFFCURVE",
"205 310 CURVE",
"193 310 LINE",
"221 507 LINE"
);
}
);
};
layerId = "8A3706BD-364F-4FE3-9C2E-7E87DF0DB4CC";
paths = (
{
closed = 1;
nodes = (
"149 0 LINE",
"181 224 LINE",
"255 224 LINE SMOOTH",
"347 224 OFFCURVE",
"383 303 OFFCURVE",
"396 392 CURVE SMOOTH",
"409 490 LINE SMOOTH",
"418 549 OFFCURVE",
"387 591 OFFCURVE",
"299 591 CURVE SMOOTH",
"67 591 LINE",
"-17 0 LINE"
);
},
{
closed = 1;
nodes = (
"221 507 LINE",
"236 507 LINE SMOOTH",
"253 507 OFFCURVE",
"250 483 OFFCURVE",
"241 418 CURVE SMOOTH",
"240 408 LINE SMOOTH",
"230 335 OFFCURVE",
"219 310 OFFCURVE",
"205 310 CURVE SMOOTH",
"193 310 LINE"
);
}
);
width = 402;
}
);
unicode = 0050;
},
{
glyphname = Thorn;
lastChange = "2021-05-18 00:21:18 +0000";
layers = (
{
background = {
paths = (
{
closed = 1;
nodes = (
"28 0 LINE",
"50 150 LINE",
"90 150 OFFCURVE",
"130 150 OFFCURVE",
"170 150 CURVE SMOOTH",
"278 150 OFFCURVE",
"305 204 OFFCURVE",
"313 263 CURVE SMOOTH",
"329 376 LINE SMOOTH",
"339 448 OFFCURVE",
"294 473 OFFCURVE",
"237 473 CURVE SMOOTH",
"190 473 OFFCURVE",
"142 473 OFFCURVE",
"95 473 CURVE",
"112 591 LINE",
"92 591 LINE",
"8 0 LINE"
);
},
{
closed = 1;
nodes = (
"93 457 LINE",
"97 457 OFFCURVE",
"193 457 OFFCURVE",
"235 457 CURVE SMOOTH",
"280 457 OFFCURVE",
"317 430 OFFCURVE",
"309 373 CURVE SMOOTH",
"294 267 LINE SMOOTH",
"285 200 OFFCURVE",
"244 166 OFFCURVE",
"172 166 CURVE SMOOTH",
"132 166 OFFCURVE",
"92 166 OFFCURVE",
"52 166 CURVE"
);
}
);
};
hints = (
{
horizontal = 1;
place = "{-42, 21}";
target = up;
type = BottomGhost;
},
{
horizontal = 1;
place = "{108, -26}";
type = Stem;
},
{
horizontal = 1;
place = "{415, -26}";
type = Stem;
},
{
horizontal = 1;
place = "{549, -20}";
target = down;
type = TopGhost;
},
{
place = "{8, -22}";
type = Stem;
},
{
place = "{256, -22}";
type = Stem;
}
);
layerId = "82B1C968-1149-4E0D-B361-F2F5D539D913";
paths = (
{
closed = 1;
nodes = (
"28 0 LINE",
"50 150 LINE",
"170 150 LINE SMOOTH",
"278 150 OFFCURVE",
"305 204 OFFCURVE",
"313 263 CURVE SMOOTH",
"329 376 LINE SMOOTH",
"339 448 OFFCURVE",
"294 473 OFFCURVE",
"237 473 CURVE SMOOTH",
"95 473 LINE",
"112 591 LINE",
"92 591 LINE",
"8 0 LINE"
);
},
{
closed = 1;
nodes = (
"93 457 LINE",
"235 457 LINE SMOOTH",
"280 457 OFFCURVE",
"317 430 OFFCURVE",
"309 373 CURVE SMOOTH",
"294 267 LINE SMOOTH",
"285 200 OFFCURVE",
"244 166 OFFCURVE",
"172 166 CURVE SMOOTH",
"52 166 LINE"
);
}
);
width = 368;
},
{
background = {
paths = (
{
closed = 1;
nodes = (
"149 0 LINE",
"167 127 LINE",
"192 127 OFFCURVE",
"216 127 OFFCURVE",
"241 127 CURVE SMOOTH",
"333 127 OFFCURVE",
"369 206 OFFCURVE",
"382 295 CURVE SMOOTH",
"396 393 LINE SMOOTH",
"404 453 OFFCURVE",
"373 494 OFFCURVE",
"285 494 CURVE SMOOTH",
"263 494 OFFCURVE",
"242 494 OFFCURVE",
"220 494 CURVE",
"234 591 LINE",
"67 591 LINE",
"-17 0 LINE"
);
},
{
closed = 1;
nodes = (
"207 410 LINE",
"216 410 OFFCURVE",
"216 410 OFFCURVE",
"222 410 CURVE SMOOTH",
"240 410 OFFCURVE",
"237 387 OFFCURVE",
"228 321 CURVE SMOOTH",
"226 311 LINE SMOOTH",
"216 238 OFFCURVE",
"206 213 OFFCURVE",
"191 213 CURVE SMOOTH",
"187 213 OFFCURVE",
"183 213 OFFCURVE",
"179 213 CURVE"
);
}
);
};
layerId = "8A3706BD-364F-4FE3-9C2E-7E87DF0DB4CC";
paths = (
{
closed = 1;
nodes = (
"149 0 LINE",
"167 127 LINE",
"241 127 LINE SMOOTH",
"333 127 OFFCURVE",
"369 206 OFFCURVE",
"382 295 CURVE SMOOTH",
"396 393 LINE SMOOTH",
"404 453 OFFCURVE",
"373 494 OFFCURVE",
"285 494 CURVE SMOOTH",
"220 494 LINE",
"234 591 LINE",
"67 591 LINE",
"-17 0 LINE"
);
},
{
closed = 1;
nodes = (
"207 410 LINE",
"222 410 LINE SMOOTH",
"240 410 OFFCURVE",
"237 387 OFFCURVE",
"228 321 CURVE SMOOTH",
"226 311 LINE SMOOTH",
"216 238 OFFCURVE",
"206 213 OFFCURVE",
"191 213 CURVE SMOOTH",
"179 213 LINE"
);
}
);
width = 407;
}
);
note = Thorn;
unicode = 00DE;
},
{
glyphname = Q;
lastChange = "2021-05-18 00:21:18 +0000";
layers = (
{
background = {
paths = (
{
closed = 1;
nodes = (
"290 -100 LINE",
"245 -4 LINE",
"289 8 OFFCURVE",
"319 39 OFFCURVE",
"330 118 CURVE",
"380 469 LINE",
"396 583 OFFCURVE",
"340 599 OFFCURVE",
"262 599 CURVE",
"184 599 OFFCURVE",
"123 585 OFFCURVE",
"107 469 CURVE",
"57 118 LINE",
"41 4 OFFCURVE",
"97 -12 OFFCURVE",
"174 -12 CURVE",
"192 -12 OFFCURVE",
"208 -11 OFFCURVE",
"223 -9 CURVE",
"269 -111 LINE"
);
},
{
closed = 1;
nodes = (
"108 4 OFFCURVE",
"62 17 OFFCURVE",
"77 121 CURVE",
"125 466 LINE",
"140 570 OFFCURVE",
"190 583 OFFCURVE",
"259 583 CURVE",
"327 583 OFFCURVE",
"374 570 OFFCURVE",
"359 466 CURVE",
"311 121 LINE",
"296 17 OFFCURVE",
"247 4 OFFCURVE",
"177 4 CURVE"
);
}
);
};
layerId = "82B1C968-1149-4E0D-B361-F2F5D539D913";
paths = (
{
closed = 1;
nodes = (
"290 -100 LINE",
"245 -4 LINE",
"289 8 OFFCURVE",
"319 39 OFFCURVE",
"330 118 CURVE SMOOTH",
"380 469 LINE SMOOTH",
"396 583 OFFCURVE",
"340 599 OFFCURVE",
"262 599 CURVE SMOOTH",
"184 599 OFFCURVE",
"123 585 OFFCURVE",
"107 469 CURVE SMOOTH",
"57 118 LINE SMOOTH",
"41 4 OFFCURVE",
"97 -12 OFFCURVE",
"174 -12 CURVE SMOOTH",
"192 -12 OFFCURVE",
"208 -11 OFFCURVE",
"223 -9 CURVE",
"269 -111 LINE"
);
},
{
closed = 1;
nodes = (
"108 4 OFFCURVE",
"62 17 OFFCURVE",
"77 121 CURVE SMOOTH",
"125 466 LINE SMOOTH",
"140 570 OFFCURVE",
"190 583 OFFCURVE",
"259 583 CURVE SMOOTH",
"327 583 OFFCURVE",
"374 570 OFFCURVE",
"359 466 CURVE SMOOTH",
"311 121 LINE SMOOTH",
"296 17 OFFCURVE",
"247 4 OFFCURVE",
"177 4 CURVE SMOOTH"
);
}
);
width = 423;
},
{
background = {
paths = (
{
closed = 1;
nodes = (
"343 -68 LINE",
"305 20 LINE",
"339 47 OFFCURVE",
"362 93 OFFCURVE",
"373 174 CURVE",
"414 465 LINE",
"428 564 OFFCURVE",
"367 600 OFFCURVE",
"258 600 CURVE",
"149 600 OFFCURVE",
"71 564 OFFCURVE",
"57 465 CURVE",
"16 173 LINE",
"-6 14 OFFCURVE",
"63 -12 OFFCURVE",
"172 -12 CURVE",
"174 -12 OFFCURVE",
"177 -12 OFFCURVE",
"179 -12 CURVE",
"231 -129 LINE"
);
},
{
closed = 1;
nodes = (
"175 80 OFFCURVE",
"170 87 OFFCURVE",
"173 110 CURVE",
"224 473 LINE",
"228 496 OFFCURVE",
"235 503 OFFCURVE",
"245 503 CURVE",
"254 503 OFFCURVE",
"260 496 OFFCURVE",
"256 473 CURVE",
"205 110 LINE",
"202 87 OFFCURVE",
"194 80 OFFCURVE",
"185 80 CURVE"
);
}
);
};
layerId = "8A3706BD-364F-4FE3-9C2E-7E87DF0DB4CC";
paths = (
{
closed = 1;
nodes = (
"343 -68 LINE",
"305 20 LINE",
"339 47 OFFCURVE",
"362 93 OFFCURVE",
"373 174 CURVE SMOOTH",
"414 465 LINE SMOOTH",
"428 564 OFFCURVE",
"367 600 OFFCURVE",
"258 600 CURVE SMOOTH",
"149 600 OFFCURVE",
"71 564 OFFCURVE",
"57 465 CURVE SMOOTH",
"16 173 LINE SMOOTH",
"-6 14 OFFCURVE",
"63 -12 OFFCURVE",
"172 -12 CURVE SMOOTH",
"179 -12 LINE",
"231 -129 LINE"
);
},
{
closed = 1;
nodes = (
"175 80 OFFCURVE",
"170 87 OFFCURVE",
"173 110 CURVE SMOOTH",
"224 473 LINE SMOOTH",
"228 496 OFFCURVE",
"235 503 OFFCURVE",
"245 503 CURVE SMOOTH",
"254 503 OFFCURVE",
"260 496 OFFCURVE",
"256 473 CURVE SMOOTH",
"205 110 LINE SMOOTH",
"202 87 OFFCURVE",
"194 80 OFFCURVE",
"185 80 CURVE SMOOTH"
);
}
);
width = 411;
}
);
unicode = 0051;
},
{
glyphname = R;
lastChange = "2021-05-18 00:21:18 +0000";
layers = (
{
background = {
paths = (
{
closed = 1;
nodes = (
"57 0 LINE",
"98 288 LINE",
"202 288 LINE",
"254 288 OFFCURVE",
"267 243 OFFCURVE",
"274 201 CURVE",
"308 0 LINE",
"328 0 LINE",
"316 68 OFFCURVE",
"304 135 OFFCURVE",
"292 203 CURVE",
"284 251 OFFCURVE",
"270 290 OFFCURVE",
"243 292 CURVE",
"304 293 OFFCURVE",
"353 333 OFFCURVE",
"362 396 CURVE",
"376 494 LINE",
"386 566 OFFCURVE",
"340 591 OFFCURVE",
"283 591 CURVE",
"122 591 LINE",
"38 0 LINE"
);
},
{
closed = 1;
nodes = (
"138 575 LINE",
"281 575 LINE",
"326 575 OFFCURVE",
"363 548 OFFCURVE",
"355 491 CURVE",
"343 404 LINE",
"333 330 OFFCURVE",
"292 303 OFFCURVE",
"221 303 CURVE",
"100 303 LINE"
);
}
);
};
layerId = "82B1C968-1149-4E0D-B361-F2F5D539D913";
paths = (
{
closed = 1;
nodes = (
"57 0 LINE",
"98 288 LINE",
"202 288 LINE SMOOTH",
"254 288 OFFCURVE",
"267 243 OFFCURVE",
"274 201 CURVE SMOOTH",
"308 0 LINE",
"328 0 LINE",
"292 203 LINE SMOOTH",
"284 251 OFFCURVE",
"270 290 OFFCURVE",
"243 292 CURVE",
"304 293 OFFCURVE",
"353 333 OFFCURVE",
"362 396 CURVE SMOOTH",
"376 494 LINE SMOOTH",
"386 566 OFFCURVE",
"340 591 OFFCURVE",
"283 591 CURVE SMOOTH",
"122 591 LINE",
"38 0 LINE"
);
},
{
closed = 1;
nodes = (
"138 575 LINE",
"281 575 LINE SMOOTH",
"326 575 OFFCURVE",
"363 548 OFFCURVE",
"355 491 CURVE SMOOTH",
"343 404 LINE SMOOTH",
"333 330 OFFCURVE",
"292 303 OFFCURVE",
"221 303 CURVE SMOOTH",
"100 303 LINE"
);
}
);
width = 430;
},
{
background = {
paths = (
{
closed = 1;
nodes = (
"149 0 LINE",
"183 237 LINE",
"183 237 LINE",
"187 237 OFFCURVE",
"189 235 OFFCURVE",
"190 215 CURVE",
"200 0 LINE",
"377 0 LINE",
"370 72 OFFCURVE",
"361 143 OFFCURVE",
"353 215 CURVE",
"342 267 OFFCURVE",
"322 276 OFFCURVE",
"297 278 CURVE",
"372 294 OFFCURVE",
"396 344 OFFCURVE",
"404 399 CURVE",
"416 489 LINE",
"425 548 OFFCURVE",
"394 590 OFFCURVE",
"306 590 CURVE",
"67 591 LINE",
"-17 0 LINE"
);
},
{
closed = 1;
nodes = (
"221 507 LINE",
"240 507 LINE",
"257 507 OFFCURVE",
"257 492 OFFCURVE",
"249 441 CURVE SMOOTH",
"244 409 LINE SMOOTH",
"239 374 OFFCURVE",
"233 347 OFFCURVE",
"213 347 CURVE",
"198 347 LINE"
);
}
);
};
layerId = "8A3706BD-364F-4FE3-9C2E-7E87DF0DB4CC";
paths = (
{
closed = 1;
nodes = (
"149 0 LINE",
"183 237 LINE",
"187 237 OFFCURVE",
"189 235 OFFCURVE",
"190 215 CURVE SMOOTH",
"200 0 LINE",
"377 0 LINE",
"370 72 OFFCURVE",
"361 143 OFFCURVE",
"353 215 CURVE",
"342 267 OFFCURVE",
"322 276 OFFCURVE",
"297 278 CURVE",
"372 294 OFFCURVE",
"396 344 OFFCURVE",
"404 399 CURVE SMOOTH",
"416 489 LINE SMOOTH",
"425 548 OFFCURVE",
"394 590 OFFCURVE",
"306 590 CURVE SMOOTH",
"67 591 LINE",
"-17 0 LINE"
);
},
{
closed = 1;
nodes = (
"221 507 LINE",
"240 507 LINE SMOOTH",
"257 507 OFFCURVE",
"257 492 OFFCURVE",
"249 441 CURVE SMOOTH",
"244 409 LINE SMOOTH",
"239 374 OFFCURVE",
"233 347 OFFCURVE",
"213 347 CURVE SMOOTH",
"198 347 LINE"
);
}
);
width = 424;
}
);
unicode = 0052;
},
{
glyphname = S;
lastChange = "2021-05-18 00:21:18 +0000";
layers = (
{
background = {
paths = (
{
closed = 1;
nodes = (
"238 -6 OFFCURVE",
"303 34 OFFCURVE",
"319 149 CURVE",
"332 246 OFFCURVE",
"299 273 OFFCURVE",
"213 309 CURVE",
"157 331 OFFCURVE",
"105 357 OFFCURVE",
"117 444 CURVE",
"130 531 OFFCURVE",
"169 575 OFFCURVE",
"246 575 CURVE",
"315 575 OFFCURVE",
"349 533 OFFCURVE",
"339 465 CURVE",
"337 452 OFFCURVE",
"333 418 OFFCURVE",
"331 405 CURVE",
"337 405 OFFCURVE",
"343 405 OFFCURVE",
"349 405 CURVE",
"351 418 OFFCURVE",
"355 452 OFFCURVE",
"357 465 CURVE",
"368 544 OFFCURVE",
"327 591 OFFCURVE",
"248 591 CURVE",
"157 591 OFFCURVE",
"113 539 OFFCURVE",
"99 444 CURVE",
"86 350 OFFCURVE",
"139 319 OFFCURVE",
"196 296 CURVE",
"269 267 OFFCURVE",
"314 248 OFFCURVE",
"300 149 CURVE",
"285 46 OFFCURVE",
"229 11 OFFCURVE",
"162 11 CURVE",
"98 11 OFFCURVE",
"58 46 OFFCURVE",
"75 166 CURVE",
"76 170 OFFCURVE",
"79 194 OFFCURVE",
"80 198 CURVE",
"74 198 OFFCURVE",
"68 198 OFFCURVE",
"62 198 CURVE",
"61 194 OFFCURVE",
"58 170 OFFCURVE",
"57 166 CURVE",
"39 36 OFFCURVE",
"83 -6 OFFCURVE",
"160 -6 CURVE"
);
}
);
};
layerId = "82B1C968-1149-4E0D-B361-F2F5D539D913";
paths = (
{
closed = 1;
nodes = (
"238 -6 OFFCURVE",
"303 34 OFFCURVE",
"319 149 CURVE SMOOTH",
"332 246 OFFCURVE",
"299 273 OFFCURVE",
"213 309 CURVE SMOOTH",
"157 331 OFFCURVE",
"105 357 OFFCURVE",
"117 444 CURVE SMOOTH",
"130 531 OFFCURVE",
"169 575 OFFCURVE",
"246 575 CURVE SMOOTH",
"315 575 OFFCURVE",
"349 533 OFFCURVE",
"339 465 CURVE SMOOTH",
"331 405 LINE",
"337 405 OFFCURVE",
"343 405 OFFCURVE",
"349 405 CURVE",
"357 465 LINE SMOOTH",
"368 544 OFFCURVE",
"327 591 OFFCURVE",
"248 591 CURVE SMOOTH",
"157 591 OFFCURVE",
"113 539 OFFCURVE",
"99 444 CURVE SMOOTH",
"86 350 OFFCURVE",
"139 319 OFFCURVE",
"196 296 CURVE SMOOTH",
"269 267 OFFCURVE",
"314 248 OFFCURVE",
"300 149 CURVE SMOOTH",
"285 46 OFFCURVE",
"229 11 OFFCURVE",
"162 11 CURVE SMOOTH",
"98 11 OFFCURVE",
"58 46 OFFCURVE",
"75 166 CURVE SMOOTH",
"76 170 OFFCURVE",
"79 194 OFFCURVE",
"80 198 CURVE",
"62 198 LINE",
"61 194 OFFCURVE",
"58 170 OFFCURVE",
"57 166 CURVE SMOOTH",
"39 36 OFFCURVE",
"83 -6 OFFCURVE",
"160 -6 CURVE SMOOTH"
);
}
);
width = 414;
},
{
background = {
paths = (
{
closed = 1;
nodes = (
"279 -8 OFFCURVE",
"361 36 OFFCURVE",
"380 171 CURVE",
"397 290 OFFCURVE",
"363 313 OFFCURVE",
"279 345 CURVE",
"239 361 OFFCURVE",
"201 368 OFFCURVE",
"209 427 CURVE",
"213 456 OFFCURVE",
"218 467 OFFCURVE",
"235 467 CURVE",
"256 467 OFFCURVE",
"254 453 OFFCURVE",
"246 399 CURVE",
"245 394 OFFCURVE",
"243 378 OFFCURVE",
"242 373 CURVE",
"295 373 OFFCURVE",
"348 373 OFFCURVE",
"401 373 CURVE",
"404 395 OFFCURVE",
"409 427 OFFCURVE",
"412 449 CURVE",
"426 546 OFFCURVE",
"370 593 OFFCURVE",
"250 593 CURVE",
"110 593 OFFCURVE",
"61 548 OFFCURVE",
"43 422 CURVE",
"31 332 OFFCURVE",
"44 279 OFFCURVE",
"114 246 CURVE",
"190 211 OFFCURVE",
"217 211 OFFCURVE",
"208 147 CURVE",
"201 101 OFFCURVE",
"195 92 OFFCURVE",
"180 92 CURVE",
"166 92 OFFCURVE",
"160 101 OFFCURVE",
"168 155 CURVE",
"170 170 OFFCURVE",
"173 191 OFFCURVE",
"175 206 CURVE",
"119 206 OFFCURVE",
"64 206 OFFCURVE",
"8 206 CURVE",
"7 200 OFFCURVE",
"3 175 OFFCURVE",
"3 169 CURVE",
"-17 26 OFFCURVE",
"41 -8 OFFCURVE",
"160 -8 CURVE"
);
}
);
};
layerId = "8A3706BD-364F-4FE3-9C2E-7E87DF0DB4CC";
paths = (
{
closed = 1;
nodes = (
"279 -8 OFFCURVE",
"361 36 OFFCURVE",
"380 171 CURVE SMOOTH",
"397 290 OFFCURVE",
"363 313 OFFCURVE",
"279 345 CURVE SMOOTH",
"239 361 OFFCURVE",
"201 368 OFFCURVE",
"209 427 CURVE SMOOTH",
"213 456 OFFCURVE",
"218 467 OFFCURVE",
"235 467 CURVE SMOOTH",
"256 467 OFFCURVE",
"254 453 OFFCURVE",
"246 399 CURVE SMOOTH",
"242 373 LINE",
"295 373 OFFCURVE",
"348 373 OFFCURVE",
"401 373 CURVE",
"412 449 LINE SMOOTH",
"426 546 OFFCURVE",
"370 593 OFFCURVE",
"250 593 CURVE SMOOTH",
"110 593 OFFCURVE",
"61 548 OFFCURVE",
"43 422 CURVE SMOOTH",
"31 332 OFFCURVE",
"44 279 OFFCURVE",
"114 246 CURVE SMOOTH",
"190 211 OFFCURVE",
"217 211 OFFCURVE",
"208 147 CURVE SMOOTH",
"201 101 OFFCURVE",
"195 92 OFFCURVE",
"180 92 CURVE SMOOTH",
"166 92 OFFCURVE",
"160 101 OFFCURVE",
"168 155 CURVE SMOOTH",
"170 170 OFFCURVE",
"173 191 OFFCURVE",
"175 206 CURVE",
"8 206 LINE",
"7 200 OFFCURVE",
"3 175 OFFCURVE",
"3 169 CURVE",
"-17 26 OFFCURVE",
"41 -8 OFFCURVE",
"160 -8 CURVE SMOOTH"
);
}
);
width = 417;
}
);
unicode = 0053;
},
{
glyphname = Germandbls;
lastChange = "2021-05-18 00:21:18 +0000";
layers = (
{
background = {
paths = (
{
closed = 1;
nodes = (
"238 -6 OFFCURVE",
"303 34 OFFCURVE",
"319 149 CURVE",
"332 246 OFFCURVE",
"299 273 OFFCURVE",
"213 309 CURVE",
"157 331 OFFCURVE",
"105 357 OFFCURVE",
"117 444 CURVE",
"130 531 OFFCURVE",
"169 575 OFFCURVE",
"246 575 CURVE",
"315 575 OFFCURVE",
"349 533 OFFCURVE",
"339 465 CURVE",
"337 452 OFFCURVE",
"333 418 OFFCURVE",
"331 405 CURVE",
"337 405 OFFCURVE",
"343 405 OFFCURVE",
"349 405 CURVE",
"351 418 OFFCURVE",
"355 452 OFFCURVE",
"357 465 CURVE",
"368 544 OFFCURVE",
"327 591 OFFCURVE",
"248 591 CURVE",
"157 591 OFFCURVE",
"113 539 OFFCURVE",
"99 444 CURVE",
"86 350 OFFCURVE",
"139 319 OFFCURVE",
"196 296 CURVE",
"269 267 OFFCURVE",
"314 248 OFFCURVE",
"300 149 CURVE",
"285 46 OFFCURVE",
"229 11 OFFCURVE",
"162 11 CURVE",
"98 11 OFFCURVE",
"58 46 OFFCURVE",
"75 166 CURVE",
"76 170 OFFCURVE",
"79 194 OFFCURVE",
"80 198 CURVE",
"74 198 OFFCURVE",
"68 198 OFFCURVE",
"62 198 CURVE",
"61 194 OFFCURVE",
"58 170 OFFCURVE",
"57 166 CURVE",
"39 36 OFFCURVE",
"83 -6 OFFCURVE",
"160 -6 CURVE"
);
},
{
closed = 1;
nodes = (
"581 -6 OFFCURVE",
"646 34 OFFCURVE",
"662 149 CURVE",
"675 246 OFFCURVE",
"642 273 OFFCURVE",
"556 309 CURVE",
"500 331 OFFCURVE",
"448 357 OFFCURVE",
"460 444 CURVE",
"473 531 OFFCURVE",
"512 575 OFFCURVE",
"589 575 CURVE",
"658 575 OFFCURVE",
"692 533 OFFCURVE",
"682 465 CURVE",
"680 452 OFFCURVE",
"676 418 OFFCURVE",
"674 405 CURVE",
"680 405 OFFCURVE",
"686 405 OFFCURVE",
"692 405 CURVE",
"694 418 OFFCURVE",
"698 452 OFFCURVE",
"700 465 CURVE",
"711 544 OFFCURVE",
"670 591 OFFCURVE",
"591 591 CURVE",
"500 591 OFFCURVE",
"456 539 OFFCURVE",
"442 444 CURVE",
"429 350 OFFCURVE",
"482 319 OFFCURVE",
"539 296 CURVE",
"612 267 OFFCURVE",
"657 248 OFFCURVE",
"643 149 CURVE",
"628 46 OFFCURVE",
"572 11 OFFCURVE",
"505 11 CURVE",
"441 11 OFFCURVE",
"401 46 OFFCURVE",
"418 166 CURVE",
"419 170 OFFCURVE",
"422 194 OFFCURVE",
"423 198 CURVE",
"417 198 OFFCURVE",
"411 198 OFFCURVE",
"405 198 CURVE",
"404 194 OFFCURVE",
"401 170 OFFCURVE",
"400 166 CURVE",
"382 36 OFFCURVE",
"426 -6 OFFCURVE",
"503 -6 CURVE"
);
}
);
};
layerId = "82B1C968-1149-4E0D-B361-F2F5D539D913";
paths = (
{
closed = 1;
nodes = (
"581 -6 OFFCURVE",
"646 34 OFFCURVE",
"662 149 CURVE SMOOTH",
"675 246 OFFCURVE",
"642 273 OFFCURVE",
"556 309 CURVE SMOOTH",
"500 331 OFFCURVE",
"448 357 OFFCURVE",
"460 444 CURVE SMOOTH",
"473 531 OFFCURVE",
"512 575 OFFCURVE",
"589 575 CURVE SMOOTH",
"658 575 OFFCURVE",
"692 533 OFFCURVE",
"682 465 CURVE SMOOTH",
"674 405 LINE",
"680 405 OFFCURVE",
"686 405 OFFCURVE",
"692 405 CURVE",
"700 465 LINE SMOOTH",
"711 544 OFFCURVE",
"670 591 OFFCURVE",
"591 591 CURVE SMOOTH",
"500 591 OFFCURVE",
"456 539 OFFCURVE",
"442 444 CURVE SMOOTH",
"429 350 OFFCURVE",
"482 319 OFFCURVE",
"539 296 CURVE SMOOTH",
"612 267 OFFCURVE",
"657 248 OFFCURVE",
"643 149 CURVE SMOOTH",
"628 46 OFFCURVE",
"572 11 OFFCURVE",
"505 11 CURVE SMOOTH",
"441 11 OFFCURVE",
"401 46 OFFCURVE",
"418 166 CURVE SMOOTH",
"419 170 OFFCURVE",
"422 194 OFFCURVE",
"423 198 CURVE",
"405 198 LINE",
"404 194 OFFCURVE",
"401 170 OFFCURVE",
"400 166 CURVE SMOOTH",
"382 36 OFFCURVE",
"426 -6 OFFCURVE",
"503 -6 CURVE SMOOTH"
);
},
{
closed = 1;
nodes = (
"238 -6 OFFCURVE",
"303 34 OFFCURVE",
"319 149 CURVE SMOOTH",
"332 246 OFFCURVE",
"299 273 OFFCURVE",
"213 309 CURVE SMOOTH",
"157 331 OFFCURVE",
"105 357 OFFCURVE",
"117 444 CURVE SMOOTH",
"130 531 OFFCURVE",
"169 575 OFFCURVE",
"246 575 CURVE SMOOTH",
"315 575 OFFCURVE",
"349 533 OFFCURVE",
"339 465 CURVE SMOOTH",
"331 405 LINE",
"337 405 OFFCURVE",
"343 405 OFFCURVE",
"349 405 CURVE",
"357 465 LINE SMOOTH",
"368 544 OFFCURVE",
"327 591 OFFCURVE",
"248 591 CURVE SMOOTH",
"157 591 OFFCURVE",
"113 539 OFFCURVE",
"99 444 CURVE SMOOTH",
"86 350 OFFCURVE",
"139 319 OFFCURVE",
"196 296 CURVE SMOOTH",
"269 267 OFFCURVE",
"314 248 OFFCURVE",
"300 149 CURVE SMOOTH",
"285 46 OFFCURVE",
"229 11 OFFCURVE",
"162 11 CURVE SMOOTH",
"98 11 OFFCURVE",
"58 46 OFFCURVE",
"75 166 CURVE SMOOTH",
"76 170 OFFCURVE",
"79 194 OFFCURVE",
"80 198 CURVE",
"62 198 LINE",
"61 194 OFFCURVE",
"58 170 OFFCURVE",
"57 166 CURVE SMOOTH",
"39 36 OFFCURVE",
"83 -6 OFFCURVE",
"160 -6 CURVE SMOOTH"
);
}
);
width = 757;
},
{
background = {
paths = (
{
closed = 1;
nodes = (
"279 -8 OFFCURVE",
"361 36 OFFCURVE",
"380 171 CURVE",
"397 290 OFFCURVE",
"363 313 OFFCURVE",
"279 345 CURVE",
"239 361 OFFCURVE",
"201 368 OFFCURVE",
"209 427 CURVE",
"213 456 OFFCURVE",
"218 467 OFFCURVE",
"235 467 CURVE",
"256 467 OFFCURVE",
"254 453 OFFCURVE",
"246 399 CURVE",
"245 394 OFFCURVE",
"243 378 OFFCURVE",
"242 373 CURVE",
"295 373 OFFCURVE",
"348 373 OFFCURVE",
"401 373 CURVE",
"404 395 OFFCURVE",
"409 427 OFFCURVE",
"412 449 CURVE",
"426 546 OFFCURVE",
"370 593 OFFCURVE",
"250 593 CURVE",
"110 593 OFFCURVE",
"61 548 OFFCURVE",
"43 422 CURVE",
"31 332 OFFCURVE",
"44 279 OFFCURVE",
"114 246 CURVE",
"190 211 OFFCURVE",
"217 211 OFFCURVE",
"208 147 CURVE",
"201 101 OFFCURVE",
"195 92 OFFCURVE",
"180 92 CURVE",
"166 92 OFFCURVE",
"160 101 OFFCURVE",
"168 155 CURVE",
"170 170 OFFCURVE",
"173 191 OFFCURVE",
"175 206 CURVE",
"119 206 OFFCURVE",
"64 206 OFFCURVE",
"8 206 CURVE",
"7 200 OFFCURVE",
"3 175 OFFCURVE",
"3 169 CURVE",
"-17 26 OFFCURVE",
"41 -8 OFFCURVE",
"160 -8 CURVE"
);
},
{
closed = 1;
nodes = (
"676 -8 OFFCURVE",
"758 36 OFFCURVE",
"777 171 CURVE",
"794 290 OFFCURVE",
"760 313 OFFCURVE",
"676 345 CURVE",
"636 361 OFFCURVE",
"598 368 OFFCURVE",
"606 427 CURVE",
"610 456 OFFCURVE",
"615 467 OFFCURVE",
"632 467 CURVE",
"653 467 OFFCURVE",
"651 453 OFFCURVE",
"643 399 CURVE",
"642 394 OFFCURVE",
"640 378 OFFCURVE",
"639 373 CURVE",
"692 373 OFFCURVE",
"745 373 OFFCURVE",
"798 373 CURVE",
"801 395 OFFCURVE",
"806 427 OFFCURVE",
"809 449 CURVE",
"823 546 OFFCURVE",
"767 593 OFFCURVE",
"647 593 CURVE",
"507 593 OFFCURVE",
"458 548 OFFCURVE",
"440 422 CURVE",
"428 332 OFFCURVE",
"441 279 OFFCURVE",
"511 246 CURVE",
"587 211 OFFCURVE",
"614 211 OFFCURVE",
"605 147 CURVE",
"598 101 OFFCURVE",
"592 92 OFFCURVE",
"577 92 CURVE",
"563 92 OFFCURVE",
"557 101 OFFCURVE",
"565 155 CURVE",
"567 170 OFFCURVE",
"570 191 OFFCURVE",
"572 206 CURVE",
"516 206 OFFCURVE",
"461 206 OFFCURVE",
"405 206 CURVE",
"404 200 OFFCURVE",
"400 175 OFFCURVE",
"400 169 CURVE",
"380 26 OFFCURVE",
"438 -8 OFFCURVE",
"557 -8 CURVE"
);
}
);
};
layerId = "8A3706BD-364F-4FE3-9C2E-7E87DF0DB4CC";
paths = (
{
closed = 1;
nodes = (
"676 -8 OFFCURVE",
"758 36 OFFCURVE",
"777 171 CURVE SMOOTH",
"794 290 OFFCURVE",
"760 313 OFFCURVE",
"676 345 CURVE SMOOTH",
"636 361 OFFCURVE",
"598 368 OFFCURVE",
"606 427 CURVE SMOOTH",
"610 456 OFFCURVE",
"615 467 OFFCURVE",
"632 467 CURVE SMOOTH",
"653 467 OFFCURVE",
"651 453 OFFCURVE",
"643 399 CURVE SMOOTH",
"639 373 LINE",
"692 373 OFFCURVE",
"745 373 OFFCURVE",
"798 373 CURVE",
"809 449 LINE SMOOTH",
"823 546 OFFCURVE",
"767 593 OFFCURVE",
"647 593 CURVE SMOOTH",
"507 593 OFFCURVE",
"458 548 OFFCURVE",
"440 422 CURVE SMOOTH",
"428 332 OFFCURVE",
"441 279 OFFCURVE",
"511 246 CURVE SMOOTH",
"587 211 OFFCURVE",
"614 211 OFFCURVE",
"605 147 CURVE SMOOTH",
"598 101 OFFCURVE",
"592 92 OFFCURVE",
"577 92 CURVE SMOOTH",
"563 92 OFFCURVE",
"557 101 OFFCURVE",
"565 155 CURVE SMOOTH",
"567 170 OFFCURVE",
"570 191 OFFCURVE",
"572 206 CURVE",
"405 206 LINE",
"404 200 OFFCURVE",
"400 175 OFFCURVE",
"400 169 CURVE",
"380 26 OFFCURVE",
"438 -8 OFFCURVE",
"557 -8 CURVE SMOOTH"
);
},
{
closed = 1;
nodes = (
"279 -8 OFFCURVE",
"361 36 OFFCURVE",
"380 171 CURVE SMOOTH",
"397 290 OFFCURVE",
"363 313 OFFCURVE",
"279 345 CURVE SMOOTH",
"239 361 OFFCURVE",
"201 368 OFFCURVE",
"209 427 CURVE SMOOTH",
"213 456 OFFCURVE",
"218 467 OFFCURVE",
"235 467 CURVE SMOOTH",
"256 467 OFFCURVE",
"254 453 OFFCURVE",
"246 399 CURVE SMOOTH",
"242 373 LINE",
"295 373 OFFCURVE",
"348 373 OFFCURVE",
"401 373 CURVE",
"412 449 LINE SMOOTH",
"426 546 OFFCURVE",
"370 593 OFFCURVE",
"250 593 CURVE SMOOTH",
"110 593 OFFCURVE",
"61 548 OFFCURVE",
"43 422 CURVE SMOOTH",
"31 332 OFFCURVE",
"44 279 OFFCURVE",
"114 246 CURVE SMOOTH",
"190 211 OFFCURVE",
"217 211 OFFCURVE",
"208 147 CURVE SMOOTH",
"201 101 OFFCURVE",
"195 92 OFFCURVE",
"180 92 CURVE SMOOTH",
"166 92 OFFCURVE",
"160 101 OFFCURVE",
"168 155 CURVE SMOOTH",
"170 170 OFFCURVE",
"173 191 OFFCURVE",
"175 206 CURVE",
"8 206 LINE",
"7 200 OFFCURVE",
"3 175 OFFCURVE",
"3 169 CURVE",
"-17 26 OFFCURVE",
"41 -8 OFFCURVE",
"160 -8 CURVE SMOOTH"
);
}
);
width = 814;
}
);
unicode = 1E9E;
},
{
glyphname = T;
lastChange = "2021-05-18 00:21:14 +0000";
layers = (
{
background = {
paths = (
{
closed = 1;
nodes = (
"109 0 LINE",
"190 575 LINE",
"298 575 LINE",
"301 591 LINE",
"67 591 LINE",
"64 575 LINE",
"170 575 LINE",
"89 0 LINE"
);
}
);
};
layerId = "82B1C968-1149-4E0D-B361-F2F5D539D913";
paths = (
{
closed = 1;
nodes = (
"109 0 LINE",
"190 575 LINE",
"298 575 LINE",
"301 591 LINE",
"67 591 LINE",
"64 575 LINE",
"170 575 LINE",
"89 0 LINE"
);
}
);
width = 284;
},
{
background = {
paths = (
{
closed = 1;
nodes = (
"207 0 LINE",
"275 480 LINE",
"360 480 LINE",
"376 591 LINE",
"47 591 LINE",
"31 480 LINE",
"116 480 LINE",
"48 0 LINE"
);
}
);
};
layerId = "8A3706BD-364F-4FE3-9C2E-7E87DF0DB4CC";
paths = (
{
closed = 1;
nodes = (
"207 0 LINE",
"275 480 LINE",
"360 480 LINE",
"376 591 LINE",
"47 591 LINE",
"31 480 LINE",
"116 480 LINE",
"48 0 LINE"
);
}
);
width = 339;
}
);
unicode = 0054;
},
{
glyphname = U;
lastChange = "2021-05-18 00:21:18 +0000";
layers = (
{
background = {
paths = (
{
closed = 1;
nodes = (
"218 -12 OFFCURVE",
"284 5 OFFCURVE",
"299 110 CURVE",
"366 591 LINE",
"347 591 LINE",
"280 113 LINE",
"267 21 OFFCURVE",
"209 4 OFFCURVE",
"148 4 CURVE",
"87 4 OFFCURVE",
"34 21 OFFCURVE",
"47 113 CURVE",
"114 591 LINE",
"94 591 LINE",
"27 110 LINE",
"12 5 OFFCURVE",
"75 -12 OFFCURVE",
"146 -12 CURVE"
);
}
);
};
layerId = "82B1C968-1149-4E0D-B361-F2F5D539D913";
paths = (
{
closed = 1;
nodes = (
"218 -12 OFFCURVE",
"284 5 OFFCURVE",
"299 110 CURVE SMOOTH",
"366 591 LINE",
"347 591 LINE",
"280 113 LINE SMOOTH",
"267 21 OFFCURVE",
"209 4 OFFCURVE",
"148 4 CURVE SMOOTH",
"87 4 OFFCURVE",
"34 21 OFFCURVE",
"47 113 CURVE SMOOTH",
"114 591 LINE",
"94 591 LINE",
"27 110 LINE SMOOTH",
"12 5 OFFCURVE",
"75 -12 OFFCURVE",
"146 -12 CURVE SMOOTH"
);
}
);
width = 399;
},
{
background = {
paths = (
{
closed = 1;
nodes = (
"265 -12 OFFCURVE",
"337 4 OFFCURVE",
"359 164 CURVE",
"419 591 LINE",
"260 591 LINE",
"193 115 LINE",
"190 92 OFFCURVE",
"182 85 OFFCURVE",
"172 85 CURVE",
"162 85 OFFCURVE",
"156 92 OFFCURVE",
"159 115 CURVE",
"226 591 LINE",
"67 591 LINE",
"7 163 LINE",
"-15 4 OFFCURVE",
"53 -12 OFFCURVE",
"159 -12 CURVE"
);
}
);
};
layerId = "8A3706BD-364F-4FE3-9C2E-7E87DF0DB4CC";
paths = (
{
closed = 1;
nodes = (
"265 -12 OFFCURVE",
"337 4 OFFCURVE",
"359 164 CURVE SMOOTH",
"419 591 LINE",
"260 591 LINE",
"193 115 LINE SMOOTH",
"190 92 OFFCURVE",
"182 85 OFFCURVE",
"172 85 CURVE SMOOTH",
"162 85 OFFCURVE",
"156 92 OFFCURVE",
"159 115 CURVE SMOOTH",
"226 591 LINE",
"67 591 LINE",
"7 163 LINE SMOOTH",
"-15 4 OFFCURVE",
"53 -12 OFFCURVE",
"159 -12 CURVE SMOOTH"
);
}
);
width = 402;
}
);
unicode = 0055;
},
{
glyphname = V;
lastChange = "2021-05-18 00:21:14 +0000";
layers = (
{
background = {
paths = (
{
closed = 1;
nodes = (
"113 0 LINE",
"319 591 LINE",
"300 591 LINE",
"115 57 LINE",
"115 57 LINE",
"115 57 LINE",
"80 591 LINE",
"62 591 LINE",
"100 0 LINE"
);
}
);
};
layerId = "82B1C968-1149-4E0D-B361-F2F5D539D913";
paths = (
{
closed = 1;
nodes = (
"113 0 LINE",
"319 591 LINE",
"300 591 LINE",
"115 57 LINE",
"80 591 LINE",
"62 591 LINE",
"100 0 LINE"
);
}
);
width = 297;
},
{
background = {
paths = (
{
closed = 1;
nodes = (
"283 0 LINE",
"455 591 LINE",
"296 591 LINE",
"198 181 LINE",
"193 157 LINE",
"195 181 LINE",
"217 591 LINE",
"52 591 LINE",
"54 0 LINE"
);
}
);
};
layerId = "8A3706BD-364F-4FE3-9C2E-7E87DF0DB4CC";
paths = (
{
closed = 1;
nodes = (
"283 0 LINE",
"455 591 LINE",
"296 591 LINE",
"198 181 LINE",
"193 157 LINE",
"195 181 LINE",
"217 591 LINE",
"52 591 LINE",
"54 0 LINE"
);
}
);
width = 423;
}
);
unicode = 0056;
},
{
glyphname = W;
lastChange = "2021-05-18 00:21:14 +0000";
layers = (
{
background = {
paths = (
{
closed = 1;
nodes = (
"99 0 LINE",
"284 534 LINE",
"318 0 LINE",
"340 0 LINE",
"521 591 LINE",
"503 591 LINE",
"333 38 LINE",
"298 591 LINE",
"285 591 LINE",
"93 37 LINE",
"80 591 LINE",
"62 591 LINE",
"75 0 LINE"
);
}
);
};
layerId = "82B1C968-1149-4E0D-B361-F2F5D539D913";
paths = (
{
closed = 1;
nodes = (
"99 0 LINE",
"284 534 LINE",
"318 0 LINE",
"340 0 LINE",
"521 591 LINE",
"503 591 LINE",
"333 38 LINE",
"298 591 LINE",
"285 591 LINE",
"93 37 LINE",
"80 591 LINE",
"62 591 LINE",
"75 0 LINE"
);
}
);
width = 499;
},
{
background = {
paths = (
{
closed = 1;
nodes = (
"235 0 LINE",
"310 258 LINE",
"312 0 LINE",
"498 0 LINE",
"668 591 LINE",
"503 591 LINE",
"407 200 LINE",
"424 591 LINE",
"291 591 LINE",
"198 200 LINE",
"212 591 LINE",
"47 591 LINE",
"49 0 LINE"
);
}
);
};
layerId = "8A3706BD-364F-4FE3-9C2E-7E87DF0DB4CC";
paths = (
{
closed = 1;
nodes = (
"235 0 LINE",
"310 258 LINE",
"312 0 LINE",
"498 0 LINE",
"668 591 LINE",
"503 591 LINE",
"407 200 LINE",
"424 591 LINE",
"291 591 LINE",
"198 200 LINE",
"212 591 LINE",
"47 591 LINE",
"49 0 LINE"
);
}
);
width = 631;
}
);
unicode = 0057;
},
{
glyphname = X;
lastChange = "2021-05-18 00:21:14 +0000";
layers = (
{
background = {
paths = (
{
closed = 1;
nodes = (
"-2 0 LINE",
"139 292 LINE",
"194 0 LINE",
"214 0 LINE",
"157 297 LINE",
"300 591 LINE",
"282 591 LINE",
"140 300 LINE",
"92 591 LINE",
"73 591 LINE",
"121 298 LINE",
"-22 0 LINE"
);
}
);
};
layerId = "82B1C968-1149-4E0D-B361-F2F5D539D913";
paths = (
{
closed = 1;
nodes = (
"-2 0 LINE",
"139 292 LINE",
"194 0 LINE",
"214 0 LINE",
"157 297 LINE",
"300 591 LINE",
"282 591 LINE",
"140 300 LINE",
"92 591 LINE",
"73 591 LINE",
"121 298 LINE",
"-22 0 LINE"
);
}
);
width = 278;
},
{
background = {
paths = (
{
closed = 1;
nodes = (
"132 0 LINE",
"183 154 LINE",
"196 0 LINE",
"355 0 LINE",
"324 307 LINE",
"441 591 LINE",
"272 591 LINE",
"221 436 LINE",
"208 591 LINE",
"49 591 LINE",
"88 307 LINE",
"-37 0 LINE"
);
}
);
};
layerId = "8A3706BD-364F-4FE3-9C2E-7E87DF0DB4CC";
paths = (
{
closed = 1;
nodes = (
"132 0 LINE",
"183 154 LINE",
"196 0 LINE",
"355 0 LINE",
"324 307 LINE",
"441 591 LINE",
"272 591 LINE",
"221 436 LINE",
"208 591 LINE",
"49 591 LINE",
"88 307 LINE",
"-37 0 LINE"
);
}
);
width = 404;
}
);
unicode = 0058;
},
{
glyphname = Y;
lastChange = "2021-05-18 00:21:14 +0000";
layers = (
{
background = {
paths = (
{
closed = 1;
nodes = (
"107 0 LINE",
"145 265 LINE",
"311 591 LINE",
"288 591 LINE",
"142 295 LINE",
"139 289 LINE",
"138 295 LINE",
"85 591 LINE",
"62 591 LINE",
"125 266 LINE",
"87 0 LINE"
);
}
);
};
layerId = "82B1C968-1149-4E0D-B361-F2F5D539D913";
paths = (
{
closed = 1;
nodes = (
"107 0 LINE",
"145 265 LINE",
"311 591 LINE",
"288 591 LINE",
"142 295 LINE",
"139 289 LINE",
"138 295 LINE",
"85 591 LINE",
"62 591 LINE",
"125 266 LINE",
"87 0 LINE"
);
}
);
width = 289;
},
{
background = {
paths = (
{
closed = 1;
nodes = (
"238 0 LINE",
"272 236 LINE",
"436 591 LINE",
"292 591 LINE",
"241 467 LINE",
"225 415 LINE",
"223 467 LINE",
"209 591 LINE",
"52 591 LINE",
"114 245 LINE",
"79 0 LINE"
);
}
);
};
layerId = "8A3706BD-364F-4FE3-9C2E-7E87DF0DB4CC";
paths = (
{
closed = 1;
nodes = (
"238 0 LINE",
"272 236 LINE",
"436 591 LINE",
"292 591 LINE",
"241 467 LINE",
"225 415 LINE",
"223 467 LINE",
"209 591 LINE",
"52 591 LINE",
"114 245 LINE",
"79 0 LINE"
);
}
);
width = 404;
}
);
unicode = 0059;
},
{
glyphname = Z;
lastChange = "2021-05-18 00:21:14 +0000";
layers = (
{
background = {
paths = (
{
closed = 1;
nodes = (
"198 0 LINE",
"201 16 LINE",
"1 16 LINE",
"279 571 LINE",
"282 591 LINE",
"74 591 LINE",
"71 575 LINE",
"256 575 LINE",
"-19 20 LINE",
"-22 0 LINE"
);
}
);
};
layerId = "82B1C968-1149-4E0D-B361-F2F5D539D913";
paths = (
{
closed = 1;
nodes = (
"198 0 LINE",
"201 16 LINE",
"1 16 LINE",
"279 571 LINE",
"282 591 LINE",
"74 591 LINE",
"71 575 LINE",
"256 575 LINE",
"-19 20 LINE",
"-22 0 LINE"
);
}
);
width = 260;
},
{
background = {
paths = (
{
closed = 1;
nodes = (
"256 0 LINE",
"272 111 LINE",
"157 111 LINE",
"329 516 LINE",
"340 591 LINE",
"62 591 LINE",
"46 480 LINE",
"143 480 LINE",
"-18 98 LINE",
"-32 0 LINE"
);
}
);
};
layerId = "8A3706BD-364F-4FE3-9C2E-7E87DF0DB4CC";
paths = (
{
closed = 1;
nodes = (
"256 0 LINE",
"272 111 LINE",
"157 111 LINE",
"329 516 LINE",
"340 591 LINE",
"62 591 LINE",
"46 480 LINE",
"143 480 LINE",
"-18 98 LINE",
"-32 0 LINE"
);
}
);
width = 308;
}
);
unicode = 005A;
},
{
glyphname = a;
lastChange = "2021-05-18 00:21:22 +0000";
layers = (
{
background = {
paths = (
{
closed = 1;
nodes = (
"192 -8 OFFCURVE",
"230 51 OFFCURVE",
"247 94 CURVE",
"234 0 LINE",
"256 0 LINE",
"326 495 LINE",
"305 495 LINE",
"300 455 LINE",
"290 494 OFFCURVE",
"241 505 OFFCURVE",
"201 505 CURVE SMOOTH",
"143 505 OFFCURVE",
"91 498 OFFCURVE",
"77 384 CURVE",
"32 107 LINE",
"19 -7 OFFCURVE",
"91 -8 OFFCURVE",
"115 -8 CURVE SMOOTH"
);
},
{
closed = 1;
nodes = (
"94 378 LINE SMOOTH",
"102 441 OFFCURVE",
"116 490 OFFCURVE",
"198 490 CURVE SMOOTH",
"280 490 OFFCURVE",
"289 436 OFFCURVE",
"294 423 CURVE",
"262 198 LINE SMOOTH",
"257 164 OFFCURVE",
"222 8 OFFCURVE",
"123 8 CURVE SMOOTH",
"101 8 OFFCURVE",
"39 12 OFFCURVE",
"52 105 CURVE SMOOTH"
);
}
);
};
layerId = "82B1C968-1149-4E0D-B361-F2F5D539D913";
paths = (
{
closed = 1;
nodes = (
"192 -8 OFFCURVE",
"230 51 OFFCURVE",
"247 94 CURVE",
"234 0 LINE",
"256 0 LINE",
"326 495 LINE",
"305 495 LINE",
"300 455 LINE",
"290 494 OFFCURVE",
"241 505 OFFCURVE",
"201 505 CURVE SMOOTH",
"143 505 OFFCURVE",
"91 498 OFFCURVE",
"77 384 CURVE",
"32 107 LINE",
"19 -7 OFFCURVE",
"91 -8 OFFCURVE",
"115 -8 CURVE SMOOTH"
);
},
{
closed = 1;
nodes = (
"101 8 OFFCURVE",
"39 12 OFFCURVE",
"52 105 CURVE SMOOTH",
"94 378 LINE SMOOTH",
"102 441 OFFCURVE",
"116 490 OFFCURVE",
"198 490 CURVE SMOOTH",
"280 490 OFFCURVE",
"289 436 OFFCURVE",
"294 423 CURVE",
"262 198 LINE SMOOTH",
"257 164 OFFCURVE",
"222 8 OFFCURVE",
"123 8 CURVE SMOOTH"
);
}
);
width = 336;
},
{
background = {
paths = (
{
closed = 1;
nodes = (
"198 -8 OFFCURVE",
"221 23 OFFCURVE",
"237 47 CURVE",
"229 0 LINE",
"350 0 LINE",
"420 495 LINE",
"265 495 LINE",
"260 459 LINE",
"250 476 OFFCURVE",
"234 500 OFFCURVE",
"181 500 CURVE SMOOTH",
"144 500 OFFCURVE",
"73 489 OFFCURVE",
"60 391 CURVE",
"26 153 LINE",
"6 3 OFFCURVE",
"67 -8 OFFCURVE",
"140 -8 CURVE SMOOTH"
);
},
{
closed = 1;
nodes = (
"207 335 LINE SMOOTH",
"213 378 OFFCURVE",
"213 409 OFFCURVE",
"234 409 CURVE SMOOTH",
"244 409 OFFCURVE",
"248 407 OFFCURVE",
"252 405 CURVE",
"214 138 LINE SMOOTH",
"211 115 OFFCURVE",
"207 81 OFFCURVE",
"188 81 CURVE SMOOTH",
"173 81 OFFCURVE",
"172 93 OFFCURVE",
"176 123 CURVE SMOOTH"
);
}
);
};
layerId = "8A3706BD-364F-4FE3-9C2E-7E87DF0DB4CC";
paths = (
{
closed = 1;
nodes = (
"198 -8 OFFCURVE",
"221 23 OFFCURVE",
"237 47 CURVE",
"229 0 LINE",
"350 0 LINE",
"420 495 LINE",
"265 495 LINE",
"260 459 LINE",
"250 476 OFFCURVE",
"234 500 OFFCURVE",
"181 500 CURVE SMOOTH",
"144 500 OFFCURVE",
"73 489 OFFCURVE",
"60 391 CURVE SMOOTH",
"26 153 LINE SMOOTH",
"6 3 OFFCURVE",
"67 -8 OFFCURVE",
"140 -8 CURVE SMOOTH"
);
},
{
closed = 1;
nodes = (
"173 81 OFFCURVE",
"172 93 OFFCURVE",
"176 123 CURVE SMOOTH",
"207 335 LINE SMOOTH",
"213 378 OFFCURVE",
"213 409 OFFCURVE",
"234 409 CURVE SMOOTH",
"244 409 OFFCURVE",
"248 407 OFFCURVE",
"252 405 CURVE",
"214 138 LINE SMOOTH",
"211 115 OFFCURVE",
"207 81 OFFCURVE",
"188 81 CURVE SMOOTH"
);
}
);
width = 415;
}
);
unicode = 0061;
},
{
glyphname = ae;
lastChange = "2021-05-18 00:21:22 +0000";
layers = (
{
background = {
paths = (
{
closed = 1;
nodes = (
"146 -3 OFFCURVE",
"184 8 OFFCURVE",
"213 32 CURVE",
"225 42 OFFCURVE",
"233 55 OFFCURVE",
"240 68 CURVE",
"232 0 LINE",
"251 0 LINE",
"307 403 LINE",
"315 456 OFFCURVE",
"312 505 OFFCURVE",
"208 505 CURVE",
"112 505 OFFCURVE",
"83 452 OFFCURVE",
"73 378 CURVE",
"67 334 LINE",
"86 334 LINE",
"92 376 LINE",
"102 447 OFFCURVE",
"124 489 OFFCURVE",
"205 489 CURVE",
"252 489 OFFCURVE",
"299 477 OFFCURVE",
"290 415 CURVE",
"288 398 LINE",
"282 358 OFFCURVE",
"258 338 OFFCURVE",
"211 311 CURVE",
"173 290 OFFCURVE",
"129 272 OFFCURVE",
"94 247 CURVE",
"64 225 OFFCURVE",
"34 194 OFFCURVE",
"27 147 CURVE",
"26 136 OFFCURVE",
"24 125 OFFCURVE",
"23 114 CURVE",
"7 3 OFFCURVE",
"69 -3 OFFCURVE",
"110 -3 CURVE"
);
},
{
closed = 1;
nodes = (
"80 14 OFFCURVE",
"29 16 OFFCURVE",
"43 114 CURVE",
"47 143 LINE",
"52 183 OFFCURVE",
"73 209 OFFCURVE",
"98 229 CURVE",
"138 261 OFFCURVE",
"197 281 OFFCURVE",
"242 310 CURVE",
"257 319 OFFCURVE",
"270 330 OFFCURVE",
"279 341 CURVE",
"253 158 LINE",
"240 69 OFFCURVE",
"196 14 OFFCURVE",
"115 14 CURVE"
);
},
{
closed = 1;
nodes = (
"467 127 LINE",
"455 45 OFFCURVE",
"432 16 OFFCURVE",
"352 16 CURVE",
"272 16 OFFCURVE",
"257 38 OFFCURVE",
"269 120 CURVE",
"289 263 LINE",
"506 263 LINE",
"523 385 LINE",
"536 477 OFFCURVE",
"511 505 OFFCURVE",
"422 505 CURVE",
"332 505 OFFCURVE",
"299 477 OFFCURVE",
"286 385 CURVE",
"249 120 LINE",
"234 19 OFFCURVE",
"260 -2 OFFCURVE",
"350 -2 CURVE",
"440 -2 OFFCURVE",
"472 26 OFFCURVE",
"487 127 CURVE",
"493 172 LINE",
"473 172 LINE"
);
},
{
closed = 1;
nodes = (
"316 457 OFFCURVE",
"339 489 OFFCURVE",
"419 489 CURVE",
"499 489 OFFCURVE",
"513 457 OFFCURVE",
"503 384 CURVE",
"488 280 LINE",
"291 280 LINE",
"306 384 LINE"
);
}
);
};
layerId = "82B1C968-1149-4E0D-B361-F2F5D539D913";
paths = (
{
closed = 1;
nodes = (
"146 -3 OFFCURVE",
"184 8 OFFCURVE",
"213 32 CURVE SMOOTH",
"225 42 OFFCURVE",
"233 55 OFFCURVE",
"240 68 CURVE",
"232 0 LINE",
"251 0 LINE",
"307 403 LINE SMOOTH",
"315 456 OFFCURVE",
"312 505 OFFCURVE",
"208 505 CURVE SMOOTH",
"112 505 OFFCURVE",
"83 452 OFFCURVE",
"73 378 CURVE SMOOTH",
"67 334 LINE",
"86 334 LINE",
"92 376 LINE SMOOTH",
"102 447 OFFCURVE",
"124 489 OFFCURVE",
"205 489 CURVE SMOOTH",
"252 489 OFFCURVE",
"299 477 OFFCURVE",
"290 415 CURVE SMOOTH",
"288 398 LINE SMOOTH",
"282 358 OFFCURVE",
"258 338 OFFCURVE",
"211 311 CURVE SMOOTH",
"173 290 OFFCURVE",
"129 272 OFFCURVE",
"94 247 CURVE SMOOTH",
"64 225 OFFCURVE",
"34 194 OFFCURVE",
"27 147 CURVE SMOOTH",
"26 136 OFFCURVE",
"24 125 OFFCURVE",
"23 114 CURVE SMOOTH",
"7 3 OFFCURVE",
"69 -3 OFFCURVE",
"110 -3 CURVE SMOOTH"
);
},
{
closed = 1;
nodes = (
"80 14 OFFCURVE",
"29 16 OFFCURVE",
"43 114 CURVE SMOOTH",
"47 143 LINE SMOOTH",
"52 183 OFFCURVE",
"73 209 OFFCURVE",
"98 229 CURVE SMOOTH",
"138 261 OFFCURVE",
"197 281 OFFCURVE",
"242 310 CURVE SMOOTH",
"257 319 OFFCURVE",
"270 330 OFFCURVE",
"279 341 CURVE",
"253 158 LINE SMOOTH",
"240 69 OFFCURVE",
"196 14 OFFCURVE",
"115 14 CURVE SMOOTH"
);
},
{
closed = 1;
nodes = (
"440 -2 OFFCURVE",
"472 26 OFFCURVE",
"487 127 CURVE SMOOTH",
"493 172 LINE",
"473 172 LINE",
"467 127 LINE SMOOTH",
"455 45 OFFCURVE",
"432 16 OFFCURVE",
"352 16 CURVE SMOOTH",
"272 16 OFFCURVE",
"257 38 OFFCURVE",
"269 120 CURVE SMOOTH",
"289 263 LINE",
"506 263 LINE",
"523 385 LINE SMOOTH",
"536 477 OFFCURVE",
"511 505 OFFCURVE",
"422 505 CURVE SMOOTH",
"332 505 OFFCURVE",
"299 477 OFFCURVE",
"286 385 CURVE SMOOTH",
"249 120 LINE SMOOTH",
"234 19 OFFCURVE",
"260 -2 OFFCURVE",
"350 -2 CURVE SMOOTH"
);
},
{
closed = 1;
nodes = (
"306 384 LINE SMOOTH",
"316 457 OFFCURVE",
"339 489 OFFCURVE",
"419 489 CURVE SMOOTH",
"499 489 OFFCURVE",
"513 457 OFFCURVE",
"503 384 CURVE SMOOTH",
"488 280 LINE",
"291 280 LINE"
);
}
);
width = 554;
},
{
background = {
paths = (
{
closed = 1;
nodes = (
"118 -7 OFFCURVE",
"144 5 OFFCURVE",
"157 18 CURVE",
"168 28 OFFCURVE",
"176 39 OFFCURVE",
"180 49 CURVE",
"173 0 LINE",
"329 0 LINE",
"383 386 LINE",
"397 481 OFFCURVE",
"359 505 OFFCURVE",
"224 505 CURVE",
"87 505 OFFCURVE",
"59 452 OFFCURVE",
"48 378 CURVE",
"40 321 LINE",
"181 321 LINE",
"187 363 LINE",
"194 410 OFFCURVE",
"198 423 OFFCURVE",
"212 423 CURVE",
"226 423 OFFCURVE",
"228 412 OFFCURVE",
"226 397 CURVE",
"221 365 LINE",
"216 325 OFFCURVE",
"207 311 OFFCURVE",
"163 297 CURVE SMOOTH",
"132 287 OFFCURVE",
"93 277 OFFCURVE",
"61 255 CURVE",
"35 237 OFFCURVE",
"15 211 OFFCURVE",
"9 170 CURVE",
"7 159 OFFCURVE",
"-1 100 OFFCURVE",
"-2 89 CURVE",
"-16 -10 OFFCURVE",
"53 -7 OFFCURVE",
"82 -7 CURVE"
);
},
{
closed = 1;
nodes = (
"150 93 OFFCURVE",
"152 111 OFFCURVE",
"154 129 CURVE",
"158 158 LINE",
"158 158 OFFCURVE",
"162 185 OFFCURVE",
"163 190 CURVE",
"166 207 OFFCURVE",
"170 214 OFFCURVE",
"180 224 CURVE SMOOTH",
"189 232 OFFCURVE",
"200 236 OFFCURVE",
"204 241 CURVE",
"190 140 LINE SMOOTH",
"185 106 OFFCURVE",
"182 93 OFFCURVE",
"166 93 CURVE"
);
},
{
closed = 1;
nodes = (
"377 98 LINE",
"374 75 OFFCURVE",
"366 68 OFFCURVE",
"356 68 CURVE",
"346 68 OFFCURVE",
"340 75 OFFCURVE",
"343 98 CURVE",
"362 233 LINE",
"552 233 LINE",
"571 373 LINE",
"585 472 OFFCURVE",
"528 503 OFFCURVE",
"417 503 CURVE",
"306 503 OFFCURVE",
"239 472 OFFCURVE",
"225 373 CURVE",
"196 166 LINE",
"174 7 OFFCURVE",
"240 -2 OFFCURVE",
"346 -2 CURVE",
"452 -2 OFFCURVE",
"520 7 OFFCURVE",
"542 167 CURVE",
"545 188 LINE",
"389 188 LINE"
);
},
{
closed = 1;
nodes = (
"387 416 OFFCURVE",
"395 423 OFFCURVE",
"405 423 CURVE",
"415 423 OFFCURVE",
"421 416 OFFCURVE",
"418 393 CURVE",
"405 300 LINE",
"371 300 LINE",
"384 393 LINE"
);
}
);
};
layerId = "8A3706BD-364F-4FE3-9C2E-7E87DF0DB4CC";
paths = (
{
closed = 1;
nodes = (
"118 -7 OFFCURVE",
"144 5 OFFCURVE",
"157 18 CURVE SMOOTH",
"168 28 OFFCURVE",
"176 39 OFFCURVE",
"180 49 CURVE",
"173 0 LINE",
"329 0 LINE",
"383 386 LINE SMOOTH",
"397 481 OFFCURVE",
"359 505 OFFCURVE",
"224 505 CURVE SMOOTH",
"87 505 OFFCURVE",
"59 452 OFFCURVE",
"48 378 CURVE SMOOTH",
"40 321 LINE",
"181 321 LINE",
"187 363 LINE SMOOTH",
"194 410 OFFCURVE",
"198 423 OFFCURVE",
"212 423 CURVE SMOOTH",
"226 423 OFFCURVE",
"228 412 OFFCURVE",
"226 397 CURVE SMOOTH",
"221 365 LINE SMOOTH",
"216 325 OFFCURVE",
"207 311 OFFCURVE",
"163 297 CURVE SMOOTH",
"132 287 OFFCURVE",
"93 277 OFFCURVE",
"61 255 CURVE SMOOTH",
"35 237 OFFCURVE",
"15 211 OFFCURVE",
"9 170 CURVE SMOOTH",
"7 159 OFFCURVE",
"-1 100 OFFCURVE",
"-2 89 CURVE SMOOTH",
"-16 -10 OFFCURVE",
"53 -7 OFFCURVE",
"82 -7 CURVE SMOOTH"
);
},
{
closed = 1;
nodes = (
"150 93 OFFCURVE",
"152 111 OFFCURVE",
"154 129 CURVE SMOOTH",
"158 158 LINE",
"163 190 LINE SMOOTH",
"166 207 OFFCURVE",
"170 214 OFFCURVE",
"180 224 CURVE SMOOTH",
"189 232 OFFCURVE",
"200 236 OFFCURVE",
"204 241 CURVE",
"190 140 LINE SMOOTH",
"185 106 OFFCURVE",
"182 93 OFFCURVE",
"166 93 CURVE SMOOTH"
);
},
{
closed = 1;
nodes = (
"452 -2 OFFCURVE",
"520 7 OFFCURVE",
"542 167 CURVE SMOOTH",
"545 188 LINE",
"389 188 LINE",
"377 98 LINE SMOOTH",
"374 75 OFFCURVE",
"366 68 OFFCURVE",
"356 68 CURVE SMOOTH",
"346 68 OFFCURVE",
"340 75 OFFCURVE",
"343 98 CURVE SMOOTH",
"362 233 LINE",
"552 233 LINE",
"571 373 LINE SMOOTH",
"585 472 OFFCURVE",
"528 503 OFFCURVE",
"417 503 CURVE SMOOTH",
"306 503 OFFCURVE",
"239 472 OFFCURVE",
"225 373 CURVE SMOOTH",
"196 166 LINE SMOOTH",
"174 7 OFFCURVE",
"240 -2 OFFCURVE",
"346 -2 CURVE SMOOTH"
);
},
{
closed = 1;
nodes = (
"384 393 LINE SMOOTH",
"387 416 OFFCURVE",
"395 423 OFFCURVE",
"405 423 CURVE SMOOTH",
"415 423 OFFCURVE",
"421 416 OFFCURVE",
"418 393 CURVE SMOOTH",
"405 300 LINE",
"371 300 LINE"
);
}
);
width = 579;
}
);
unicode = 00E6;
},
{
glyphname = b;
lastChange = "2021-05-18 00:21:22 +0000";
layers = (
{
background = {
paths = (
{
closed = 1;
nodes = (
"26 0 LINE",
"35 47 LINE",
"43 16 OFFCURVE",
"64 -7 OFFCURVE",
"130 -7 CURVE",
"243 -7 OFFCURVE",
"259 62 OFFCURVE",
"268 124 CURVE",
"303 374 LINE",
"311 436 OFFCURVE",
"315 505 OFFCURVE",
"202 505 CURVE",
"147 505 OFFCURVE",
"114 488 OFFCURVE",
"95 464 CURVE",
"119 630 LINE",
"100 630 LINE",
"11 0 LINE"
);
},
{
closed = 1;
nodes = (
"240 73 OFFCURVE",
"235 8 OFFCURVE",
"132 8 CURVE",
"28 8 OFFCURVE",
"45 95 OFFCURVE",
"54 162 CURVE",
"85 383 LINE",
"92 436 OFFCURVE",
"106 489 OFFCURVE",
"200 489 CURVE",
"303 489 OFFCURVE",
"290 424 OFFCURVE",
"282 365 CURVE",
"249 132 LINE"
);
}
);
};
layerId = "82B1C968-1149-4E0D-B361-F2F5D539D913";
paths = (
{
closed = 1;
nodes = (
"243 -7 OFFCURVE",
"259 62 OFFCURVE",
"268 124 CURVE SMOOTH",
"303 374 LINE SMOOTH",
"311 436 OFFCURVE",
"315 505 OFFCURVE",
"202 505 CURVE SMOOTH",
"147 505 OFFCURVE",
"114 488 OFFCURVE",
"95 464 CURVE",
"119 630 LINE",
"100 630 LINE",
"11 0 LINE",
"26 0 LINE",
"35 47 LINE",
"43 16 OFFCURVE",
"64 -7 OFFCURVE",
"130 -7 CURVE SMOOTH"
);
},
{
closed = 1;
nodes = (
"28 8 OFFCURVE",
"45 95 OFFCURVE",
"54 162 CURVE SMOOTH",
"85 383 LINE SMOOTH",
"92 436 OFFCURVE",
"106 489 OFFCURVE",
"200 489 CURVE SMOOTH",
"303 489 OFFCURVE",
"290 424 OFFCURVE",
"282 365 CURVE SMOOTH",
"249 132 LINE SMOOTH",
"240 73 OFFCURVE",
"235 8 OFFCURVE",
"132 8 CURVE SMOOTH"
);
}
);
width = 344;
},
{
background = {
paths = (
{
closed = 1;
nodes = (
"86 0 LINE",
"95 43 LINE",
"101 26 OFFCURVE",
"127 -7 OFFCURVE",
"185 -7 CURVE SMOOTH",
"261 -7 OFFCURVE",
"323 3 OFFCURVE",
"344 154 CURVE",
"377 391 LINE",
"391 489 OFFCURVE",
"334 505 OFFCURVE",
"285 505 CURVE SMOOTH",
"235 505 OFFCURVE",
"212 479 OFFCURVE",
"197 460 CURVE",
"221 630 LINE",
"65 630 LINE",
"-24 0 LINE"
);
},
{
closed = 1;
nodes = (
"182 110 OFFCURVE",
"178 98 OFFCURVE",
"163 98 CURVE SMOOTH",
"150 98 OFFCURVE",
"148 110 OFFCURVE",
"151 133 CURVE",
"185 378 LINE",
"189 401 OFFCURVE",
"197 408 OFFCURVE",
"207 408 CURVE SMOOTH",
"217 408 OFFCURVE",
"223 401 OFFCURVE",
"219 378 CURVE",
"185 133 LINE SMOOTH"
);
}
);
};
layerId = "8A3706BD-364F-4FE3-9C2E-7E87DF0DB4CC";
paths = (
{
closed = 1;
nodes = (
"261 -7 OFFCURVE",
"323 3 OFFCURVE",
"344 154 CURVE SMOOTH",
"377 391 LINE SMOOTH",
"391 489 OFFCURVE",
"334 505 OFFCURVE",
"285 505 CURVE SMOOTH",
"235 505 OFFCURVE",
"212 479 OFFCURVE",
"197 460 CURVE",
"221 630 LINE",
"65 630 LINE",
"-24 0 LINE",
"86 0 LINE",
"95 43 LINE",
"101 26 OFFCURVE",
"127 -7 OFFCURVE",
"185 -7 CURVE SMOOTH"
);
},
{
closed = 1;
nodes = (
"150 98 OFFCURVE",
"148 110 OFFCURVE",
"151 133 CURVE SMOOTH",
"185 378 LINE SMOOTH",
"189 401 OFFCURVE",
"197 408 OFFCURVE",
"207 408 CURVE SMOOTH",
"217 408 OFFCURVE",
"223 401 OFFCURVE",
"219 378 CURVE SMOOTH",
"185 133 LINE SMOOTH",
"182 110 OFFCURVE",
"178 98 OFFCURVE",
"163 98 CURVE SMOOTH"
);
}
);
width = 386;
}
);
unicode = 0062;
},
{
glyphname = c;
lastChange = "2021-05-18 00:21:18 +0000";
layers = (
{
background = {
paths = (
{
closed = 1;
nodes = (
"223 -9 OFFCURVE",
"255 19 OFFCURVE",
"269 120 CURVE",
"276 172 LINE",
"256 172 LINE",
"249 120 LINE",
"237 38 OFFCURVE",
"214 9 OFFCURVE",
"134 9 CURVE",
"54 9 OFFCURVE",
"40 38 OFFCURVE",
"52 120 CURVE",
"89 384 LINE",
"99 457 OFFCURVE",
"123 489 OFFCURVE",
"203 489 CURVE",
"283 489 OFFCURVE",
"296 457 OFFCURVE",
"286 384 CURVE",
"278 328 LINE",
"298 328 LINE",
"306 385 LINE",
"319 477 OFFCURVE",
"294 505 OFFCURVE",
"205 505 CURVE",
"115 505 OFFCURVE",
"82 477 OFFCURVE",
"69 385 CURVE",
"32 120 LINE",
"18 19 OFFCURVE",
"43 -9 OFFCURVE",
"133 -9 CURVE"
);
}
);
};
layerId = "82B1C968-1149-4E0D-B361-F2F5D539D913";
paths = (
{
closed = 1;
nodes = (
"223 -9 OFFCURVE",
"255 19 OFFCURVE",
"269 120 CURVE SMOOTH",
"276 172 LINE",
"256 172 LINE",
"249 120 LINE SMOOTH",
"237 38 OFFCURVE",
"214 9 OFFCURVE",
"134 9 CURVE SMOOTH",
"54 9 OFFCURVE",
"40 38 OFFCURVE",
"52 120 CURVE SMOOTH",
"89 384 LINE SMOOTH",
"99 457 OFFCURVE",
"123 489 OFFCURVE",
"203 489 CURVE SMOOTH",
"283 489 OFFCURVE",
"296 457 OFFCURVE",
"286 384 CURVE SMOOTH",
"278 328 LINE",
"298 328 LINE",
"306 385 LINE SMOOTH",
"319 477 OFFCURVE",
"294 505 OFFCURVE",
"205 505 CURVE SMOOTH",
"115 505 OFFCURVE",
"82 477 OFFCURVE",
"69 385 CURVE SMOOTH",
"32 120 LINE SMOOTH",
"18 19 OFFCURVE",
"43 -9 OFFCURVE",
"133 -9 CURVE SMOOTH"
);
}
);
width = 337;
},
{
background = {
paths = (
{
closed = 1;
nodes = (
"263 -12 OFFCURVE",
"332 7 OFFCURVE",
"355 167 CURVE",
"361 213 LINE",
"205 213 LINE",
"189 98 LINE",
"186 75 OFFCURVE",
"178 68 OFFCURVE",
"168 68 CURVE",
"158 68 OFFCURVE",
"152 75 OFFCURVE",
"155 98 CURVE",
"197 393 LINE",
"200 416 OFFCURVE",
"208 423 OFFCURVE",
"218 423 CURVE",
"228 423 OFFCURVE",
"234 416 OFFCURVE",
"231 393 CURVE",
"217 294 LINE",
"373 294 LINE",
"384 373 LINE",
"398 472 OFFCURVE",
"340 503 OFFCURVE",
"229 503 CURVE",
"118 503 OFFCURVE",
"52 472 OFFCURVE",
"38 373 CURVE",
"9 166 LINE",
"-14 7 OFFCURVE",
"51 -12 OFFCURVE",
"157 -12 CURVE"
);
}
);
};
layerId = "8A3706BD-364F-4FE3-9C2E-7E87DF0DB4CC";
paths = (
{
closed = 1;
nodes = (
"263 -12 OFFCURVE",
"332 7 OFFCURVE",
"355 167 CURVE SMOOTH",
"361 213 LINE",
"205 213 LINE",
"189 98 LINE SMOOTH",
"186 75 OFFCURVE",
"178 68 OFFCURVE",
"168 68 CURVE SMOOTH",
"158 68 OFFCURVE",
"152 75 OFFCURVE",
"155 98 CURVE SMOOTH",
"197 393 LINE SMOOTH",
"200 416 OFFCURVE",
"208 423 OFFCURVE",
"218 423 CURVE SMOOTH",
"228 423 OFFCURVE",
"234 416 OFFCURVE",
"231 393 CURVE SMOOTH",
"217 294 LINE",
"373 294 LINE",
"384 373 LINE SMOOTH",
"398 472 OFFCURVE",
"340 503 OFFCURVE",
"229 503 CURVE SMOOTH",
"118 503 OFFCURVE",
"52 472 OFFCURVE",
"38 373 CURVE SMOOTH",
"9 166 LINE SMOOTH",
"-14 7 OFFCURVE",
"51 -12 OFFCURVE",
"157 -12 CURVE SMOOTH"
);
}
);
width = 386;
}
);
unicode = 0063;
},
{
glyphname = d;
lastChange = "2021-05-18 00:21:22 +0000";
layers = (
{
background = {
paths = (
{
closed = 1;
nodes = (
"245 0 LINE",
"334 630 LINE",
"315 630 LINE",
"292 464 LINE",
"280 488 OFFCURVE",
"251 505 OFFCURVE",
"196 505 CURVE",
"83 505 OFFCURVE",
"68 436 OFFCURVE",
"59 374 CURVE",
"24 124 LINE",
"15 59 OFFCURVE",
"11 -8 OFFCURVE",
"121 -8 CURVE",
"190 -8 OFFCURVE",
"218 16 OFFCURVE",
"235 47 CURVE",
"230 0 LINE"
);
},
{
closed = 1;
nodes = (
"25 8 OFFCURVE",
"37 73 OFFCURVE",
"45 132 CURVE",
"56 210 OFFCURVE",
"67 287 OFFCURVE",
"78 365 CURVE",
"86 424 OFFCURVE",
"91 489 OFFCURVE",
"194 489 CURVE",
"265 489 OFFCURVE",
"282 449 OFFCURVE",
"285 422 CURVE",
"272 335 OFFCURVE",
"260 249 OFFCURVE",
"248 162 CURVE",
"239 95 OFFCURVE",
"230 8 OFFCURVE",
"123 8 CURVE"
);
}
);
};
layerId = "82B1C968-1149-4E0D-B361-F2F5D539D913";
paths = (
{
closed = 1;
nodes = (
"190 -8 OFFCURVE",
"218 16 OFFCURVE",
"235 47 CURVE",
"230 0 LINE",
"245 0 LINE",
"334 630 LINE",
"315 630 LINE",
"292 464 LINE",
"280 488 OFFCURVE",
"251 505 OFFCURVE",
"196 505 CURVE SMOOTH",
"83 505 OFFCURVE",
"68 436 OFFCURVE",
"59 374 CURVE SMOOTH",
"24 124 LINE SMOOTH",
"15 59 OFFCURVE",
"11 -8 OFFCURVE",
"121 -8 CURVE SMOOTH"
);
},
{
closed = 1;
nodes = (
"25 8 OFFCURVE",
"37 73 OFFCURVE",
"45 132 CURVE SMOOTH",
"78 365 LINE SMOOTH",
"86 424 OFFCURVE",
"91 489 OFFCURVE",
"194 489 CURVE SMOOTH",
"265 489 OFFCURVE",
"282 449 OFFCURVE",
"285 422 CURVE",
"272 335 OFFCURVE",
"260 249 OFFCURVE",
"248 162 CURVE SMOOTH",
"239 95 OFFCURVE",
"230 8 OFFCURVE",
"123 8 CURVE SMOOTH"
);
}
);
width = 344;
},
{
background = {
paths = (
{
closed = 1;
nodes = (
"322 0 LINE",
"411 630 LINE",
"255 630 LINE",
"231 460 LINE",
"222 479 OFFCURVE",
"204 500 OFFCURVE",
"151 500 CURVE",
"117 500 OFFCURVE",
"45 489 OFFCURVE",
"31 391 CURVE",
"-2 154 LINE",
"-23 3 OFFCURVE",
"36 -7 OFFCURVE",
"111 -7 CURVE",
"169 -7 OFFCURVE",
"198 33 OFFCURVE",
"208 47 CURVE",
"217 0 LINE"
);
},
{
closed = 1;
nodes = (
"150 80 OFFCURVE",
"144 87 OFFCURVE",
"148 110 CURVE",
"160 199 OFFCURVE",
"173 289 OFFCURVE",
"185 378 CURVE",
"189 401 OFFCURVE",
"197 408 OFFCURVE",
"207 408 CURVE",
"216 408 OFFCURVE",
"223 405 OFFCURVE",
"223 405 CURVE",
"209 307 OFFCURVE",
"195 208 OFFCURVE",
"182 110 CURVE",
"178 87 OFFCURVE",
"170 80 OFFCURVE",
"160 80 CURVE"
);
}
);
};
layerId = "8A3706BD-364F-4FE3-9C2E-7E87DF0DB4CC";
paths = (
{
closed = 1;
nodes = (
"169 -7 OFFCURVE",
"198 33 OFFCURVE",
"208 47 CURVE",
"217 0 LINE",
"322 0 LINE",
"411 630 LINE",
"255 630 LINE",
"231 460 LINE",
"222 479 OFFCURVE",
"204 500 OFFCURVE",
"151 500 CURVE SMOOTH",
"117 500 OFFCURVE",
"45 489 OFFCURVE",
"31 391 CURVE SMOOTH",
"-2 154 LINE SMOOTH",
"-23 3 OFFCURVE",
"36 -7 OFFCURVE",
"111 -7 CURVE SMOOTH"
);
},
{
closed = 1;
nodes = (
"150 80 OFFCURVE",
"144 87 OFFCURVE",
"148 110 CURVE SMOOTH",
"185 378 LINE SMOOTH",
"189 401 OFFCURVE",
"197 408 OFFCURVE",
"207 408 CURVE SMOOTH",
"216 408 OFFCURVE",
"223 405 OFFCURVE",
"223 405 CURVE",
"209 307 OFFCURVE",
"195 208 OFFCURVE",
"182 110 CURVE SMOOTH",
"178 87 OFFCURVE",
"170 80 OFFCURVE",
"160 80 CURVE SMOOTH"
);
}
);
width = 391;
}
);
unicode = 0064;
},
{
glyphname = eth;
lastChange = "2021-05-18 00:21:22 +0000";
layers = (
{
background = {
paths = (
{
closed = 1;
nodes = (
"226 -8 OFFCURVE",
"251 87 OFFCURVE",
"260 153 CURVE SMOOTH",
"297 412 LINE SMOOTH",
"309 495 OFFCURVE",
"314 564 OFFCURVE",
"306 599 CURVE SMOOTH",
"293 658 OFFCURVE",
"238 662 OFFCURVE",
"201 662 CURVE SMOOTH",
"161 662 OFFCURVE",
"127 651 OFFCURVE",
"107 647 CURVE",
"105 633 LINE",
"125 638 OFFCURVE",
"159 646 OFFCURVE",
"198 646 CURVE SMOOTH",
"302 646 OFFCURVE",
"294 580 OFFCURVE",
"281 450 CURVE",
"270 485 OFFCURVE",
"224 495 OFFCURVE",
"184 495 CURVE SMOOTH",
"124 495 OFFCURVE",
"71 488 OFFCURVE",
"54 374 CURVE SMOOTH",
"17 107 LINE SMOOTH",
"1 -7 OFFCURVE",
"71 -8 OFFCURVE",
"114 -8 CURVE SMOOTH"
);
},
{
closed = 1;
nodes = (
"88 8 OFFCURVE",
"24 12 OFFCURVE",
"37 105 CURVE SMOOTH",
"74 368 LINE SMOOTH",
"83 432 OFFCURVE",
"96 480 OFFCURVE",
"181 480 CURVE SMOOTH",
"264 480 OFFCURVE",
"278 423 OFFCURVE",
"277 413 CURVE",
"241 154 LINE SMOOTH",
"231 89 OFFCURVE",
"205 8 OFFCURVE",
"116 8 CURVE SMOOTH"
);
},
{
closed = 1;
nodes = (
"173 548 LINE",
"342 677 LINE",
"332 692 LINE",
"163 562 LINE"
);
}
);
};
hints = (
{
horizontal = 1;
place = "{-57, -30}";
type = Stem;
},
{
horizontal = 1;
place = "{414, -31}";
type = Stem;
},
{
horizontal = 1;
place = "{596, -30}";
type = Stem;
},
{
place = "{2, -29}";
type = Stem;
},
{
place = "{270, -29}";
type = Stem;
},
{
place = "{267, -27}";
type = Stem;
},
{
horizontal = 1;
place = "{-56, -32}";
type = Stem;
},
{
horizontal = 1;
place = "{442, -33}";
type = Stem;
},
{
horizontal = 1;
place = "{598, -32}";
type = Stem;
},
{
place = "{2, -28}";
type = Stem;
},
{
place = "{219, -28}";
type = Stem;
},
{
horizontal = 1;
place = "{486, -33}";
type = Stem;
},
{
place = "{246, 114}";
type = Stem;
}
);
layerId = "82B1C968-1149-4E0D-B361-F2F5D539D913";
paths = (
{
closed = 1;
nodes = (
"226 -8 OFFCURVE",
"251 87 OFFCURVE",
"260 153 CURVE SMOOTH",
"297 412 LINE SMOOTH",
"309 495 OFFCURVE",
"314 564 OFFCURVE",
"306 599 CURVE SMOOTH",
"293 658 OFFCURVE",
"238 662 OFFCURVE",
"201 662 CURVE SMOOTH",
"161 662 OFFCURVE",
"127 651 OFFCURVE",
"107 647 CURVE",
"105 633 LINE",
"125 638 OFFCURVE",
"159 646 OFFCURVE",
"198 646 CURVE SMOOTH",
"302 646 OFFCURVE",
"294 580 OFFCURVE",
"281 450 CURVE",
"270 485 OFFCURVE",
"224 495 OFFCURVE",
"184 495 CURVE SMOOTH",
"124 495 OFFCURVE",
"71 488 OFFCURVE",
"54 374 CURVE SMOOTH",
"17 107 LINE SMOOTH",
"1 -7 OFFCURVE",
"71 -8 OFFCURVE",
"114 -8 CURVE SMOOTH"
);
},
{
closed = 1;
nodes = (
"88 8 OFFCURVE",
"24 12 OFFCURVE",
"37 105 CURVE SMOOTH",
"74 368 LINE SMOOTH",
"83 432 OFFCURVE",
"96 480 OFFCURVE",
"181 480 CURVE SMOOTH",
"264 480 OFFCURVE",
"278 423 OFFCURVE",
"277 413 CURVE SMOOTH",
"241 154 LINE SMOOTH",
"231 89 OFFCURVE",
"205 8 OFFCURVE",
"116 8 CURVE SMOOTH"
);
},
{
closed = 1;
nodes = (
"342 677 LINE",
"332 692 LINE",
"163 562 LINE",
"173 548 LINE"
);
}
);
width = 345;
},
{
background = {
paths = (
{
closed = 1;
nodes = (
"256 -12 OFFCURVE",
"324 7 OFFCURVE",
"347 167 CURVE SMOOTH",
"374 358 LINE SMOOTH",
"391 492 OFFCURVE",
"388 567 OFFCURVE",
"364 610 CURVE SMOOTH",
"339 654 OFFCURVE",
"290 662 OFFCURVE",
"216 662 CURVE SMOOTH",
"133 662 OFFCURVE",
"104 653 OFFCURVE",
"105 652 CURVE",
"91 553 LINE",
"129 559 OFFCURVE",
"151 562 OFFCURVE",
"179 562 CURVE SMOOTH",
"226 562 OFFCURVE",
"239 521 OFFCURVE",
"233 479 CURVE",
"228 479 OFFCURVE",
"223 479 OFFCURVE",
"218 479 CURVE SMOOTH",
"107 479 OFFCURVE",
"40 448 OFFCURVE",
"26 349 CURVE SMOOTH",
"1 166 LINE SMOOTH",
"-22 7 OFFCURVE",
"42 -12 OFFCURVE",
"149 -12 CURVE SMOOTH"
);
},
{
closed = 1;
nodes = (
"149 68 OFFCURVE",
"144 75 OFFCURVE",
"147 98 CURVE SMOOTH",
"185 369 LINE SMOOTH",
"188 392 OFFCURVE",
"195 399 OFFCURVE",
"206 399 CURVE SMOOTH",
"217 399 OFFCURVE",
"222 392 OFFCURVE",
"219 369 CURVE SMOOTH",
"181 98 LINE SMOOTH",
"178 75 OFFCURVE",
"171 68 OFFCURVE",
"160 68 CURVE SMOOTH"
);
},
{
closed = 1;
nodes = (
"159 487 LINE",
"385 651 LINE",
"355 691 LINE",
"131 528 LINE"
);
}
);
};
layerId = "8A3706BD-364F-4FE3-9C2E-7E87DF0DB4CC";
paths = (
{
closed = 1;
nodes = (
"256 -12 OFFCURVE",
"324 7 OFFCURVE",
"347 167 CURVE SMOOTH",
"374 358 LINE SMOOTH",
"391 492 OFFCURVE",
"388 567 OFFCURVE",
"364 610 CURVE SMOOTH",
"339 654 OFFCURVE",
"290 662 OFFCURVE",
"216 662 CURVE SMOOTH",
"133 662 OFFCURVE",
"104 653 OFFCURVE",
"105 652 CURVE",
"91 553 LINE",
"129 559 OFFCURVE",
"151 562 OFFCURVE",
"179 562 CURVE SMOOTH",
"226 562 OFFCURVE",
"239 521 OFFCURVE",
"233 479 CURVE",
"218 479 LINE SMOOTH",
"107 479 OFFCURVE",
"40 448 OFFCURVE",
"26 349 CURVE SMOOTH",
"1 166 LINE SMOOTH",
"-22 7 OFFCURVE",
"42 -12 OFFCURVE",
"149 -12 CURVE SMOOTH"
);
},
{
closed = 1;
nodes = (
"149 68 OFFCURVE",
"144 75 OFFCURVE",
"147 98 CURVE SMOOTH",
"185 369 LINE SMOOTH",
"188 392 OFFCURVE",
"195 399 OFFCURVE",
"206 399 CURVE SMOOTH",
"217 399 OFFCURVE",
"222 392 OFFCURVE",
"219 369 CURVE SMOOTH",
"181 98 LINE SMOOTH",
"178 75 OFFCURVE",
"171 68 OFFCURVE",
"160 68 CURVE SMOOTH"
);
},
{
closed = 1;
nodes = (
"385 651 LINE",
"355 691 LINE",
"131 528 LINE",
"159 487 LINE"
);
}
);
width = 396;
}
);
note = eth;
rightKerningGroup = a;
unicode = 00F0;
},
{
glyphname = e;
lastChange = "2021-05-18 00:21:22 +0000";
layers = (
{
background = {
paths = (
{
closed = 1;
nodes = (
"260 172 LINE",
"253 120 LINE SMOOTH",
"241 38 OFFCURVE",
"218 9 OFFCURVE",
"138 9 CURVE SMOOTH",
"58 9 OFFCURVE",
"44 38 OFFCURVE",
"56 120 CURVE SMOOTH",
"71 225 LINE",
"127 234 OFFCURVE",
"289 250 OFFCURVE",
"315 367 CURVE SMOOTH",
"336 464 OFFCURVE",
"309 502 OFFCURVE",
"214 502 CURVE SMOOTH",
"130 502 OFFCURVE",
"86 477 OFFCURVE",
"73 385 CURVE SMOOTH",
"36 120 LINE SMOOTH",
"21 19 OFFCURVE",
"47 -9 OFFCURVE",
"137 -9 CURVE SMOOTH",
"227 -9 OFFCURVE",
"258 19 OFFCURVE",
"273 120 CURVE SMOOTH",
"280 172 LINE"
);
},
{
closed = 1;
nodes = (
"93 384 LINE SMOOTH",
"103 457 OFFCURVE",
"137 486 OFFCURVE",
"215 486 CURVE SMOOTH",
"297 486 OFFCURVE",
"311 445 OFFCURVE",
"293 369 CURVE SMOOTH",
"271 277 OFFCURVE",
"145 253 OFFCURVE",
"74 245 CURVE"
);
}
);
};
layerId = "82B1C968-1149-4E0D-B361-F2F5D539D913";
paths = (
{
closed = 1;
nodes = (
"227 -9 OFFCURVE",
"258 19 OFFCURVE",
"273 120 CURVE SMOOTH",
"280 172 LINE",
"260 172 LINE",
"253 120 LINE SMOOTH",
"241 38 OFFCURVE",
"218 9 OFFCURVE",
"138 9 CURVE SMOOTH",
"58 9 OFFCURVE",
"44 38 OFFCURVE",
"56 120 CURVE SMOOTH",
"71 225 LINE",
"127 234 OFFCURVE",
"289 250 OFFCURVE",
"315 367 CURVE SMOOTH",
"336 464 OFFCURVE",
"309 502 OFFCURVE",
"214 502 CURVE SMOOTH",
"130 502 OFFCURVE",
"86 477 OFFCURVE",
"73 385 CURVE SMOOTH",
"36 120 LINE SMOOTH",
"21 19 OFFCURVE",
"47 -9 OFFCURVE",
"137 -9 CURVE SMOOTH"
);
},
{
closed = 1;
nodes = (
"93 384 LINE SMOOTH",
"103 457 OFFCURVE",
"137 486 OFFCURVE",
"215 486 CURVE SMOOTH",
"297 486 OFFCURVE",
"311 445 OFFCURVE",
"293 369 CURVE SMOOTH",
"271 277 OFFCURVE",
"145 253 OFFCURVE",
"74 245 CURVE"
);
}
);
width = 337;
},
{
background = {
paths = (
{
closed = 1;
nodes = (
"207 189 LINE",
"196 112 LINE SMOOTH",
"191 78 OFFCURVE",
"182 72 OFFCURVE",
"172 72 CURVE SMOOTH",
"158 72 OFFCURVE",
"154 84 OFFCURVE",
"158 117 CURVE SMOOTH",
"172 225 LINE",
"238 225 OFFCURVE",
"371 252 OFFCURVE",
"387 370 CURVE SMOOTH",
"401 472 OFFCURVE",
"345 502 OFFCURVE",
"214 502 CURVE SMOOTH",
"121 502 OFFCURVE",
"56 472 OFFCURVE",
"42 373 CURVE SMOOTH",
"12 163 LINE SMOOTH",
"-9 15 OFFCURVE",
"54 -13 OFFCURVE",
"161 -13 CURVE SMOOTH",
"284 -13 OFFCURVE",
"337 10 OFFCURVE",
"354 137 CURVE SMOOTH",
"361 189 LINE"
);
},
{
closed = 1;
nodes = (
"192 358 LINE SMOOTH",
"199 416 OFFCURVE",
"206 424 OFFCURVE",
"221 424 CURVE SMOOTH",
"241 424 OFFCURVE",
"235 391 OFFCURVE",
"232 369 CURVE SMOOTH",
"223 303 OFFCURVE",
"196 299 OFFCURVE",
"185 300 CURVE"
);
}
);
};
layerId = "8A3706BD-364F-4FE3-9C2E-7E87DF0DB4CC";
paths = (
{
closed = 1;
nodes = (
"284 -13 OFFCURVE",
"337 10 OFFCURVE",
"354 137 CURVE SMOOTH",
"361 189 LINE",
"207 189 LINE",
"196 112 LINE SMOOTH",
"191 78 OFFCURVE",
"182 72 OFFCURVE",
"172 72 CURVE SMOOTH",
"158 72 OFFCURVE",
"154 84 OFFCURVE",
"158 117 CURVE SMOOTH",
"172 225 LINE",
"238 225 OFFCURVE",
"371 252 OFFCURVE",
"387 370 CURVE SMOOTH",
"401 472 OFFCURVE",
"345 502 OFFCURVE",
"214 502 CURVE SMOOTH",
"121 502 OFFCURVE",
"56 472 OFFCURVE",
"42 373 CURVE SMOOTH",
"12 163 LINE SMOOTH",
"-9 15 OFFCURVE",
"54 -13 OFFCURVE",
"161 -13 CURVE SMOOTH"
);
},
{
closed = 1;
nodes = (
"192 358 LINE SMOOTH",
"199 416 OFFCURVE",
"206 424 OFFCURVE",
"221 424 CURVE SMOOTH",
"241 424 OFFCURVE",
"235 391 OFFCURVE",
"232 369 CURVE SMOOTH",
"223 303 OFFCURVE",
"196 299 OFFCURVE",
"185 300 CURVE"
);
}
);
width = 386;
}
);
unicode = 0065;
},
{
glyphname = f;
lastChange = "2021-05-18 00:21:22 +0000";
layers = (
{
background = {
paths = (
{
closed = 1;
nodes = (
"127 579 OFFCURVE",
"145 619 OFFCURVE",
"186 619 CURVE",
"220 619 OFFCURVE",
"258 614 OFFCURVE",
"258 614 CURVE",
"260 632 LINE",
"245 634 OFFCURVE",
"215 636 OFFCURVE",
"190 636 CURVE",
"138 636 OFFCURVE",
"111 602 OFFCURVE",
"103 547 CURVE",
"93 476 LINE",
"62 476 LINE",
"60 459 LINE",
"91 459 LINE",
"26 0 LINE",
"45 0 LINE",
"110 459 LINE",
"236 459 LINE",
"238 476 LINE",
"112 476 LINE",
"122 544 LINE"
);
}
);
};
layerId = "82B1C968-1149-4E0D-B361-F2F5D539D913";
paths = (
{
closed = 1;
nodes = (
"45 0 LINE",
"110 459 LINE",
"236 459 LINE",
"238 476 LINE",
"112 476 LINE",
"122 544 LINE SMOOTH",
"127 579 OFFCURVE",
"145 619 OFFCURVE",
"186 619 CURVE SMOOTH",
"220 619 OFFCURVE",
"258 614 OFFCURVE",
"258 614 CURVE",
"260 632 LINE",
"245 634 OFFCURVE",
"215 636 OFFCURVE",
"190 636 CURVE SMOOTH",
"138 636 OFFCURVE",
"111 602 OFFCURVE",
"103 547 CURVE SMOOTH",
"93 476 LINE",
"62 476 LINE",
"60 459 LINE",
"91 459 LINE",
"26 0 LINE"
);
}
);
width = 236;
},
{
background = {
paths = (
{
closed = 1;
nodes = (
"234 533 OFFCURVE",
"242 557 OFFCURVE",
"264 557 CURVE",
"290 557 OFFCURVE",
"317 554 OFFCURVE",
"317 554 CURVE",
"326 624 LINE",
"317 624 OFFCURVE",
"260 630 OFFCURVE",
"215 630 CURVE",
"160 630 OFFCURVE",
"90 624 OFFCURVE",
"75 512 CURVE",
"70 476 LINE",
"38 476 LINE",
"25 389 LINE",
"57 389 LINE",
"3 0 LINE",
"159 0 LINE",
"213 389 LINE",
"293 389 LINE",
"306 476 LINE",
"226 476 LINE",
"231 513 LINE"
);
}
);
};
layerId = "8A3706BD-364F-4FE3-9C2E-7E87DF0DB4CC";
paths = (
{
closed = 1;
nodes = (
"159 0 LINE",
"213 389 LINE",
"293 389 LINE",
"306 476 LINE",
"226 476 LINE",
"231 513 LINE SMOOTH",
"234 533 OFFCURVE",
"242 557 OFFCURVE",
"264 557 CURVE SMOOTH",
"290 557 OFFCURVE",
"317 554 OFFCURVE",
"317 554 CURVE",
"326 624 LINE",
"317 624 OFFCURVE",
"260 630 OFFCURVE",
"215 630 CURVE SMOOTH",
"160 630 OFFCURVE",
"90 624 OFFCURVE",
"75 512 CURVE SMOOTH",
"70 476 LINE",
"38 476 LINE",
"25 389 LINE",
"57 389 LINE",
"3 0 LINE"
);
}
);
width = 298;
}
);
unicode = 0066;
},
{
glyphname = g;
lastChange = "2021-05-18 00:21:22 +0000";
layers = (
{
background = {
paths = (
{
closed = 1;
nodes = (
"83 39 OFFCURVE",
"18 43 OFFCURVE",
"31 136 CURVE",
"42 217 OFFCURVE",
"53 297 OFFCURVE",
"65 378 CURVE",
"74 441 OFFCURVE",
"86 490 OFFCURVE",
"172 490 CURVE",
"256 490 OFFCURVE",
"264 436 OFFCURVE",
"268 423 CURVE",
"257 344 OFFCURVE",
"246 264 OFFCURVE",
"235 185 CURVE",
"225 120 OFFCURVE",
"199 39 OFFCURVE",
"110 39 CURVE"
);
},
{
closed = 1;
nodes = (
"16 -110 OFFCURVE",
"52 -115 OFFCURVE",
"77 -115 CURVE SMOOTH",
"139 -115 OFFCURVE",
"216 -93 OFFCURVE",
"231 20 CURVE",
"254 178 OFFCURVE",
"276 337 OFFCURVE",
"298 495 CURVE",
"293 495 OFFCURVE",
"287 495 OFFCURVE",
"282 495 CURVE",
"279 482 OFFCURVE",
"276 468 OFFCURVE",
"274 455 CURVE",
"266 494 OFFCURVE",
"216 505 OFFCURVE",
"175 505 CURVE",
"115 505 OFFCURVE",
"62 498 OFFCURVE",
"46 384 CURVE",
"34 302 OFFCURVE",
"23 220 OFFCURVE",
"11 138 CURVE",
"-5 24 OFFCURVE",
"66 23 OFFCURVE",
"108 23 CURVE",
"158 23 OFFCURVE",
"201 42 OFFCURVE",
"223 92 CURVE",
"219 70 OFFCURVE",
"216 48 OFFCURVE",
"213 26 CURVE",
"195 -103 OFFCURVE",
"109 -99 OFFCURVE",
"78 -99 CURVE SMOOTH",
"54 -99 OFFCURVE",
"11 -92 OFFCURVE",
"11 -92 CURVE",
"8 -108 LINE"
);
}
);
};
layerId = "82B1C968-1149-4E0D-B361-F2F5D539D913";
paths = (
{
closed = 1;
nodes = (
"139 -115 OFFCURVE",
"216 -93 OFFCURVE",
"231 20 CURVE SMOOTH",
"254 178 OFFCURVE",
"276 337 OFFCURVE",
"298 495 CURVE",
"282 495 LINE",
"279 482 OFFCURVE",
"276 468 OFFCURVE",
"274 455 CURVE",
"266 494 OFFCURVE",
"216 505 OFFCURVE",
"175 505 CURVE SMOOTH",
"115 505 OFFCURVE",
"62 498 OFFCURVE",
"46 384 CURVE SMOOTH",
"34 302 OFFCURVE",
"23 220 OFFCURVE",
"11 138 CURVE SMOOTH",
"-5 24 OFFCURVE",
"66 23 OFFCURVE",
"108 23 CURVE SMOOTH",
"158 23 OFFCURVE",
"201 42 OFFCURVE",
"223 92 CURVE",
"219 70 OFFCURVE",
"216 48 OFFCURVE",
"213 26 CURVE SMOOTH",
"195 -103 OFFCURVE",
"109 -99 OFFCURVE",
"78 -99 CURVE SMOOTH",
"54 -99 OFFCURVE",
"11 -92 OFFCURVE",
"11 -92 CURVE",
"8 -108 LINE",
"16 -110 OFFCURVE",
"52 -115 OFFCURVE",
"77 -115 CURVE SMOOTH"
);
},
{
closed = 1;
nodes = (
"83 39 OFFCURVE",
"18 43 OFFCURVE",
"31 136 CURVE SMOOTH",
"42 217 OFFCURVE",
"53 297 OFFCURVE",
"65 378 CURVE SMOOTH",
"74 441 OFFCURVE",
"86 490 OFFCURVE",
"172 490 CURVE SMOOTH",
"256 490 OFFCURVE",
"264 436 OFFCURVE",
"268 423 CURVE",
"235 185 LINE SMOOTH",
"225 120 OFFCURVE",
"199 39 OFFCURVE",
"110 39 CURVE SMOOTH"
);
}
);
width = 333;
},
{
background = {
paths = (
{
closed = 1;
nodes = (
"178 122 OFFCURVE",
"172 129 OFFCURVE",
"175 153 CURVE",
"184 215 OFFCURVE",
"195 291 OFFCURVE",
"207 378 CURVE",
"210 401 OFFCURVE",
"218 408 OFFCURVE",
"228 408 CURVE",
"237 408 OFFCURVE",
"241 406 OFFCURVE",
"245 405 CURVE",
"236 344 OFFCURVE",
"230 300 OFFCURVE",
"209 152 CURVE",
"206 129 OFFCURVE",
"198 122 OFFCURVE",
"188 122 CURVE"
);
},
{
closed = 1;
nodes = (
"25 -105 OFFCURVE",
"118 -114 OFFCURVE",
"164 -114 CURVE SMOOTH",
"326 -114 OFFCURVE",
"346 18 OFFCURVE",
"359 106 CURVE",
"369 178 OFFCURVE",
"391 337 OFFCURVE",
"413 495 CURVE",
"408 495 OFFCURVE",
"278 495 OFFCURVE",
"273 495 CURVE",
"267 483 OFFCURVE",
"259 472 OFFCURVE",
"253 460 CURVE",
"245 499 OFFCURVE",
"214 500 OFFCURVE",
"173 500 CURVE",
"139 500 OFFCURVE",
"67 489 OFFCURVE",
"53 391 CURVE",
"32 244 OFFCURVE",
"34 254 OFFCURVE",
"25 196 CURVE",
"4 45 OFFCURVE",
"44 31 OFFCURVE",
"104 31 CURVE",
"177 31 OFFCURVE",
"190 75 OFFCURVE",
"200 89 CURVE",
"197 67 OFFCURVE",
"194 45 OFFCURVE",
"191 23 CURVE",
"185 -19 OFFCURVE",
"149 -28 OFFCURVE",
"118 -28 CURVE SMOOTH",
"94 -28 OFFCURVE",
"48 -25 OFFCURVE",
"29 -21 CURVE",
"18 -102 LINE"
);
}
);
};
layerId = "8A3706BD-364F-4FE3-9C2E-7E87DF0DB4CC";
paths = (
{
closed = 1;
nodes = (
"326 -114 OFFCURVE",
"346 18 OFFCURVE",
"359 106 CURVE SMOOTH",
"369 178 OFFCURVE",
"391 337 OFFCURVE",
"413 495 CURVE",
"273 495 LINE",
"267 483 OFFCURVE",
"259 472 OFFCURVE",
"253 460 CURVE",
"245 499 OFFCURVE",
"214 500 OFFCURVE",
"173 500 CURVE SMOOTH",
"139 500 OFFCURVE",
"67 489 OFFCURVE",
"53 391 CURVE SMOOTH",
"32 244 OFFCURVE",
"34 254 OFFCURVE",
"25 196 CURVE SMOOTH",
"4 45 OFFCURVE",
"44 31 OFFCURVE",
"104 31 CURVE SMOOTH",
"177 31 OFFCURVE",
"190 75 OFFCURVE",
"200 89 CURVE",
"191 23 LINE SMOOTH",
"185 -19 OFFCURVE",
"149 -28 OFFCURVE",
"118 -28 CURVE SMOOTH",
"94 -28 OFFCURVE",
"48 -25 OFFCURVE",
"29 -21 CURVE",
"18 -102 LINE",
"25 -105 OFFCURVE",
"118 -114 OFFCURVE",
"164 -114 CURVE SMOOTH"
);
},
{
closed = 1;
nodes = (
"178 122 OFFCURVE",
"172 129 OFFCURVE",
"175 153 CURVE SMOOTH",
"184 215 OFFCURVE",
"195 291 OFFCURVE",
"207 378 CURVE SMOOTH",
"210 401 OFFCURVE",
"218 408 OFFCURVE",
"228 408 CURVE SMOOTH",
"237 408 OFFCURVE",
"241 406 OFFCURVE",
"245 405 CURVE",
"236 344 OFFCURVE",
"230 300 OFFCURVE",
"209 152 CURVE SMOOTH",
"206 129 OFFCURVE",
"198 122 OFFCURVE",
"188 122 CURVE SMOOTH"
);
}
);
width = 413;
}
);
unicode = 0067;
},
{
glyphname = h;
lastChange = "2021-05-18 00:21:18 +0000";
layers = (
{
background = {
paths = (
{
closed = 1;
nodes = (
"31 0 LINE",
"90 422 LINE",
"96 443 OFFCURVE",
"127 487 OFFCURVE",
"200 487 CURVE",
"303 487 OFFCURVE",
"289 412 OFFCURVE",
"282 363 CURVE",
"231 0 LINE",
"251 0 LINE",
"303 372 LINE",
"312 434 OFFCURVE",
"315 503 OFFCURVE",
"202 503 CURVE",
"150 503 OFFCURVE",
"117 487 OFFCURVE",
"96 463 CURVE",
"119 630 LINE",
"99 630 LINE",
"11 0 LINE"
);
}
);
};
layerId = "82B1C968-1149-4E0D-B361-F2F5D539D913";
paths = (
{
closed = 1;
nodes = (
"31 0 LINE",
"90 422 LINE",
"96 443 OFFCURVE",
"127 487 OFFCURVE",
"200 487 CURVE SMOOTH",
"303 487 OFFCURVE",
"289 412 OFFCURVE",
"282 363 CURVE SMOOTH",
"231 0 LINE",
"251 0 LINE",
"303 372 LINE SMOOTH",
"312 434 OFFCURVE",
"315 503 OFFCURVE",
"202 503 CURVE SMOOTH",
"150 503 OFFCURVE",
"117 487 OFFCURVE",
"96 463 CURVE",
"119 630 LINE",
"99 630 LINE",
"11 0 LINE"
);
}
);
width = 345;
},
{
background = {
paths = (
{
closed = 1;
nodes = (
"137 0 LINE",
"189 370 LINE",
"189 375 OFFCURVE",
"196 378 OFFCURVE",
"205 378 CURVE",
"218 378 OFFCURVE",
"222 368 OFFCURVE",
"220 350 CURVE",
"171 0 LINE",
"327 0 LINE",
"379 371 LINE",
"391 457 OFFCURVE",
"375 502 OFFCURVE",
"287 502 CURVE",
"244 502 OFFCURVE",
"200 477 OFFCURVE",
"186 430 CURVE",
"214 630 LINE",
"69 630 LINE",
"-19 0 LINE"
);
}
);
};
layerId = "8A3706BD-364F-4FE3-9C2E-7E87DF0DB4CC";
paths = (
{
closed = 1;
nodes = (
"137 0 LINE",
"189 370 LINE",
"189 375 OFFCURVE",
"196 378 OFFCURVE",
"205 378 CURVE SMOOTH",
"218 378 OFFCURVE",
"222 368 OFFCURVE",
"220 350 CURVE SMOOTH",
"171 0 LINE",
"327 0 LINE",
"379 371 LINE SMOOTH",
"391 457 OFFCURVE",
"375 502 OFFCURVE",
"287 502 CURVE SMOOTH",
"244 502 OFFCURVE",
"200 477 OFFCURVE",
"186 430 CURVE",
"214 630 LINE",
"69 630 LINE",
"-19 0 LINE"
);
}
);
width = 395;
}
);
unicode = 0068;
},
{
glyphname = i;
lastChange = "2021-05-18 00:21:22 +0000";
layers = (
{
background = {
paths = (
{
closed = 1;
nodes = (
"103 627 OFFCURVE",
"111 619 OFFCURVE",
"122 619 CURVE",
"132 619 OFFCURVE",
"141 627 OFFCURVE",
"141 637 CURVE",
"141 646 OFFCURVE",
"132 654 OFFCURVE",
"122 654 CURVE",
"111 654 OFFCURVE",
"103 646 OFFCURVE",
"103 637 CURVE"
);
},
{
closed = 1;
nodes = (
"39 0 LINE",
"109 495 LINE",
"90 495 LINE",
"20 0 LINE"
);
}
);
};
layerId = "82B1C968-1149-4E0D-B361-F2F5D539D913";
paths = (
{
closed = 1;
nodes = (
"39 0 LINE",
"109 495 LINE",
"90 495 LINE",
"20 0 LINE"
);
},
{
closed = 1;
nodes = (
"132 619 OFFCURVE",
"141 627 OFFCURVE",
"141 637 CURVE SMOOTH",
"141 646 OFFCURVE",
"132 654 OFFCURVE",
"122 654 CURVE SMOOTH",
"111 654 OFFCURVE",
"103 646 OFFCURVE",
"103 637 CURVE SMOOTH",
"103 627 OFFCURVE",
"111 619 OFFCURVE",
"122 619 CURVE SMOOTH"
);
}
);
width = 158;
},
{
background = {
paths = (
{
closed = 1;
nodes = (
"92 581 OFFCURVE",
"125 548 OFFCURVE",
"167 548 CURVE",
"210 548 OFFCURVE",
"246 581 OFFCURVE",
"245 621 CURVE",
"245 662 OFFCURVE",
"211 695 OFFCURVE",
"168 695 CURVE",
"126 695 OFFCURVE",
"91 662 OFFCURVE",
"91 621 CURVE"
);
},
{
closed = 1;
nodes = (
"159 0 LINE",
"229 495 LINE",
"73 495 LINE",
"3 0 LINE"
);
}
);
};
layerId = "8A3706BD-364F-4FE3-9C2E-7E87DF0DB4CC";
paths = (
{
closed = 1;
nodes = (
"159 0 LINE",
"229 495 LINE",
"73 495 LINE",
"3 0 LINE"
);
},
{
closed = 1;
nodes = (
"210 548 OFFCURVE",
"246 581 OFFCURVE",
"245 621 CURVE SMOOTH",
"245 662 OFFCURVE",
"211 695 OFFCURVE",
"168 695 CURVE SMOOTH",
"126 695 OFFCURVE",
"91 662 OFFCURVE",
"91 621 CURVE SMOOTH",
"92 581 OFFCURVE",
"125 548 OFFCURVE",
"167 548 CURVE SMOOTH"
);
}
);
width = 238;
}
);
unicode = 0069;
},
{
glyphname = idotless;
lastChange = "2021-05-18 00:21:14 +0000";
layers = (
{
background = {
paths = (
{
closed = 1;
nodes = (
"50 0 LINE",
"120 495 LINE",
"101 495 LINE",
"31 0 LINE"
);
}
);
};
layerId = "82B1C968-1149-4E0D-B361-F2F5D539D913";
paths = (
{
closed = 1;
nodes = (
"50 0 LINE",
"120 495 LINE",
"101 495 LINE",
"31 0 LINE"
);
}
);
width = 158;
},
{
background = {
paths = (
{
closed = 1;
nodes = (
"151 0 LINE",
"221 495 LINE",
"65 495 LINE",
"-5 0 LINE"
);
}
);
};
layerId = "8A3706BD-364F-4FE3-9C2E-7E87DF0DB4CC";
paths = (
{
closed = 1;
nodes = (
"151 0 LINE",
"221 495 LINE",
"65 495 LINE",
"-5 0 LINE"
);
}
);
width = 216;
}
);
unicode = 0131;
},
{
glyphname = j;
lastChange = "2021-05-18 00:21:22 +0000";
layers = (
{
background = {
paths = (
{
closed = 1;
nodes = (
"-62 -109 OFFCURVE",
"-51 -110 OFFCURVE",
"-45 -110 CURVE",
"18 -110 OFFCURVE",
"69 -101 OFFCURVE",
"79 -26 CURVE",
"152 495 LINE",
"133 495 LINE",
"61 -23 LINE",
"52 -86 OFFCURVE",
"15 -96 OFFCURVE",
"-41 -96 CURVE",
"-50 -96 OFFCURVE",
"-61 -95 OFFCURVE",
"-61 -94 CURVE",
"-63 -108 LINE"
);
},
{
closed = 1;
nodes = (
"147 627 OFFCURVE",
"155 619 OFFCURVE",
"166 619 CURVE",
"176 619 OFFCURVE",
"185 627 OFFCURVE",
"185 637 CURVE",
"185 646 OFFCURVE",
"176 654 OFFCURVE",
"166 654 CURVE",
"155 654 OFFCURVE",
"147 646 OFFCURVE",
"147 637 CURVE"
);
}
);
};
layerId = "82B1C968-1149-4E0D-B361-F2F5D539D913";
paths = (
{
closed = 1;
nodes = (
"18 -110 OFFCURVE",
"69 -101 OFFCURVE",
"79 -26 CURVE SMOOTH",
"152 495 LINE",
"133 495 LINE",
"61 -23 LINE SMOOTH",
"52 -86 OFFCURVE",
"15 -96 OFFCURVE",
"-41 -96 CURVE SMOOTH",
"-50 -96 OFFCURVE",
"-61 -95 OFFCURVE",
"-61 -94 CURVE SMOOTH",
"-63 -108 LINE",
"-62 -109 OFFCURVE",
"-51 -110 OFFCURVE",
"-45 -110 CURVE SMOOTH"
);
},
{
closed = 1;
nodes = (
"176 619 OFFCURVE",
"185 627 OFFCURVE",
"185 637 CURVE SMOOTH",
"185 646 OFFCURVE",
"176 654 OFFCURVE",
"166 654 CURVE SMOOTH",
"155 654 OFFCURVE",
"147 646 OFFCURVE",
"147 637 CURVE SMOOTH",
"147 627 OFFCURVE",
"155 619 OFFCURVE",
"166 619 CURVE SMOOTH"
);
}
);
width = 189;
},
{
background = {
paths = (
{
closed = 1;
nodes = (
"-99 -110 OFFCURVE",
"-72 -112 OFFCURVE",
"-61 -113 CURVE SMOOTH",
"41 -123 OFFCURVE",
"144 -90 OFFCURVE",
"166 69 CURVE",
"226 495 LINE",
"70 495 LINE",
"3 20 LINE",
"0 0 OFFCURVE",
"-17 -23 OFFCURVE",
"-47 -26 CURVE SMOOTH",
"-58 -27 OFFCURVE",
"-81 -28 OFFCURVE",
"-95 -28 CURVE",
"-106 -109 LINE"
);
},
{
closed = 1;
nodes = (
"83 581 OFFCURVE",
"112 548 OFFCURVE",
"154 548 CURVE",
"197 548 OFFCURVE",
"237 581 OFFCURVE",
"242 621 CURVE",
"248 662 OFFCURVE",
"218 695 OFFCURVE",
"175 695 CURVE",
"133 695 OFFCURVE",
"94 662 OFFCURVE",
"88 621 CURVE"
);
}
);
};
layerId = "8A3706BD-364F-4FE3-9C2E-7E87DF0DB4CC";
paths = (
{
closed = 1;
nodes = (
"41 -123 OFFCURVE",
"144 -90 OFFCURVE",
"166 69 CURVE SMOOTH",
"226 495 LINE",
"70 495 LINE",
"3 20 LINE SMOOTH",
"0 0 OFFCURVE",
"-17 -23 OFFCURVE",
"-47 -26 CURVE SMOOTH",
"-58 -27 OFFCURVE",
"-81 -28 OFFCURVE",
"-95 -28 CURVE",
"-106 -109 LINE",
"-99 -110 OFFCURVE",
"-72 -112 OFFCURVE",
"-61 -113 CURVE SMOOTH"
);
},
{
closed = 1;
nodes = (
"197 548 OFFCURVE",
"237 581 OFFCURVE",
"242 621 CURVE SMOOTH",
"248 662 OFFCURVE",
"218 695 OFFCURVE",
"175 695 CURVE SMOOTH",
"133 695 OFFCURVE",
"94 662 OFFCURVE",
"88 621 CURVE SMOOTH",
"83 581 OFFCURVE",
"112 548 OFFCURVE",
"154 548 CURVE SMOOTH"
);
}
);
width = 227;
}
);
unicode = 006A;
},
{
glyphname = k;
lastChange = "2021-05-18 00:21:14 +0000";
layers = (
{
background = {
paths = (
{
closed = 1;
nodes = (
"226 0 LINE",
"117 289 LINE",
"293 495 LINE",
"272 495 LINE",
"95 288 LINE",
"206 0 LINE"
);
},
{
closed = 1;
nodes = (
"29 0 LINE",
"119 636 LINE",
"100 636 LINE",
"10 0 LINE"
);
}
);
};
layerId = "82B1C968-1149-4E0D-B361-F2F5D539D913";
paths = (
{
closed = 1;
nodes = (
"226 0 LINE",
"117 289 LINE",
"293 495 LINE",
"272 495 LINE",
"95 288 LINE",
"206 0 LINE"
);
},
{
closed = 1;
nodes = (
"29 0 LINE",
"119 636 LINE",
"100 636 LINE",
"10 0 LINE"
);
}
);
width = 291;
},
{
background = {
paths = (
{
closed = 1;
nodes = (
"367 0 LINE",
"323 283 LINE",
"439 495 LINE",
"285 495 LINE",
"176 286 LINE",
"198 0 LINE"
);
},
{
closed = 1;
nodes = (
"137 0 LINE",
"225 630 LINE",
"69 630 LINE",
"-19 0 LINE"
);
}
);
};
layerId = "8A3706BD-364F-4FE3-9C2E-7E87DF0DB4CC";
paths = (
{
closed = 1;
nodes = (
"137 0 LINE",
"225 630 LINE",
"69 630 LINE",
"-19 0 LINE"
);
},
{
closed = 1;
nodes = (
"367 0 LINE",
"323 283 LINE",
"439 495 LINE",
"285 495 LINE",
"176 286 LINE",
"198 0 LINE"
);
}
);
width = 419;
}
);
unicode = 006B;
},
{
glyphname = l;
lastChange = "2021-05-18 00:21:22 +0000";
layers = (
{
background = {
paths = (
{
closed = 1;
nodes = (
"119 636 LINE",
"100 636 LINE",
"10 0 LINE",
"29 0 LINE"
);
}
);
};
layerId = "82B1C968-1149-4E0D-B361-F2F5D539D913";
paths = (
{
closed = 1;
nodes = (
"29 0 LINE",
"119 636 LINE",
"100 636 LINE",
"10 0 LINE"
);
}
);
width = 129;
},
{
background = {
paths = (
{
closed = 1;
nodes = (
"244 630 LINE",
"88 630 LINE",
"0 0 LINE",
"156 0 LINE"
);
}
);
};
layerId = "8A3706BD-364F-4FE3-9C2E-7E87DF0DB4CC";
paths = (
{
closed = 1;
nodes = (
"156 0 LINE",
"244 630 LINE",
"88 630 LINE",
"0 0 LINE"
);
}
);
width = 244;
}
);
unicode = 006C;
},
{
glyphname = lslash;
lastChange = "2021-05-18 00:21:14 +0000";
layers = (
{
background = {
paths = (
{
closed = 1;
nodes = (
"98 0 LINE",
"125 193 LINE",
"207 228 LINE",
"210 248 LINE",
"128 214 LINE",
"188 636 LINE",
"170 636 LINE",
"109 205 LINE",
"29 171 LINE",
"27 151 LINE",
"106 184 LINE",
"80 0 LINE"
);
}
);
};
hints = (
{
horizontal = 1;
place = "{-45, 21}";
target = up;
type = BottomGhost;
},
{
place = "{80, -27}";
type = Stem;
}
);
layerId = "82B1C968-1149-4E0D-B361-F2F5D539D913";
paths = (
{
closed = 1;
nodes = (
"98 0 LINE",
"125 193 LINE",
"207 228 LINE",
"210 248 LINE",
"128 214 LINE",
"188 636 LINE",
"170 636 LINE",
"109 205 LINE",
"29 171 LINE",
"27 151 LINE",
"106 184 LINE",
"80 0 LINE"
);
}
);
width = 270;
},
{
background = {
paths = (
{
closed = 1;
nodes = (
"183 0 LINE",
"215 227 LINE",
"276 253 LINE",
"285 316 LINE",
"223 290 LINE",
"271 630 LINE",
"115 630 LINE",
"58 221 LINE",
"-2 196 LINE",
"-11 132 LINE",
"49 157 LINE",
"27 0 LINE"
);
}
);
};
layerId = "8A3706BD-364F-4FE3-9C2E-7E87DF0DB4CC";
paths = (
{
closed = 1;
nodes = (
"183 0 LINE",
"215 227 LINE",
"276 253 LINE",
"285 316 LINE",
"223 290 LINE",
"271 630 LINE",
"115 630 LINE",
"58 221 LINE",
"-2 196 LINE",
"-11 132 LINE",
"49 157 LINE",
"27 0 LINE"
);
}
);
width = 300;
}
);
note = lslash;
rightKerningGroup = a;
unicode = 0142;
},
{
glyphname = m;
lastChange = "2021-05-18 00:21:18 +0000";
layers = (
{
background = {
paths = (
{
closed = 1;
nodes = (
"35 0 LINE",
"92 408 LINE",
"111 450 OFFCURVE",
"145 487 OFFCURVE",
"202 487 CURVE",
"261 487 OFFCURVE",
"293 475 OFFCURVE",
"281 383 CURVE",
"227 0 LINE",
"247 0 LINE",
"301 388 LINE",
"312 444 OFFCURVE",
"361 487 OFFCURVE",
"416 487 CURVE",
"479 487 OFFCURVE",
"505 470 OFFCURVE",
"492 377 CURVE",
"439 0 LINE",
"459 0 LINE",
"511 371 LINE",
"524 464 OFFCURVE",
"511 502 OFFCURVE",
"418 502 CURVE",
"367 502 OFFCURVE",
"327 475 OFFCURVE",
"303 436 CURVE",
"300 483 OFFCURVE",
"272 502 OFFCURVE",
"204 502 CURVE",
"165 502 OFFCURVE",
"115 482 OFFCURVE",
"97 446 CURVE",
"100 495 LINE",
"84 495 LINE",
"15 0 LINE"
);
}
);
};
layerId = "82B1C968-1149-4E0D-B361-F2F5D539D913";
paths = (
{
closed = 1;
nodes = (
"35 0 LINE",
"92 408 LINE",
"111 450 OFFCURVE",
"145 487 OFFCURVE",
"202 487 CURVE SMOOTH",
"261 487 OFFCURVE",
"293 475 OFFCURVE",
"281 383 CURVE SMOOTH",
"227 0 LINE",
"247 0 LINE",
"301 388 LINE",
"312 444 OFFCURVE",
"361 487 OFFCURVE",
"416 487 CURVE SMOOTH",
"479 487 OFFCURVE",
"505 470 OFFCURVE",
"492 377 CURVE SMOOTH",
"439 0 LINE",
"459 0 LINE",
"511 371 LINE SMOOTH",
"524 464 OFFCURVE",
"511 502 OFFCURVE",
"418 502 CURVE SMOOTH",
"367 502 OFFCURVE",
"327 475 OFFCURVE",
"303 436 CURVE",
"300 483 OFFCURVE",
"272 502 OFFCURVE",
"204 502 CURVE SMOOTH",
"165 502 OFFCURVE",
"115 482 OFFCURVE",
"97 446 CURVE",
"100 495 LINE",
"84 495 LINE",
"15 0 LINE"
);
}
);
width = 544;
},
{
background = {
paths = (
{
closed = 1;
nodes = (
"146 0 LINE",
"201 390 LINE",
"205 392 OFFCURVE",
"213 393 OFFCURVE",
"218 393 CURVE",
"229 393 OFFCURVE",
"234 383 OFFCURVE",
"231 365 CURVE",
"180 0 LINE",
"336 0 LINE",
"391 390 LINE",
"395 392 OFFCURVE",
"403 393 OFFCURVE",
"408 393 CURVE",
"419 393 OFFCURVE",
"424 383 OFFCURVE",
"421 365 CURVE",
"370 0 LINE",
"526 0 LINE",
"578 371 LINE",
"590 457 OFFCURVE",
"574 502 OFFCURVE",
"486 502 CURVE",
"446 502 OFFCURVE",
"408 475 OFFCURVE",
"389 439 CURVE",
"382 480 OFFCURVE",
"356 502 OFFCURVE",
"296 502 CURVE",
"253 502 OFFCURVE",
"213 471 OFFCURVE",
"195 430 CURVE",
"192 495 LINE",
"59 495 LINE",
"-10 0 LINE"
);
}
);
};
layerId = "8A3706BD-364F-4FE3-9C2E-7E87DF0DB4CC";
paths = (
{
closed = 1;
nodes = (
"146 0 LINE",
"201 390 LINE",
"205 392 OFFCURVE",
"213 393 OFFCURVE",
"218 393 CURVE SMOOTH",
"229 393 OFFCURVE",
"234 383 OFFCURVE",
"231 365 CURVE SMOOTH",
"180 0 LINE",
"336 0 LINE",
"391 390 LINE",
"395 392 OFFCURVE",
"403 393 OFFCURVE",
"408 393 CURVE SMOOTH",
"419 393 OFFCURVE",
"424 383 OFFCURVE",
"421 365 CURVE SMOOTH",
"370 0 LINE",
"526 0 LINE",
"578 371 LINE SMOOTH",
"590 457 OFFCURVE",
"574 502 OFFCURVE",
"486 502 CURVE SMOOTH",
"446 502 OFFCURVE",
"408 475 OFFCURVE",
"389 439 CURVE",
"382 480 OFFCURVE",
"356 502 OFFCURVE",
"296 502 CURVE SMOOTH",
"253 502 OFFCURVE",
"213 471 OFFCURVE",
"195 430 CURVE",
"192 495 LINE",
"59 495 LINE",
"-10 0 LINE"
);
}
);
width = 586;
}
);
unicode = 006D;
},
{
glyphname = n;
lastChange = "2021-05-18 00:21:18 +0000";
layers = (
{
background = {
paths = (
{
closed = 1;
nodes = (
"40 0 LINE",
"97 409 LINE",
"108 439 OFFCURVE",
"136 487 OFFCURVE",
"209 487 CURVE",
"312 487 OFFCURVE",
"299 422 OFFCURVE",
"291 363 CURVE",
"240 0 LINE",
"260 0 LINE",
"312 372 LINE",
"321 434 OFFCURVE",
"324 503 OFFCURVE",
"211 503 CURVE",
"170 503 OFFCURVE",
"124 491 OFFCURVE",
"102 446 CURVE",
"104 495 LINE",
"89 495 LINE",
"20 0 LINE"
);
}
);
};
layerId = "82B1C968-1149-4E0D-B361-F2F5D539D913";
paths = (
{
closed = 1;
nodes = (
"40 0 LINE",
"97 409 LINE",
"108 439 OFFCURVE",
"136 487 OFFCURVE",
"209 487 CURVE SMOOTH",
"312 487 OFFCURVE",
"299 422 OFFCURVE",
"291 363 CURVE SMOOTH",
"240 0 LINE",
"260 0 LINE",
"312 372 LINE SMOOTH",
"321 434 OFFCURVE",
"324 503 OFFCURVE",
"211 503 CURVE SMOOTH",
"170 503 OFFCURVE",
"124 491 OFFCURVE",
"102 446 CURVE",
"104 495 LINE",
"89 495 LINE",
"20 0 LINE"
);
}
);
width = 340;
},
{
background = {
paths = (
{
closed = 1;
nodes = (
"146 0 LINE",
"201 390 LINE",
"205 392 OFFCURVE",
"213 393 OFFCURVE",
"218 393 CURVE SMOOTH",
"230 393 OFFCURVE",
"234 383 OFFCURVE",
"231 365 CURVE",
"180 0 LINE",
"336 0 LINE",
"388 371 LINE",
"400 457 OFFCURVE",
"384 502 OFFCURVE",
"296 502 CURVE",
"253 502 OFFCURVE",
"213 471 OFFCURVE",
"195 430 CURVE",
"192 495 LINE",
"59 495 LINE",
"-10 0 LINE"
);
}
);
};
layerId = "8A3706BD-364F-4FE3-9C2E-7E87DF0DB4CC";
paths = (
{
closed = 1;
nodes = (
"146 0 LINE",
"201 390 LINE",
"205 392 OFFCURVE",
"213 393 OFFCURVE",
"218 393 CURVE SMOOTH",
"230 393 OFFCURVE",
"234 383 OFFCURVE",
"231 365 CURVE SMOOTH",
"180 0 LINE",
"336 0 LINE",
"388 371 LINE SMOOTH",
"400 457 OFFCURVE",
"384 502 OFFCURVE",
"296 502 CURVE SMOOTH",
"253 502 OFFCURVE",
"213 471 OFFCURVE",
"195 430 CURVE",
"192 495 LINE",
"59 495 LINE",
"-10 0 LINE"
);
}
);
width = 396;
}
);
unicode = 006E;
},
{
glyphname = eng;
lastChange = "2021-05-18 00:21:18 +0000";
layers = (
{
background = {
paths = (
{
closed = 1;
nodes = (
"242 -110 OFFCURVE",
"290 -101 OFFCURVE",
"290 -26 CURVE SMOOTH",
"290 372 LINE SMOOTH",
"290 433 OFFCURVE",
"284 503 OFFCURVE",
"171 503 CURVE SMOOTH",
"129 503 OFFCURVE",
"86 491 OFFCURVE",
"70 446 CURVE",
"65 495 LINE",
"50 495 LINE",
"50 330 OFFCURVE",
"50 165 OFFCURVE",
"50 0 CURVE",
"70 0 LINE",
"70 136 OFFCURVE",
"70 273 OFFCURVE",
"70 409 CURVE",
"78 438 OFFCURVE",
"97 487 OFFCURVE",
"171 487 CURVE SMOOTH",
"274 487 OFFCURVE",
"270 422 OFFCURVE",
"270 363 CURVE SMOOTH",
"270 -23 LINE SMOOTH",
"270 -86 OFFCURVE",
"236 -96 OFFCURVE",
"180 -96 CURVE SMOOTH",
"171 -96 OFFCURVE",
"160 -95 OFFCURVE",
"159 -94 CURVE",
"159 -99 OFFCURVE",
"159 -103 OFFCURVE",
"159 -108 CURVE",
"162 -109 OFFCURVE",
"171 -110 OFFCURVE",
"178 -110 CURVE SMOOTH"
);
}
);
};
layerId = "82B1C968-1149-4E0D-B361-F2F5D539D913";
paths = (
{
closed = 1;
nodes = (
"242 -110 OFFCURVE",
"290 -101 OFFCURVE",
"290 -26 CURVE SMOOTH",
"290 372 LINE SMOOTH",
"290 433 OFFCURVE",
"284 503 OFFCURVE",
"171 503 CURVE SMOOTH",
"129 503 OFFCURVE",
"86 491 OFFCURVE",
"70 446 CURVE",
"65 495 LINE",
"50 495 LINE",
"50 0 LINE",
"70 0 LINE",
"70 409 LINE",
"78 438 OFFCURVE",
"97 487 OFFCURVE",
"171 487 CURVE SMOOTH",
"274 487 OFFCURVE",
"270 422 OFFCURVE",
"270 363 CURVE SMOOTH",
"270 -23 LINE SMOOTH",
"270 -86 OFFCURVE",
"236 -96 OFFCURVE",
"180 -96 CURVE SMOOTH",
"171 -96 OFFCURVE",
"160 -95 OFFCURVE",
"159 -94 CURVE",
"159 -108 LINE",
"162 -109 OFFCURVE",
"171 -110 OFFCURVE",
"178 -110 CURVE SMOOTH"
);
}
);
width = 340;
},
{
background = {
paths = (
{
closed = 1;
nodes = (
"287 -119 OFFCURVE",
"371 -77 OFFCURVE",
"371 66 CURVE SMOOTH",
"371 371 LINE SMOOTH",
"371 458 OFFCURVE",
"349 502 OFFCURVE",
"261 502 CURVE SMOOTH",
"218 502 OFFCURVE",
"182 471 OFFCURVE",
"170 430 CURVE",
"158 495 LINE",
"25 495 LINE",
"25 330 OFFCURVE",
"25 165 OFFCURVE",
"25 0 CURVE",
"181 0 LINE",
"181 130 OFFCURVE",
"181 260 OFFCURVE",
"181 390 CURVE",
"185 393 OFFCURVE",
"193 393 OFFCURVE",
"198 393 CURVE SMOOTH",
"209 393 OFFCURVE",
"215 384 OFFCURVE",
"215 365 CURVE SMOOTH",
"215 6 LINE SMOOTH",
"215 -15 OFFCURVE",
"202 -32 OFFCURVE",
"171 -32 CURVE SMOOTH",
"170 -32 OFFCURVE",
"137 -32 OFFCURVE",
"135 -32 CURVE",
"135 -58 OFFCURVE",
"135 -83 OFFCURVE",
"135 -109 CURVE",
"155 -113 OFFCURVE",
"174 -116 OFFCURVE",
"194 -116 CURVE SMOOTH"
);
}
);
};
layerId = "8A3706BD-364F-4FE3-9C2E-7E87DF0DB4CC";
paths = (
{
closed = 1;
nodes = (
"287 -119 OFFCURVE",
"371 -77 OFFCURVE",
"371 66 CURVE SMOOTH",
"371 371 LINE SMOOTH",
"371 458 OFFCURVE",
"349 502 OFFCURVE",
"261 502 CURVE SMOOTH",
"218 502 OFFCURVE",
"182 471 OFFCURVE",
"170 430 CURVE",
"158 495 LINE",
"25 495 LINE",
"25 0 LINE",
"181 0 LINE",
"181 390 LINE",
"185 393 OFFCURVE",
"193 393 OFFCURVE",
"198 393 CURVE SMOOTH",
"209 393 OFFCURVE",
"215 384 OFFCURVE",
"215 365 CURVE SMOOTH",
"215 6 LINE SMOOTH",
"215 -15 OFFCURVE",
"202 -32 OFFCURVE",
"171 -32 CURVE SMOOTH",
"170 -32 OFFCURVE",
"137 -32 OFFCURVE",
"135 -32 CURVE",
"135 -109 LINE",
"155 -113 OFFCURVE",
"174 -116 OFFCURVE",
"194 -116 CURVE SMOOTH"
);
}
);
width = 396;
}
);
unicode = 014B;
},
{
glyphname = o;
lastChange = "2021-05-18 00:21:18 +0000";
layers = (
{
background = {
paths = (
{
closed = 1;
nodes = (
"253 -7 OFFCURVE",
"269 62 OFFCURVE",
"278 124 CURVE",
"312 372 LINE",
"321 434 OFFCURVE",
"325 503 OFFCURVE",
"212 503 CURVE",
"98 503 OFFCURVE",
"82 434 OFFCURVE",
"73 372 CURVE",
"39 124 LINE",
"30 62 OFFCURVE",
"26 -7 OFFCURVE",
"140 -7 CURVE"
);
},
{
closed = 1;
nodes = (
"47 9 OFFCURVE",
"51 72 OFFCURVE",
"60 131 CURVE",
"93 367 LINE",
"101 424 OFFCURVE",
"115 487 OFFCURVE",
"210 487 CURVE",
"304 487 OFFCURVE",
"300 424 OFFCURVE",
"292 367 CURVE",
"259 131 LINE",
"250 72 OFFCURVE",
"236 9 OFFCURVE",
"142 9 CURVE"
);
}
);
};
layerId = "82B1C968-1149-4E0D-B361-F2F5D539D913";
paths = (
{
closed = 1;
nodes = (
"253 -7 OFFCURVE",
"269 62 OFFCURVE",
"278 124 CURVE SMOOTH",
"312 372 LINE SMOOTH",
"321 434 OFFCURVE",
"325 503 OFFCURVE",
"212 503 CURVE SMOOTH",
"98 503 OFFCURVE",
"82 434 OFFCURVE",
"73 372 CURVE SMOOTH",
"39 124 LINE SMOOTH",
"30 62 OFFCURVE",
"26 -7 OFFCURVE",
"140 -7 CURVE SMOOTH"
);
},
{
closed = 1;
nodes = (
"47 9 OFFCURVE",
"51 72 OFFCURVE",
"60 131 CURVE SMOOTH",
"93 367 LINE SMOOTH",
"101 424 OFFCURVE",
"115 487 OFFCURVE",
"210 487 CURVE SMOOTH",
"304 487 OFFCURVE",
"300 424 OFFCURVE",
"292 367 CURVE SMOOTH",
"259 131 LINE SMOOTH",
"250 72 OFFCURVE",
"236 9 OFFCURVE",
"142 9 CURVE SMOOTH"
);
}
);
width = 351;
},
{
background = {
paths = (
{
closed = 1;
nodes = (
"268 -12 OFFCURVE",
"337 7 OFFCURVE",
"360 167 CURVE",
"389 373 LINE",
"403 472 OFFCURVE",
"345 503 OFFCURVE",
"234 503 CURVE",
"123 503 OFFCURVE",
"57 472 OFFCURVE",
"43 373 CURVE",
"14 166 LINE",
"-9 7 OFFCURVE",
"56 -12 OFFCURVE",
"162 -12 CURVE"
);
},
{
closed = 1;
nodes = (
"163 68 OFFCURVE",
"157 75 OFFCURVE",
"160 98 CURVE",
"202 393 LINE",
"205 416 OFFCURVE",
"213 423 OFFCURVE",
"223 423 CURVE",
"233 423 OFFCURVE",
"239 416 OFFCURVE",
"236 393 CURVE",
"194 98 LINE",
"191 75 OFFCURVE",
"183 68 OFFCURVE",
"173 68 CURVE"
);
}
);
};
layerId = "8A3706BD-364F-4FE3-9C2E-7E87DF0DB4CC";
paths = (
{
closed = 1;
nodes = (
"268 -12 OFFCURVE",
"337 7 OFFCURVE",
"360 167 CURVE SMOOTH",
"389 373 LINE SMOOTH",
"403 472 OFFCURVE",
"345 503 OFFCURVE",
"234 503 CURVE SMOOTH",
"123 503 OFFCURVE",
"57 472 OFFCURVE",
"43 373 CURVE SMOOTH",
"14 166 LINE SMOOTH",
"-9 7 OFFCURVE",
"56 -12 OFFCURVE",
"162 -12 CURVE SMOOTH"
);
},
{
closed = 1;
nodes = (
"163 68 OFFCURVE",
"157 75 OFFCURVE",
"160 98 CURVE SMOOTH",
"202 393 LINE SMOOTH",
"205 416 OFFCURVE",
"213 423 OFFCURVE",
"223 423 CURVE SMOOTH",
"233 423 OFFCURVE",
"239 416 OFFCURVE",
"236 393 CURVE SMOOTH",
"194 98 LINE SMOOTH",
"191 75 OFFCURVE",
"183 68 OFFCURVE",
"173 68 CURVE SMOOTH"
);
}
);
width = 396;
}
);
unicode = 006F;
},
{
glyphname = oslash;
lastChange = "2021-05-18 00:21:18 +0000";
layers = (
{
background = {
paths = (
{
closed = 1;
nodes = (
"250 -7 OFFCURVE",
"266 62 OFFCURVE",
"274 124 CURVE",
"309 372 LINE",
"318 434 OFFCURVE",
"322 503 OFFCURVE",
"209 503 CURVE",
"95 503 OFFCURVE",
"79 434 OFFCURVE",
"70 372 CURVE",
"35 124 LINE",
"27 62 OFFCURVE",
"23 -7 OFFCURVE",
"137 -7 CURVE"
);
},
{
closed = 1;
nodes = (
"44 9 OFFCURVE",
"48 72 OFFCURVE",
"56 131 CURVE",
"89 367 LINE",
"97 424 OFFCURVE",
"111 487 OFFCURVE",
"206 487 CURVE",
"300 487 OFFCURVE",
"296 424 OFFCURVE",
"288 367 CURVE",
"255 131 LINE",
"247 72 OFFCURVE",
"233 9 OFFCURVE",
"139 9 CURVE"
);
},
{
closed = 1;
nodes = (
"-15 -46 LINE",
"347 495 LINE",
"324 495 LINE",
"-37 -46 LINE"
);
}
);
};
hints = (
{
horizontal = 1;
place = "{-78, 645}";
type = Stem;
},
{
place = "{18, 328}";
type = Stem;
}
);
layerId = "82B1C968-1149-4E0D-B361-F2F5D539D913";
paths = (
{
closed = 1;
nodes = (
"-15 -46 LINE",
"347 495 LINE",
"324 495 LINE",
"-37 -46 LINE"
);
},
{
closed = 1;
nodes = (
"250 -7 OFFCURVE",
"266 62 OFFCURVE",
"274 124 CURVE SMOOTH",
"309 372 LINE SMOOTH",
"318 434 OFFCURVE",
"322 503 OFFCURVE",
"209 503 CURVE SMOOTH",
"95 503 OFFCURVE",
"79 434 OFFCURVE",
"70 372 CURVE SMOOTH",
"35 124 LINE SMOOTH",
"27 62 OFFCURVE",
"23 -7 OFFCURVE",
"137 -7 CURVE SMOOTH"
);
},
{
closed = 1;
nodes = (
"44 9 OFFCURVE",
"48 72 OFFCURVE",
"56 131 CURVE SMOOTH",
"89 367 LINE SMOOTH",
"97 424 OFFCURVE",
"111 487 OFFCURVE",
"206 487 CURVE SMOOTH",
"300 487 OFFCURVE",
"296 424 OFFCURVE",
"288 367 CURVE SMOOTH",
"255 131 LINE SMOOTH",
"247 72 OFFCURVE",
"233 9 OFFCURVE",
"139 9 CURVE SMOOTH"
);
}
);
width = 339;
},
{
background = {
paths = (
{
closed = 1;
nodes = (
"269 -12 OFFCURVE",
"339 7 OFFCURVE",
"362 167 CURVE",
"391 373 LINE",
"405 472 OFFCURVE",
"347 503 OFFCURVE",
"236 503 CURVE",
"125 503 OFFCURVE",
"59 472 OFFCURVE",
"45 373 CURVE",
"16 166 LINE",
"-7 7 OFFCURVE",
"57 -12 OFFCURVE",
"163 -12 CURVE"
);
},
{
closed = 1;
nodes = (
"165 68 OFFCURVE",
"159 75 OFFCURVE",
"162 98 CURVE",
"203 393 LINE",
"207 416 OFFCURVE",
"215 423 OFFCURVE",
"225 423 CURVE",
"235 423 OFFCURVE",
"241 416 OFFCURVE",
"237 393 CURVE",
"196 98 LINE",
"193 75 OFFCURVE",
"185 68 OFFCURVE",
"175 68 CURVE"
);
},
{
closed = 1;
nodes = (
"48 -44 LINE",
"388 511 LINE",
"330 511 LINE",
"-9 -44 LINE"
);
}
);
};
layerId = "8A3706BD-364F-4FE3-9C2E-7E87DF0DB4CC";
paths = (
{
closed = 1;
nodes = (
"48 -44 LINE",
"388 511 LINE",
"330 511 LINE",
"-9 -44 LINE"
);
},
{
closed = 1;
nodes = (
"269 -12 OFFCURVE",
"339 7 OFFCURVE",
"362 167 CURVE SMOOTH",
"391 373 LINE SMOOTH",
"405 472 OFFCURVE",
"347 503 OFFCURVE",
"236 503 CURVE SMOOTH",
"125 503 OFFCURVE",
"59 472 OFFCURVE",
"45 373 CURVE SMOOTH",
"16 166 LINE SMOOTH",
"-7 7 OFFCURVE",
"57 -12 OFFCURVE",
"163 -12 CURVE SMOOTH"
);
},
{
closed = 1;
nodes = (
"165 68 OFFCURVE",
"159 75 OFFCURVE",
"162 98 CURVE SMOOTH",
"203 393 LINE SMOOTH",
"207 416 OFFCURVE",
"215 423 OFFCURVE",
"225 423 CURVE SMOOTH",
"235 423 OFFCURVE",
"241 416 OFFCURVE",
"237 393 CURVE SMOOTH",
"196 98 LINE SMOOTH",
"193 75 OFFCURVE",
"185 68 OFFCURVE",
"175 68 CURVE SMOOTH"
);
}
);
width = 396;
}
);
unicode = 00F8;
},
{
glyphname = oe;
lastChange = "2021-05-18 00:21:22 +0000";
layers = (
{
background = {
paths = (
{
closed = 1;
nodes = (
"247 -7 OFFCURVE",
"263 62 OFFCURVE",
"272 124 CURVE",
"306 372 LINE",
"315 434 OFFCURVE",
"319 503 OFFCURVE",
"206 503 CURVE",
"92 503 OFFCURVE",
"76 434 OFFCURVE",
"67 372 CURVE",
"33 124 LINE",
"24 62 OFFCURVE",
"20 -7 OFFCURVE",
"134 -7 CURVE"
);
},
{
closed = 1;
nodes = (
"41 9 OFFCURVE",
"45 72 OFFCURVE",
"54 131 CURVE",
"87 367 LINE",
"95 424 OFFCURVE",
"109 487 OFFCURVE",
"204 487 CURVE",
"298 487 OFFCURVE",
"294 424 OFFCURVE",
"286 367 CURVE",
"253 131 LINE",
"244 72 OFFCURVE",
"230 9 OFFCURVE",
"136 9 CURVE"
);
},
{
closed = 1;
nodes = (
"476 120 LINE",
"464 38 OFFCURVE",
"441 9 OFFCURVE",
"361 9 CURVE",
"281 9 OFFCURVE",
"267 38 OFFCURVE",
"279 120 CURVE",
"299 263 LINE",
"516 263 LINE",
"533 385 LINE",
"546 477 OFFCURVE",
"521 505 OFFCURVE",
"432 505 CURVE",
"342 505 OFFCURVE",
"309 477 OFFCURVE",
"296 385 CURVE",
"259 120 LINE",
"245 19 OFFCURVE",
"270 -9 OFFCURVE",
"360 -9 CURVE",
"450 -9 OFFCURVE",
"482 19 OFFCURVE",
"496 120 CURVE",
"503 172 LINE",
"483 172 LINE"
);
},
{
closed = 1;
nodes = (
"326 457 OFFCURVE",
"350 489 OFFCURVE",
"430 489 CURVE",
"510 489 OFFCURVE",
"523 457 OFFCURVE",
"513 384 CURVE",
"498 280 LINE",
"301 280 LINE",
"316 384 LINE"
);
}
);
};
layerId = "82B1C968-1149-4E0D-B361-F2F5D539D913";
paths = (
{
closed = 1;
nodes = (
"450 -9 OFFCURVE",
"482 19 OFFCURVE",
"496 120 CURVE SMOOTH",
"503 172 LINE",
"483 172 LINE",
"476 120 LINE SMOOTH",
"464 38 OFFCURVE",
"441 9 OFFCURVE",
"361 9 CURVE SMOOTH",
"281 9 OFFCURVE",
"267 38 OFFCURVE",
"279 120 CURVE SMOOTH",
"299 263 LINE",
"516 263 LINE",
"533 385 LINE SMOOTH",
"546 477 OFFCURVE",
"521 505 OFFCURVE",
"432 505 CURVE SMOOTH",
"342 505 OFFCURVE",
"309 477 OFFCURVE",
"296 385 CURVE SMOOTH",
"259 120 LINE SMOOTH",
"245 19 OFFCURVE",
"270 -9 OFFCURVE",
"360 -9 CURVE SMOOTH"
);
},
{
closed = 1;
nodes = (
"247 -7 OFFCURVE",
"263 62 OFFCURVE",
"272 124 CURVE SMOOTH",
"306 372 LINE SMOOTH",
"315 434 OFFCURVE",
"319 503 OFFCURVE",
"206 503 CURVE SMOOTH",
"92 503 OFFCURVE",
"76 434 OFFCURVE",
"67 372 CURVE SMOOTH",
"33 124 LINE SMOOTH",
"24 62 OFFCURVE",
"20 -7 OFFCURVE",
"134 -7 CURVE SMOOTH"
);
},
{
closed = 1;
nodes = (
"41 9 OFFCURVE",
"45 72 OFFCURVE",
"54 131 CURVE SMOOTH",
"87 367 LINE SMOOTH",
"95 424 OFFCURVE",
"109 487 OFFCURVE",
"204 487 CURVE SMOOTH",
"298 487 OFFCURVE",
"294 424 OFFCURVE",
"286 367 CURVE SMOOTH",
"253 131 LINE SMOOTH",
"244 72 OFFCURVE",
"230 9 OFFCURVE",
"136 9 CURVE SMOOTH"
);
},
{
closed = 1;
nodes = (
"316 384 LINE SMOOTH",
"326 457 OFFCURVE",
"350 489 OFFCURVE",
"430 489 CURVE SMOOTH",
"510 489 OFFCURVE",
"523 457 OFFCURVE",
"513 384 CURVE SMOOTH",
"498 280 LINE",
"301 280 LINE"
);
}
);
width = 564;
},
{
background = {
paths = (
{
closed = 1;
nodes = (
"268 -12 OFFCURVE",
"337 7 OFFCURVE",
"360 167 CURVE",
"389 373 LINE",
"403 472 OFFCURVE",
"345 503 OFFCURVE",
"234 503 CURVE",
"123 503 OFFCURVE",
"57 472 OFFCURVE",
"43 373 CURVE",
"14 166 LINE",
"-9 7 OFFCURVE",
"56 -12 OFFCURVE",
"162 -12 CURVE"
);
},
{
closed = 1;
nodes = (
"163 68 OFFCURVE",
"157 75 OFFCURVE",
"160 98 CURVE",
"202 393 LINE",
"205 416 OFFCURVE",
"213 423 OFFCURVE",
"223 423 CURVE",
"233 423 OFFCURVE",
"239 416 OFFCURVE",
"236 393 CURVE",
"194 98 LINE",
"191 75 OFFCURVE",
"183 68 OFFCURVE",
"173 68 CURVE"
);
},
{
closed = 1;
nodes = (
"429 98 LINE",
"426 75 OFFCURVE",
"418 68 OFFCURVE",
"408 68 CURVE",
"398 68 OFFCURVE",
"392 75 OFFCURVE",
"395 98 CURVE",
"414 233 LINE",
"604 233 LINE",
"624 373 LINE",
"638 472 OFFCURVE",
"580 503 OFFCURVE",
"469 503 CURVE",
"358 503 OFFCURVE",
"292 472 OFFCURVE",
"278 373 CURVE",
"249 166 LINE",
"226 7 OFFCURVE",
"291 -12 OFFCURVE",
"397 -12 CURVE",
"503 -12 OFFCURVE",
"572 7 OFFCURVE",
"595 167 CURVE",
"598 188 LINE",
"442 188 LINE"
);
},
{
closed = 1;
nodes = (
"440 416 OFFCURVE",
"448 423 OFFCURVE",
"458 423 CURVE",
"468 423 OFFCURVE",
"474 416 OFFCURVE",
"471 393 CURVE",
"458 300 LINE",
"424 300 LINE",
"437 393 LINE"
);
}
);
};
layerId = "8A3706BD-364F-4FE3-9C2E-7E87DF0DB4CC";
paths = (
{
closed = 1;
nodes = (
"503 -12 OFFCURVE",
"572 7 OFFCURVE",
"595 167 CURVE SMOOTH",
"598 188 LINE",
"442 188 LINE",
"429 98 LINE SMOOTH",
"426 75 OFFCURVE",
"418 68 OFFCURVE",
"408 68 CURVE SMOOTH",
"398 68 OFFCURVE",
"392 75 OFFCURVE",
"395 98 CURVE SMOOTH",
"414 233 LINE",
"604 233 LINE",
"624 373 LINE SMOOTH",
"638 472 OFFCURVE",
"580 503 OFFCURVE",
"469 503 CURVE SMOOTH",
"358 503 OFFCURVE",
"292 472 OFFCURVE",
"278 373 CURVE SMOOTH",
"249 166 LINE SMOOTH",
"226 7 OFFCURVE",
"291 -12 OFFCURVE",
"397 -12 CURVE SMOOTH"
);
},
{
closed = 1;
nodes = (
"268 -12 OFFCURVE",
"337 7 OFFCURVE",
"360 167 CURVE SMOOTH",
"389 373 LINE SMOOTH",
"403 472 OFFCURVE",
"345 503 OFFCURVE",
"234 503 CURVE SMOOTH",
"123 503 OFFCURVE",
"57 472 OFFCURVE",
"43 373 CURVE SMOOTH",
"14 166 LINE SMOOTH",
"-9 7 OFFCURVE",
"56 -12 OFFCURVE",
"162 -12 CURVE SMOOTH"
);
},
{
closed = 1;
nodes = (
"163 68 OFFCURVE",
"157 75 OFFCURVE",
"160 98 CURVE SMOOTH",
"202 393 LINE SMOOTH",
"205 416 OFFCURVE",
"213 423 OFFCURVE",
"223 423 CURVE SMOOTH",
"233 423 OFFCURVE",
"239 416 OFFCURVE",
"236 393 CURVE SMOOTH",
"194 98 LINE SMOOTH",
"191 75 OFFCURVE",
"183 68 OFFCURVE",
"173 68 CURVE SMOOTH"
);
},
{
closed = 1;
nodes = (
"437 393 LINE SMOOTH",
"440 416 OFFCURVE",
"448 423 OFFCURVE",
"458 423 CURVE SMOOTH",
"468 423 OFFCURVE",
"474 416 OFFCURVE",
"471 393 CURVE SMOOTH",
"458 300 LINE",
"424 300 LINE"
);
}
);
width = 631;
}
);
unicode = 0153;
},
{
glyphname = p;
lastChange = "2021-05-18 00:21:18 +0000";
layers = (
{
background = {
paths = (
{
closed = 1;
nodes = (
"26 -116 LINE",
"47 34 LINE",
"58 10 OFFCURVE",
"87 -7 OFFCURVE",
"142 -7 CURVE",
"255 -7 OFFCURVE",
"271 62 OFFCURVE",
"279 124 CURVE",
"314 371 LINE",
"323 433 OFFCURVE",
"326 502 OFFCURVE",
"213 502 CURVE",
"147 502 OFFCURVE",
"120 479 OFFCURVE",
"103 448 CURVE",
"106 495 LINE",
"92 495 LINE",
"7 -116 LINE"
);
},
{
closed = 1;
nodes = (
"50 9 OFFCURVE",
"52 62 OFFCURVE",
"60 123 CURVE",
"90 333 LINE",
"99 400 OFFCURVE",
"107 487 OFFCURVE",
"211 487 CURVE",
"314 487 OFFCURVE",
"301 422 OFFCURVE",
"293 363 CURVE",
"261 133 LINE",
"252 74 OFFCURVE",
"247 9 OFFCURVE",
"144 9 CURVE"
);
}
);
};
layerId = "82B1C968-1149-4E0D-B361-F2F5D539D913";
paths = (
{
closed = 1;
nodes = (
"26 -116 LINE",
"47 34 LINE",
"58 10 OFFCURVE",
"87 -7 OFFCURVE",
"142 -7 CURVE SMOOTH",
"255 -7 OFFCURVE",
"271 62 OFFCURVE",
"279 124 CURVE SMOOTH",
"314 371 LINE SMOOTH",
"323 433 OFFCURVE",
"326 502 OFFCURVE",
"213 502 CURVE SMOOTH",
"147 502 OFFCURVE",
"120 479 OFFCURVE",
"103 448 CURVE",
"106 495 LINE",
"92 495 LINE",
"7 -116 LINE"
);
},
{
closed = 1;
nodes = (
"50 9 OFFCURVE",
"52 62 OFFCURVE",
"60 123 CURVE SMOOTH",
"90 333 LINE SMOOTH",
"99 400 OFFCURVE",
"107 487 OFFCURVE",
"211 487 CURVE SMOOTH",
"314 487 OFFCURVE",
"301 422 OFFCURVE",
"293 363 CURVE SMOOTH",
"261 133 LINE SMOOTH",
"252 74 OFFCURVE",
"247 9 OFFCURVE",
"144 9 CURVE SMOOTH"
);
}
);
width = 339;
},
{
background = {
paths = (
{
closed = 1;
nodes = (
"138 -116 LINE",
"159 36 LINE",
"169 14 OFFCURVE",
"188 -6 OFFCURVE",
"233 -6 CURVE",
"292 -6 OFFCURVE",
"347 21 OFFCURVE",
"365 154 CURVE",
"399 391 LINE",
"413 489 OFFCURVE",
"352 503 OFFCURVE",
"303 503 CURVE",
"253 503 OFFCURVE",
"233 479 OFFCURVE",
"218 460 CURVE",
"223 495 LINE",
"67 495 LINE",
"-18 -116 LINE"
);
},
{
closed = 1;
nodes = (
"172 80 OFFCURVE",
"166 87 OFFCURVE",
"169 110 CURVE",
"211 405 LINE",
"211 405 OFFCURVE",
"219 408 OFFCURVE",
"228 408 CURVE",
"238 408 OFFCURVE",
"244 401 OFFCURVE",
"241 378 CURVE",
"203 110 LINE",
"200 87 OFFCURVE",
"192 80 OFFCURVE",
"182 80 CURVE"
);
}
);
};
layerId = "8A3706BD-364F-4FE3-9C2E-7E87DF0DB4CC";
paths = (
{
closed = 1;
nodes = (
"138 -116 LINE",
"159 36 LINE",
"169 14 OFFCURVE",
"188 -6 OFFCURVE",
"233 -6 CURVE SMOOTH",
"292 -6 OFFCURVE",
"347 21 OFFCURVE",
"365 154 CURVE SMOOTH",
"399 391 LINE SMOOTH",
"413 489 OFFCURVE",
"352 503 OFFCURVE",
"303 503 CURVE SMOOTH",
"253 503 OFFCURVE",
"233 479 OFFCURVE",
"218 460 CURVE",
"223 495 LINE",
"67 495 LINE",
"-18 -116 LINE"
);
},
{
closed = 1;
nodes = (
"172 80 OFFCURVE",
"166 87 OFFCURVE",
"169 110 CURVE SMOOTH",
"211 405 LINE",
"211 405 OFFCURVE",
"219 408 OFFCURVE",
"228 408 CURVE SMOOTH",
"238 408 OFFCURVE",
"244 401 OFFCURVE",
"241 378 CURVE SMOOTH",
"203 110 LINE SMOOTH",
"200 87 OFFCURVE",
"192 80 OFFCURVE",
"182 80 CURVE SMOOTH"
);
}
);
width = 396;
}
);
unicode = 0070;
},
{
glyphname = thorn;
lastChange = "2021-05-18 00:21:14 +0000";
layers = (
{
background = {
paths = (
{
closed = 1;
nodes = (
"17 -116 LINE",
"45 87 LINE",
"46 75 OFFCURVE",
"50 59 OFFCURVE",
"57 48 CURVE",
"77 3 OFFCURVE",
"120 -7 OFFCURVE",
"171 -7 CURVE SMOOTH",
"232 -7 OFFCURVE",
"304 7 OFFCURVE",
"325 155 CURVE SMOOTH",
"354 366 LINE SMOOTH",
"371 485 OFFCURVE",
"310 505 OFFCURVE",
"234 505 CURVE SMOOTH",
"194 505 OFFCURVE",
"123 489 OFFCURVE",
"92 420 CURVE",
"121 630 LINE",
"102 630 LINE",
"-2 -116 LINE"
);
},
{
closed = 1;
nodes = (
"50 9 OFFCURVE",
"50 121 OFFCURVE",
"58 181 CURVE SMOOTH",
"78 324 LINE SMOOTH",
"82 351 OFFCURVE",
"92 399 OFFCURVE",
"121 437 CURVE SMOOTH",
"144 467 OFFCURVE",
"180 490 OFFCURVE",
"234 490 CURVE SMOOTH",
"334 490 OFFCURVE",
"345 435 OFFCURVE",
"334 356 CURVE SMOOTH",
"307 162 LINE SMOOTH",
"292 60 OFFCURVE",
"248 9 OFFCURVE",
"173 9 CURVE SMOOTH"
);
}
);
};
hints = (
{
horizontal = 1;
place = "{-152, 21}";
target = up;
type = BottomGhost;
},
{
horizontal = 1;
place = "{-43, -20}";
type = Stem;
},
{
horizontal = 1;
place = "{454, -21}";
type = Stem;
},
{
place = "{14, -17}";
type = Stem;
},
{
place = "{284, -17}";
type = Stem;
}
);
layerId = "82B1C968-1149-4E0D-B361-F2F5D539D913";
paths = (
{
closed = 1;
nodes = (
"17 -116 LINE",
"45 87 LINE",
"46 75 OFFCURVE",
"50 59 OFFCURVE",
"57 48 CURVE",
"77 3 OFFCURVE",
"120 -7 OFFCURVE",
"171 -7 CURVE SMOOTH",
"232 -7 OFFCURVE",
"304 7 OFFCURVE",
"325 155 CURVE SMOOTH",
"354 366 LINE SMOOTH",
"371 485 OFFCURVE",
"310 505 OFFCURVE",
"234 505 CURVE SMOOTH",
"194 505 OFFCURVE",
"123 489 OFFCURVE",
"92 420 CURVE",
"121 630 LINE",
"102 630 LINE",
"-2 -116 LINE"
);
},
{
closed = 1;
nodes = (
"50 9 OFFCURVE",
"50 121 OFFCURVE",
"58 181 CURVE SMOOTH",
"78 324 LINE SMOOTH",
"82 351 OFFCURVE",
"92 399 OFFCURVE",
"121 437 CURVE SMOOTH",
"144 467 OFFCURVE",
"180 490 OFFCURVE",
"234 490 CURVE SMOOTH",
"334 490 OFFCURVE",
"345 435 OFFCURVE",
"334 356 CURVE SMOOTH",
"307 162 LINE SMOOTH",
"292 60 OFFCURVE",
"248 9 OFFCURVE",
"173 9 CURVE SMOOTH"
);
}
);
width = 389;
},
{
background = {
paths = (
{
closed = 1;
nodes = (
"129 -116 LINE",
"150 36 LINE",
"154 25 OFFCURVE",
"162 14 OFFCURVE",
"173 7 CURVE SMOOTH",
"185 -1 OFFCURVE",
"201 -6 OFFCURVE",
"224 -6 CURVE SMOOTH",
"283 -6 OFFCURVE",
"338 22 OFFCURVE",
"357 154 CURVE SMOOTH",
"390 391 LINE SMOOTH",
"404 490 OFFCURVE",
"344 503 OFFCURVE",
"295 503 CURVE SMOOTH",
"245 503 OFFCURVE",
"223 479 OFFCURVE",
"210 460 CURVE",
"233 630 LINE",
"77 630 LINE",
"-27 -116 LINE"
);
},
{
closed = 1;
nodes = (
"162 80 OFFCURVE",
"157 87 OFFCURVE",
"160 110 CURVE SMOOTH",
"186 294 LINE SMOOTH",
"189 312 OFFCURVE",
"198 379 OFFCURVE",
"202 405 CURVE",
"210 408 OFFCURVE",
"216 408 OFFCURVE",
"220 408 CURVE SMOOTH",
"230 408 OFFCURVE",
"235 401 OFFCURVE",
"232 378 CURVE SMOOTH",
"194 110 LINE SMOOTH",
"191 87 OFFCURVE",
"184 80 OFFCURVE",
"173 80 CURVE SMOOTH"
);
}
);
};
layerId = "8A3706BD-364F-4FE3-9C2E-7E87DF0DB4CC";
paths = (
{
closed = 1;
nodes = (
"129 -116 LINE",
"150 36 LINE",
"154 25 OFFCURVE",
"162 14 OFFCURVE",
"173 7 CURVE SMOOTH",
"185 -1 OFFCURVE",
"201 -6 OFFCURVE",
"224 -6 CURVE SMOOTH",
"283 -6 OFFCURVE",
"338 22 OFFCURVE",
"357 154 CURVE SMOOTH",
"390 391 LINE SMOOTH",
"404 490 OFFCURVE",
"344 503 OFFCURVE",
"295 503 CURVE SMOOTH",
"245 503 OFFCURVE",
"223 479 OFFCURVE",
"210 460 CURVE",
"233 630 LINE",
"77 630 LINE",
"-27 -116 LINE"
);
},
{
closed = 1;
nodes = (
"162 80 OFFCURVE",
"157 87 OFFCURVE",
"160 110 CURVE SMOOTH",
"186 294 LINE SMOOTH",
"189 312 OFFCURVE",
"198 379 OFFCURVE",
"202 405 CURVE",
"210 408 OFFCURVE",
"216 408 OFFCURVE",
"220 408 CURVE SMOOTH",
"230 408 OFFCURVE",
"235 401 OFFCURVE",
"232 378 CURVE SMOOTH",
"194 110 LINE SMOOTH",
"191 87 OFFCURVE",
"184 80 OFFCURVE",
"173 80 CURVE SMOOTH"
);
}
);
width = 396;
}
);
note = thorn;
rightKerningGroup = a;
unicode = 00FE;
},
{
glyphname = q;
lastChange = "2021-05-18 00:21:18 +0000";
layers = (
{
background = {
paths = (
{
closed = 1;
nodes = (
"246 -116 LINE",
"331 495 LINE",
"317 495 LINE",
"305 452 LINE",
"299 477 OFFCURVE",
"278 502 OFFCURVE",
"212 502 CURVE",
"99 502 OFFCURVE",
"84 433 OFFCURVE",
"75 371 CURVE",
"40 121 LINE",
"31 59 OFFCURVE",
"27 -10 OFFCURVE",
"140 -10 CURVE",
"195 -10 OFFCURVE",
"235 23 OFFCURVE",
"251 60 CURVE",
"227 -116 LINE"
);
},
{
closed = 1;
nodes = (
"40 6 OFFCURVE",
"53 71 OFFCURVE",
"61 130 CURVE",
"94 363 LINE",
"102 422 OFFCURVE",
"107 487 OFFCURVE",
"210 487 CURVE",
"314 487 OFFCURVE",
"299 400 OFFCURVE",
"290 333 CURVE",
"262 137 LINE",
"258 107 OFFCURVE",
"237 6 OFFCURVE",
"143 6 CURVE"
);
}
);
};
layerId = "82B1C968-1149-4E0D-B361-F2F5D539D913";
paths = (
{
closed = 1;
nodes = (
"246 -116 LINE",
"331 495 LINE",
"317 495 LINE",
"305 452 LINE",
"299 477 OFFCURVE",
"278 502 OFFCURVE",
"212 502 CURVE SMOOTH",
"99 502 OFFCURVE",
"84 433 OFFCURVE",
"75 371 CURVE SMOOTH",
"40 121 LINE SMOOTH",
"31 59 OFFCURVE",
"27 -10 OFFCURVE",
"140 -10 CURVE SMOOTH",
"195 -10 OFFCURVE",
"235 23 OFFCURVE",
"251 60 CURVE",
"227 -116 LINE"
);
},
{
closed = 1;
nodes = (
"40 6 OFFCURVE",
"53 71 OFFCURVE",
"61 130 CURVE SMOOTH",
"94 363 LINE SMOOTH",
"102 422 OFFCURVE",
"107 487 OFFCURVE",
"210 487 CURVE SMOOTH",
"314 487 OFFCURVE",
"299 400 OFFCURVE",
"290 333 CURVE SMOOTH",
"262 137 LINE SMOOTH",
"258 107 OFFCURVE",
"237 6 OFFCURVE",
"143 6 CURVE SMOOTH"
);
}
);
width = 339;
},
{
background = {
paths = (
{
closed = 1;
nodes = (
"328 -116 LINE",
"414 495 LINE",
"258 495 LINE",
"253 460 LINE",
"243 479 OFFCURVE",
"226 500 OFFCURVE",
"173 500 CURVE",
"139 500 OFFCURVE",
"67 489 OFFCURVE",
"53 391 CURVE",
"20 154 LINE",
"-2 3 OFFCURVE",
"58 -7 OFFCURVE",
"104 -7 CURVE",
"154 -7 OFFCURVE",
"179 16 OFFCURVE",
"194 41 CURVE",
"172 -116 LINE"
);
},
{
closed = 1;
nodes = (
"172 80 OFFCURVE",
"166 87 OFFCURVE",
"169 110 CURVE",
"207 378 LINE",
"210 401 OFFCURVE",
"218 408 OFFCURVE",
"228 408 CURVE",
"237 408 OFFCURVE",
"245 405 OFFCURVE",
"245 405 CURVE",
"203 110 LINE",
"200 87 OFFCURVE",
"192 80 OFFCURVE",
"182 80 CURVE"
);
}
);
};
layerId = "8A3706BD-364F-4FE3-9C2E-7E87DF0DB4CC";
paths = (
{
closed = 1;
nodes = (
"328 -116 LINE",
"414 495 LINE",
"258 495 LINE",
"253 460 LINE",
"243 479 OFFCURVE",
"226 500 OFFCURVE",
"173 500 CURVE SMOOTH",
"139 500 OFFCURVE",
"67 489 OFFCURVE",
"53 391 CURVE SMOOTH",
"20 154 LINE SMOOTH",
"-2 3 OFFCURVE",
"58 -7 OFFCURVE",
"104 -7 CURVE SMOOTH",
"154 -7 OFFCURVE",
"179 16 OFFCURVE",
"194 41 CURVE",
"172 -116 LINE"
);
},
{
closed = 1;
nodes = (
"172 80 OFFCURVE",
"166 87 OFFCURVE",
"169 110 CURVE SMOOTH",
"207 378 LINE SMOOTH",
"210 401 OFFCURVE",
"218 408 OFFCURVE",
"228 408 CURVE SMOOTH",
"237 408 OFFCURVE",
"245 405 OFFCURVE",
"245 405 CURVE",
"203 110 LINE SMOOTH",
"200 87 OFFCURVE",
"192 80 OFFCURVE",
"182 80 CURVE SMOOTH"
);
}
);
width = 396;
}
);
unicode = 0071;
},
{
glyphname = r;
lastChange = "2021-05-18 00:21:22 +0000";
layers = (
{
background = {
paths = (
{
closed = 1;
nodes = (
"256 499 LINE",
"252 500 OFFCURVE",
"242 500 OFFCURVE",
"237 500 CURVE SMOOTH",
"148 500 OFFCURVE",
"93 343 OFFCURVE",
"80 295 CURVE",
"109 495 LINE",
"89 495 LINE",
"20 0 LINE",
"40 0 LINE",
"62 153 LINE SMOOTH",
"78 266 OFFCURVE",
"148 485 OFFCURVE",
"237 485 CURVE SMOOTH",
"244 485 OFFCURVE",
"250 485 OFFCURVE",
"253 484 CURVE"
);
}
);
};
layerId = "82B1C968-1149-4E0D-B361-F2F5D539D913";
paths = (
{
closed = 1;
nodes = (
"40 0 LINE",
"62 153 LINE SMOOTH",
"78 266 OFFCURVE",
"148 485 OFFCURVE",
"237 485 CURVE SMOOTH",
"244 485 OFFCURVE",
"250 485 OFFCURVE",
"253 484 CURVE",
"256 499 LINE",
"252 500 OFFCURVE",
"242 500 OFFCURVE",
"237 500 CURVE SMOOTH",
"148 500 OFFCURVE",
"93 343 OFFCURVE",
"80 295 CURVE",
"109 495 LINE",
"89 495 LINE",
"20 0 LINE"
);
}
);
width = 246;
},
{
background = {
paths = (
{
closed = 1;
nodes = (
"382 499 LINE",
"378 500 OFFCURVE",
"368 500 OFFCURVE",
"363 500 CURVE SMOOTH",
"274 500 OFFCURVE",
"230 396 OFFCURVE",
"211 326 CURVE",
"235 495 LINE",
"81 495 LINE",
"12 0 LINE",
"166 0 LINE",
"181 101 LINE SMOOTH",
"199 221 OFFCURVE",
"267 347 OFFCURVE",
"347 355 CURVE SMOOTH",
"354 356 OFFCURVE",
"360 355 OFFCURVE",
"363 354 CURVE"
);
}
);
};
layerId = "8A3706BD-364F-4FE3-9C2E-7E87DF0DB4CC";
paths = (
{
closed = 1;
nodes = (
"166 0 LINE",
"181 101 LINE SMOOTH",
"199 221 OFFCURVE",
"267 347 OFFCURVE",
"347 355 CURVE SMOOTH",
"354 356 OFFCURVE",
"360 355 OFFCURVE",
"363 354 CURVE",
"382 499 LINE",
"378 500 OFFCURVE",
"368 500 OFFCURVE",
"363 500 CURVE SMOOTH",
"274 500 OFFCURVE",
"230 396 OFFCURVE",
"211 326 CURVE",
"235 495 LINE",
"81 495 LINE",
"12 0 LINE"
);
}
);
width = 352;
}
);
unicode = 0072;
},
{
glyphname = s;
lastChange = "2021-05-18 00:21:22 +0000";
layers = (
{
background = {
paths = (
{
closed = 1;
nodes = (
"33 126 LINE",
"24 66 OFFCURVE",
"11 -6 OFFCURVE",
"134 -6 CURVE",
"240 -6 OFFCURVE",
"260 59 OFFCURVE",
"268 111 CURVE",
"270 128 LINE",
"282 214 OFFCURVE",
"246 234 OFFCURVE",
"187 260 CURVE",
"115 292 OFFCURVE",
"86 316 OFFCURVE",
"95 380 CURVE",
"98 399 LINE",
"105 449 OFFCURVE",
"131 488 OFFCURVE",
"206 488 CURVE",
"269 488 OFFCURVE",
"297 464 OFFCURVE",
"285 380 CURVE",
"279 337 LINE",
"299 337 LINE",
"306 384 LINE",
"319 474 OFFCURVE",
"285 505 OFFCURVE",
"208 505 CURVE",
"127 505 OFFCURVE",
"87 465 OFFCURVE",
"79 406 CURVE",
"75 375 LINE",
"65 303 OFFCURVE",
"105 274 OFFCURVE",
"175 245 CURVE",
"240 219 OFFCURVE",
"258 183 OFFCURVE",
"251 134 CURVE",
"248 114 LINE",
"242 72 OFFCURVE",
"229 11 OFFCURVE",
"136 11 CURVE",
"33 11 OFFCURVE",
"44 67 OFFCURVE",
"53 129 CURVE",
"58 166 LINE",
"38 166 LINE"
);
}
);
};
layerId = "82B1C968-1149-4E0D-B361-F2F5D539D913";
paths = (
{
closed = 1;
nodes = (
"240 -6 OFFCURVE",
"260 59 OFFCURVE",
"268 111 CURVE SMOOTH",
"270 128 LINE SMOOTH",
"282 214 OFFCURVE",
"246 234 OFFCURVE",
"187 260 CURVE SMOOTH",
"115 292 OFFCURVE",
"86 316 OFFCURVE",
"95 380 CURVE SMOOTH",
"98 399 LINE SMOOTH",
"105 449 OFFCURVE",
"131 488 OFFCURVE",
"206 488 CURVE SMOOTH",
"269 488 OFFCURVE",
"297 464 OFFCURVE",
"285 380 CURVE SMOOTH",
"279 337 LINE",
"299 337 LINE",
"306 384 LINE SMOOTH",
"319 474 OFFCURVE",
"285 505 OFFCURVE",
"208 505 CURVE SMOOTH",
"127 505 OFFCURVE",
"87 465 OFFCURVE",
"79 406 CURVE SMOOTH",
"75 375 LINE SMOOTH",
"65 303 OFFCURVE",
"105 274 OFFCURVE",
"175 245 CURVE SMOOTH",
"240 219 OFFCURVE",
"258 183 OFFCURVE",
"251 134 CURVE SMOOTH",
"248 114 LINE SMOOTH",
"242 72 OFFCURVE",
"229 11 OFFCURVE",
"136 11 CURVE SMOOTH",
"33 11 OFFCURVE",
"44 67 OFFCURVE",
"53 129 CURVE SMOOTH",
"58 166 LINE",
"38 166 LINE",
"33 126 LINE SMOOTH",
"24 66 OFFCURVE",
"11 -6 OFFCURVE",
"134 -6 CURVE SMOOTH"
);
}
);
width = 337;
},
{
background = {
paths = (
{
closed = 1;
nodes = (
"8 144 LINE",
"-7 39 OFFCURVE",
"22 -14 OFFCURVE",
"162 -14 CURVE",
"302 -14 OFFCURVE",
"350 35 OFFCURVE",
"364 134 CURVE",
"369 170 LINE",
"379 240 OFFCURVE",
"334 267 OFFCURVE",
"289 284 CURVE",
"254 297 OFFCURVE",
"203 303 OFFCURVE",
"210 350 CURVE",
"216 397 LINE",
"218 412 OFFCURVE",
"223 423 OFFCURVE",
"237 423 CURVE",
"251 423 OFFCURVE",
"252 410 OFFCURVE",
"248 384 CURVE",
"240 321 LINE",
"391 321 LINE",
"395 353 LINE",
"409 454 OFFCURVE",
"382 505 OFFCURVE",
"247 505 CURVE",
"112 505 OFFCURVE",
"65 458 OFFCURVE",
"52 363 CURVE",
"48 335 LINE",
"37 260 OFFCURVE",
"83 232 OFFCURVE",
"126 215 CURVE",
"171 195 OFFCURVE",
"205 191 OFFCURVE",
"198 141 CURVE",
"192 95 LINE",
"190 80 OFFCURVE",
"184 68 OFFCURVE",
"171 68 CURVE",
"156 68 OFFCURVE",
"156 82 OFFCURVE",
"160 109 CURVE",
"170 178 LINE",
"13 178 LINE"
);
}
);
};
layerId = "8A3706BD-364F-4FE3-9C2E-7E87DF0DB4CC";
paths = (
{
closed = 1;
nodes = (
"302 -14 OFFCURVE",
"350 35 OFFCURVE",
"364 134 CURVE SMOOTH",
"369 170 LINE SMOOTH",
"379 240 OFFCURVE",
"334 267 OFFCURVE",
"289 284 CURVE SMOOTH",
"254 297 OFFCURVE",
"203 303 OFFCURVE",
"210 350 CURVE SMOOTH",
"216 397 LINE SMOOTH",
"218 412 OFFCURVE",
"223 423 OFFCURVE",
"237 423 CURVE SMOOTH",
"251 423 OFFCURVE",
"252 410 OFFCURVE",
"248 384 CURVE SMOOTH",
"240 321 LINE",
"391 321 LINE",
"395 353 LINE SMOOTH",
"409 454 OFFCURVE",
"382 505 OFFCURVE",
"247 505 CURVE SMOOTH",
"112 505 OFFCURVE",
"65 458 OFFCURVE",
"52 363 CURVE SMOOTH",
"48 335 LINE SMOOTH",
"37 260 OFFCURVE",
"83 232 OFFCURVE",
"126 215 CURVE SMOOTH",
"171 195 OFFCURVE",
"205 191 OFFCURVE",
"198 141 CURVE SMOOTH",
"192 95 LINE SMOOTH",
"190 80 OFFCURVE",
"184 68 OFFCURVE",
"171 68 CURVE SMOOTH",
"156 68 OFFCURVE",
"156 82 OFFCURVE",
"160 109 CURVE SMOOTH",
"170 178 LINE",
"13 178 LINE",
"8 144 LINE SMOOTH",
"-7 39 OFFCURVE",
"22 -14 OFFCURVE",
"162 -14 CURVE SMOOTH"
);
}
);
width = 402;
}
);
unicode = 0073;
},
{
glyphname = germandbls;
lastChange = "2021-05-18 00:21:22 +0000";
layers = (
{
background = {
paths = (
{
closed = 1;
nodes = (
"-79 -145 OFFCURVE",
"-55 -147 OFFCURVE",
"-40 -147 CURVE SMOOTH",
"16 -147 OFFCURVE",
"40 -114 OFFCURVE",
"48 -58 CURVE SMOOTH",
"130 529 LINE SMOOTH",
"136 567 OFFCURVE",
"152 615 OFFCURVE",
"240 615 CURVE SMOOTH",
"306 615 OFFCURVE",
"335 587 OFFCURVE",
"328 532 CURVE SMOOTH",
"316 445 LINE SMOOTH",
"307 386 OFFCURVE",
"284 348 OFFCURVE",
"217 348 CURVE SMOOTH",
"160 348 LINE",
"158 331 LINE",
"204 331 LINE SMOOTH",
"260 331 OFFCURVE",
"309 312 OFFCURVE",
"299 239 CURVE SMOOTH",
"283 125 LINE SMOOTH",
"270 33 OFFCURVE",
"229 17 OFFCURVE",
"173 17 CURVE SMOOTH",
"93 17 LINE",
"91 0 LINE",
"171 0 LINE SMOOTH",
"238 0 OFFCURVE",
"285 16 OFFCURVE",
"300 121 CURVE SMOOTH",
"317 244 LINE SMOOTH",
"326 303 OFFCURVE",
"297 334 OFFCURVE",
"269 338 CURVE",
"270 342 LINE",
"295 345 OFFCURVE",
"326 382 OFFCURVE",
"334 438 CURVE SMOOTH",
"347 533 LINE SMOOTH",
"357 606 OFFCURVE",
"319 631 OFFCURVE",
"243 631 CURVE SMOOTH",
"144 631 OFFCURVE",
"120 597 OFFCURVE",
"109 522 CURVE SMOOTH",
"106 495 LINE",
"75 495 LINE",
"72 477 LINE",
"103 477 LINE",
"27 -61 LINE SMOOTH",
"22 -100 OFFCURVE",
"5 -132 OFFCURVE",
"-44 -132 CURVE SMOOTH",
"-57 -132 OFFCURVE",
"-66 -131 OFFCURVE",
"-73 -130 CURVE SMOOTH",
"-78 -129 OFFCURVE",
"-82 -129 OFFCURVE",
"-87 -128 CURVE",
"-88 -133 OFFCURVE",
"-88 -138 OFFCURVE",
"-89 -143 CURVE"
);
}
);
};
layerId = "82B1C968-1149-4E0D-B361-F2F5D539D913";
paths = (
{
closed = 1;
nodes = (
"16 -147 OFFCURVE",
"40 -114 OFFCURVE",
"48 -58 CURVE SMOOTH",
"130 529 LINE SMOOTH",
"136 567 OFFCURVE",
"152 615 OFFCURVE",
"240 615 CURVE SMOOTH",
"306 615 OFFCURVE",
"335 587 OFFCURVE",
"328 532 CURVE SMOOTH",
"316 445 LINE SMOOTH",
"307 386 OFFCURVE",
"284 348 OFFCURVE",
"217 348 CURVE SMOOTH",
"160 348 LINE",
"158 331 LINE",
"204 331 LINE SMOOTH",
"260 331 OFFCURVE",
"309 312 OFFCURVE",
"299 239 CURVE SMOOTH",
"283 125 LINE SMOOTH",
"270 33 OFFCURVE",
"229 17 OFFCURVE",
"173 17 CURVE SMOOTH",
"93 17 LINE",
"91 0 LINE",
"171 0 LINE SMOOTH",
"238 0 OFFCURVE",
"285 16 OFFCURVE",
"300 121 CURVE SMOOTH",
"317 244 LINE SMOOTH",
"326 303 OFFCURVE",
"297 334 OFFCURVE",
"269 338 CURVE",
"270 342 LINE",
"295 345 OFFCURVE",
"326 382 OFFCURVE",
"334 438 CURVE SMOOTH",
"347 533 LINE SMOOTH",
"357 606 OFFCURVE",
"319 631 OFFCURVE",
"243 631 CURVE SMOOTH",
"144 631 OFFCURVE",
"120 597 OFFCURVE",
"109 522 CURVE SMOOTH",
"106 495 LINE",
"75 495 LINE",
"72 477 LINE",
"103 477 LINE",
"27 -61 LINE SMOOTH",
"22 -100 OFFCURVE",
"5 -132 OFFCURVE",
"-44 -132 CURVE SMOOTH",
"-57 -132 OFFCURVE",
"-66 -131 OFFCURVE",
"-73 -130 CURVE SMOOTH",
"-87 -128 LINE",
"-88 -133 OFFCURVE",
"-88 -138 OFFCURVE",
"-89 -143 CURVE",
"-79 -145 OFFCURVE",
"-55 -147 OFFCURVE",
"-40 -147 CURVE SMOOTH"
);
}
);
width = 342;
},
{
background = {
paths = (
{
closed = 1;
nodes = (
"-91 -145 OFFCURVE",
"-55 -147 OFFCURVE",
"-40 -147 CURVE SMOOTH",
"46 -147 OFFCURVE",
"163 -125 OFFCURVE",
"186 38 CURVE SMOOTH",
"250 498 LINE SMOOTH",
"255 536 OFFCURVE",
"265 558 OFFCURVE",
"302 558 CURVE SMOOTH",
"346 558 OFFCURVE",
"344 538 OFFCURVE",
"336 483 CURVE SMOOTH",
"329 435 LINE SMOOTH",
"324 396 OFFCURVE",
"316 373 OFFCURVE",
"294 373 CURVE SMOOTH",
"257 373 LINE",
"245 293 LINE",
"263 293 LINE SMOOTH",
"308 293 OFFCURVE",
"305 270 OFFCURVE",
"301 239 CURVE SMOOTH",
"293 186 LINE SMOOTH",
"280 94 OFFCURVE",
"275 78 OFFCURVE",
"238 78 CURVE SMOOTH",
"218 78 LINE",
"207 0 LINE",
"251 0 LINE SMOOTH",
"364 0 OFFCURVE",
"442 16 OFFCURVE",
"457 121 CURVE SMOOTH",
"474 244 LINE SMOOTH",
"483 303 OFFCURVE",
"432 334 OFFCURVE",
"384 338 CURVE",
"385 342 LINE",
"427 345 OFFCURVE",
"476 382 OFFCURVE",
"484 438 CURVE SMOOTH",
"497 533 LINE SMOOTH",
"507 606 OFFCURVE",
"440 631 OFFCURVE",
"311 631 CURVE SMOOTH",
"144 631 OFFCURVE",
"108 597 OFFCURVE",
"97 522 CURVE SMOOTH",
"94 495 LINE",
"51 495 LINE",
"36 389 LINE",
"79 389 LINE",
"26 12 LINE SMOOTH",
"20 -27 OFFCURVE",
"4 -59 OFFCURVE",
"-45 -59 CURVE SMOOTH",
"-58 -59 OFFCURVE",
"-68 -58 OFFCURVE",
"-75 -57 CURVE SMOOTH",
"-80 -56 OFFCURVE",
"-84 -56 OFFCURVE",
"-89 -55 CURVE",
"-89 -60 OFFCURVE",
"-100 -138 OFFCURVE",
"-101 -143 CURVE"
);
}
);
};
layerId = "8A3706BD-364F-4FE3-9C2E-7E87DF0DB4CC";
paths = (
{
closed = 1;
nodes = (
"46 -147 OFFCURVE",
"163 -125 OFFCURVE",
"186 38 CURVE SMOOTH",
"250 498 LINE SMOOTH",
"255 536 OFFCURVE",
"265 558 OFFCURVE",
"302 558 CURVE SMOOTH",
"346 558 OFFCURVE",
"344 538 OFFCURVE",
"336 483 CURVE SMOOTH",
"329 435 LINE SMOOTH",
"324 396 OFFCURVE",
"316 373 OFFCURVE",
"294 373 CURVE SMOOTH",
"257 373 LINE",
"245 293 LINE",
"263 293 LINE SMOOTH",
"308 293 OFFCURVE",
"305 270 OFFCURVE",
"301 239 CURVE SMOOTH",
"293 186 LINE SMOOTH",
"280 94 OFFCURVE",
"275 78 OFFCURVE",
"238 78 CURVE SMOOTH",
"218 78 LINE",
"207 0 LINE",
"251 0 LINE SMOOTH",
"364 0 OFFCURVE",
"442 16 OFFCURVE",
"457 121 CURVE SMOOTH",
"474 244 LINE SMOOTH",
"483 303 OFFCURVE",
"432 334 OFFCURVE",
"384 338 CURVE",
"385 342 LINE",
"427 345 OFFCURVE",
"476 382 OFFCURVE",
"484 438 CURVE SMOOTH",
"497 533 LINE SMOOTH",
"507 606 OFFCURVE",
"440 631 OFFCURVE",
"311 631 CURVE SMOOTH",
"144 631 OFFCURVE",
"108 597 OFFCURVE",
"97 522 CURVE SMOOTH",
"94 495 LINE",
"51 495 LINE",
"36 389 LINE",
"79 389 LINE",
"26 12 LINE SMOOTH",
"20 -27 OFFCURVE",
"4 -59 OFFCURVE",
"-45 -59 CURVE SMOOTH",
"-58 -59 OFFCURVE",
"-68 -58 OFFCURVE",
"-75 -57 CURVE SMOOTH",
"-89 -55 LINE",
"-89 -60 OFFCURVE",
"-100 -138 OFFCURVE",
"-101 -143 CURVE",
"-91 -145 OFFCURVE",
"-55 -147 OFFCURVE",
"-40 -147 CURVE SMOOTH"
);
}
);
width = 499;
}
);
unicode = 00DF;
},
{
glyphname = longs;
lastChange = "2021-05-18 00:21:14 +0000";
layers = (
{
background = {
paths = (
{
closed = 1;
nodes = (
"78 -147 OFFCURVE",
"105 -114 OFFCURVE",
"112 -58 CURVE SMOOTH",
"197 544 LINE SMOOTH",
"202 579 OFFCURVE",
"221 619 OFFCURVE",
"262 619 CURVE SMOOTH",
"299 619 OFFCURVE",
"324 614 OFFCURVE",
"351 609 CURVE",
"357 625 LINE",
"328 632 OFFCURVE",
"301 636 OFFCURVE",
"265 636 CURVE SMOOTH",
"213 636 OFFCURVE",
"186 603 OFFCURVE",
"179 547 CURVE SMOOTH",
"163 440 LINE",
"132 440 LINE",
"130 422 LINE",
"161 422 LINE",
"94 -55 LINE SMOOTH",
"89 -90 OFFCURVE",
"70 -130 OFFCURVE",
"29 -130 CURVE SMOOTH",
"12 -130 OFFCURVE",
"-4 -129 OFFCURVE",
"-19 -128 CURVE SMOOTH",
"-42 -125 LINE",
"-44 -143 LINE",
"-30 -146 OFFCURVE",
"1 -147 OFFCURVE",
"26 -147 CURVE SMOOTH"
);
}
);
};
layerId = "82B1C968-1149-4E0D-B361-F2F5D539D913";
paths = (
{
closed = 1;
nodes = (
"78 -147 OFFCURVE",
"105 -114 OFFCURVE",
"112 -58 CURVE SMOOTH",
"197 544 LINE SMOOTH",
"202 579 OFFCURVE",
"221 619 OFFCURVE",
"262 619 CURVE SMOOTH",
"299 619 OFFCURVE",
"324 614 OFFCURVE",
"351 609 CURVE",
"357 625 LINE",
"328 632 OFFCURVE",
"301 636 OFFCURVE",
"265 636 CURVE SMOOTH",
"213 636 OFFCURVE",
"186 603 OFFCURVE",
"179 547 CURVE SMOOTH",
"163 440 LINE",
"132 440 LINE",
"130 422 LINE",
"161 422 LINE",
"94 -55 LINE SMOOTH",
"89 -90 OFFCURVE",
"70 -130 OFFCURVE",
"29 -130 CURVE SMOOTH",
"12 -130 OFFCURVE",
"-4 -129 OFFCURVE",
"-19 -128 CURVE SMOOTH",
"-42 -125 LINE",
"-44 -143 LINE",
"-30 -146 OFFCURVE",
"1 -147 OFFCURVE",
"26 -147 CURVE SMOOTH"
);
}
);
width = 314;
},
{
background = {
paths = (
{
closed = 1;
nodes = (
"122 -135 OFFCURVE",
"194 -89 OFFCURVE",
"212 39 CURVE SMOOTH",
"276 490 LINE SMOOTH",
"278 510 OFFCURVE",
"287 540 OFFCURVE",
"310 540 CURVE SMOOTH",
"335 540 OFFCURVE",
"355 538 OFFCURVE",
"382 528 CURVE",
"407 616 LINE",
"379 623 OFFCURVE",
"344 630 OFFCURVE",
"310 630 CURVE SMOOTH",
"219 630 OFFCURVE",
"137 624 OFFCURVE",
"122 512 CURVE SMOOTH",
"112 440 LINE",
"69 440 LINE",
"56 350 LINE",
"99 350 LINE",
"46 -25 LINE",
"43 -34 OFFCURVE",
"36 -42 OFFCURVE",
"28 -48 CURVE SMOOTH",
"19 -55 OFFCURVE",
"8 -59 OFFCURVE",
"-2 -59 CURVE SMOOTH",
"-38 -59 LINE",
"-48 -136 LINE",
"-19 -142 OFFCURVE",
"12 -144 OFFCURVE",
"40 -142 CURVE SMOOTH"
);
}
);
};
layerId = "8A3706BD-364F-4FE3-9C2E-7E87DF0DB4CC";
paths = (
{
closed = 1;
nodes = (
"122 -135 OFFCURVE",
"194 -89 OFFCURVE",
"212 39 CURVE SMOOTH",
"276 490 LINE SMOOTH",
"278 510 OFFCURVE",
"287 540 OFFCURVE",
"310 540 CURVE SMOOTH",
"335 540 OFFCURVE",
"355 538 OFFCURVE",
"382 528 CURVE",
"407 616 LINE",
"379 623 OFFCURVE",
"344 630 OFFCURVE",
"310 630 CURVE SMOOTH",
"219 630 OFFCURVE",
"137 624 OFFCURVE",
"122 512 CURVE SMOOTH",
"112 440 LINE",
"69 440 LINE",
"56 350 LINE",
"99 350 LINE",
"46 -25 LINE",
"43 -34 OFFCURVE",
"36 -42 OFFCURVE",
"28 -48 CURVE SMOOTH",
"19 -55 OFFCURVE",
"8 -59 OFFCURVE",
"-2 -59 CURVE SMOOTH",
"-38 -59 LINE",
"-48 -136 LINE",
"-19 -142 OFFCURVE",
"12 -144 OFFCURVE",
"40 -142 CURVE SMOOTH"
);
}
);
width = 398;
}
);
unicode = 017F;
},
{
glyphname = t;
lastChange = "2021-05-18 00:21:18 +0000";
layers = (
{
background = {
paths = (
{
closed = 1;
nodes = (
"119 0 OFFCURVE",
"142 2 OFFCURVE",
"157 4 CURVE",
"160 21 LINE",
"145 20 OFFCURVE",
"123 18 OFFCURVE",
"103 18 CURVE",
"54 18 OFFCURVE",
"45 48 OFFCURVE",
"52 93 CURVE",
"106 478 LINE",
"224 478 LINE",
"226 495 LINE",
"108 495 LINE",
"121 589 LINE",
"109 589 LINE",
"89 495 LINE",
"47 490 LINE",
"46 478 LINE",
"87 478 LINE",
"32 89 LINE",
"24 33 OFFCURVE",
"39 0 OFFCURVE",
"94 0 CURVE"
);
}
);
};
layerId = "82B1C968-1149-4E0D-B361-F2F5D539D913";
paths = (
{
closed = 1;
nodes = (
"119 0 OFFCURVE",
"142 2 OFFCURVE",
"157 4 CURVE",
"160 21 LINE",
"145 20 OFFCURVE",
"123 18 OFFCURVE",
"103 18 CURVE SMOOTH",
"54 18 OFFCURVE",
"45 48 OFFCURVE",
"52 93 CURVE SMOOTH",
"106 478 LINE",
"224 478 LINE",
"226 495 LINE",
"108 495 LINE",
"121 589 LINE",
"109 589 LINE",
"89 495 LINE",
"47 490 LINE",
"46 478 LINE",
"87 478 LINE",
"32 89 LINE SMOOTH",
"24 33 OFFCURVE",
"39 0 OFFCURVE",
"94 0 CURVE SMOOTH"
);
}
);
width = 218;
},
{
background = {
paths = (
{
closed = 1;
nodes = (
"213 -5 OFFCURVE",
"260 9 OFFCURVE",
"260 9 CURVE",
"272 101 LINE",
"272 101 OFFCURVE",
"241 98 OFFCURVE",
"225 98 CURVE",
"193 98 OFFCURVE",
"191 122 OFFCURVE",
"194 142 CURVE",
"231 405 LINE",
"315 405 LINE",
"328 495 LINE",
"244 495 LINE",
"256 585 LINE",
"135 585 LINE",
"102 495 LINE",
"39 484 LINE",
"26 405 LINE",
"75 405 LINE",
"34 115 LINE",
"19 3 OFFCURVE",
"103 -5 OFFCURVE",
"168 -5 CURVE"
);
}
);
};
layerId = "8A3706BD-364F-4FE3-9C2E-7E87DF0DB4CC";
paths = (
{
closed = 1;
nodes = (
"213 -5 OFFCURVE",
"260 9 OFFCURVE",
"260 9 CURVE",
"272 101 LINE",
"272 101 OFFCURVE",
"241 98 OFFCURVE",
"225 98 CURVE SMOOTH",
"193 98 OFFCURVE",
"191 122 OFFCURVE",
"194 142 CURVE SMOOTH",
"231 405 LINE",
"315 405 LINE",
"328 495 LINE",
"244 495 LINE",
"256 585 LINE",
"135 585 LINE",
"102 495 LINE",
"39 484 LINE",
"26 405 LINE",
"75 405 LINE",
"34 115 LINE SMOOTH",
"19 3 OFFCURVE",
"103 -5 OFFCURVE",
"168 -5 CURVE SMOOTH"
);
}
);
width = 314;
}
);
unicode = 0074;
},
{
glyphname = u;
lastChange = "2021-05-18 00:21:18 +0000";
layers = (
{
background = {
paths = (
{
closed = 1;
nodes = (
"175 -8 OFFCURVE",
"221 4 OFFCURVE",
"243 49 CURVE",
"238 0 LINE",
"256 0 LINE",
"325 495 LINE",
"305 495 LINE",
"248 86 LINE",
"237 56 OFFCURVE",
"209 8 OFFCURVE",
"136 8 CURVE",
"33 8 OFFCURVE",
"46 73 OFFCURVE",
"54 132 CURVE",
"105 495 LINE",
"85 495 LINE",
"33 123 LINE",
"24 61 OFFCURVE",
"21 -8 OFFCURVE",
"134 -8 CURVE"
);
}
);
};
layerId = "82B1C968-1149-4E0D-B361-F2F5D539D913";
paths = (
{
closed = 1;
nodes = (
"175 -8 OFFCURVE",
"221 4 OFFCURVE",
"243 49 CURVE",
"238 0 LINE",
"256 0 LINE",
"325 495 LINE",
"305 495 LINE",
"248 86 LINE",
"237 56 OFFCURVE",
"209 8 OFFCURVE",
"136 8 CURVE SMOOTH",
"33 8 OFFCURVE",
"46 73 OFFCURVE",
"54 132 CURVE SMOOTH",
"105 495 LINE",
"85 495 LINE",
"33 123 LINE SMOOTH",
"24 61 OFFCURVE",
"21 -8 OFFCURVE",
"134 -8 CURVE SMOOTH"
);
}
);
width = 340;
},
{
background = {
paths = (
{
closed = 1;
nodes = (
"140 -7 OFFCURVE",
"180 24 OFFCURVE",
"198 65 CURVE",
"201 0 LINE",
"334 0 LINE",
"403 495 LINE",
"247 495 LINE",
"192 105 LINE",
"188 103 OFFCURVE",
"180 102 OFFCURVE",
"175 102 CURVE",
"164 102 OFFCURVE",
"159 112 OFFCURVE",
"162 130 CURVE",
"213 495 LINE",
"57 495 LINE",
"5 124 LINE",
"-7 38 OFFCURVE",
"9 -7 OFFCURVE",
"97 -7 CURVE"
);
}
);
};
layerId = "8A3706BD-364F-4FE3-9C2E-7E87DF0DB4CC";
paths = (
{
closed = 1;
nodes = (
"140 -7 OFFCURVE",
"180 24 OFFCURVE",
"198 65 CURVE",
"201 0 LINE",
"334 0 LINE",
"403 495 LINE",
"247 495 LINE",
"192 105 LINE",
"188 103 OFFCURVE",
"180 102 OFFCURVE",
"175 102 CURVE SMOOTH",
"164 102 OFFCURVE",
"159 112 OFFCURVE",
"162 130 CURVE SMOOTH",
"213 495 LINE",
"57 495 LINE",
"5 124 LINE SMOOTH",
"-7 38 OFFCURVE",
"9 -7 OFFCURVE",
"97 -7 CURVE SMOOTH"
);
}
);
width = 393;
}
);
unicode = 0075;
},
{
glyphname = v;
lastChange = "2021-05-18 00:21:22 +0000";
layers = (
{
background = {
paths = (
{
closed = 1;
nodes = (
"70 495 LINE",
"90 0 LINE",
"112 0 LINE",
"130 13 OFFCURVE",
"230 139 OFFCURVE",
"281 256 CURVE SMOOTH",
"316 337 OFFCURVE",
"333 441 OFFCURVE",
"303 495 CURVE",
"281 495 LINE",
"308 436 OFFCURVE",
"303 363 OFFCURVE",
"263 264 CURVE SMOOTH",
"220 157 OFFCURVE",
"122 35 OFFCURVE",
"110 26 CURVE",
"91 495 LINE"
);
}
);
};
layerId = "82B1C968-1149-4E0D-B361-F2F5D539D913";
paths = (
{
closed = 1;
nodes = (
"112 0 LINE",
"130 13 OFFCURVE",
"230 139 OFFCURVE",
"281 256 CURVE SMOOTH",
"316 337 OFFCURVE",
"333 441 OFFCURVE",
"303 495 CURVE",
"281 495 LINE",
"308 436 OFFCURVE",
"303 363 OFFCURVE",
"263 264 CURVE SMOOTH",
"220 157 OFFCURVE",
"122 35 OFFCURVE",
"110 26 CURVE",
"91 495 LINE",
"70 495 LINE",
"90 0 LINE"
);
}
);
width = 304;
},
{
background = {
paths = (
{
closed = 1;
nodes = (
"65 495 LINE",
"83 0 LINE",
"233 0 LINE",
"265 23 OFFCURVE",
"337 122 OFFCURVE",
"376 220 CURVE SMOOTH",
"415 318 OFFCURVE",
"426 459 OFFCURVE",
"406 495 CURVE",
"264 495 LINE",
"278 451 OFFCURVE",
"276 381 OFFCURVE",
"265 306 CURVE SMOOTH",
"251 214 OFFCURVE",
"219 146 OFFCURVE",
"213 146 CURVE",
"213 495 LINE"
);
}
);
};
layerId = "8A3706BD-364F-4FE3-9C2E-7E87DF0DB4CC";
paths = (
{
closed = 1;
nodes = (
"233 0 LINE",
"265 23 OFFCURVE",
"337 122 OFFCURVE",
"376 220 CURVE SMOOTH",
"415 318 OFFCURVE",
"426 459 OFFCURVE",
"406 495 CURVE",
"264 495 LINE",
"278 451 OFFCURVE",
"276 381 OFFCURVE",
"265 306 CURVE SMOOTH",
"251 214 OFFCURVE",
"219 146 OFFCURVE",
"213 146 CURVE",
"213 495 LINE",
"65 495 LINE",
"83 0 LINE"
);
}
);
width = 394;
}
);
unicode = 0076;
},
{
glyphname = w;
lastChange = "2021-05-18 00:21:22 +0000";
layers = (
{
background = {
paths = (
{
closed = 1;
nodes = (
"289 471 LINE",
"312 0 LINE",
"334 0 LINE",
"352 13 OFFCURVE",
"452 139 OFFCURVE",
"503 256 CURVE SMOOTH",
"538 337 OFFCURVE",
"555 441 OFFCURVE",
"525 495 CURVE",
"503 495 LINE",
"530 436 OFFCURVE",
"525 363 OFFCURVE",
"485 264 CURVE SMOOTH",
"442 157 OFFCURVE",
"344 35 OFFCURVE",
"332 26 CURVE",
"310 471 LINE"
);
},
{
closed = 1;
nodes = (
"68 495 LINE",
"47 495 LINE",
"67 0 LINE",
"89 0 LINE"
);
},
{
closed = 1;
nodes = (
"89 0 LINE",
"310 471 LINE",
"288 471 LINE",
"67 0 LINE"
);
}
);
};
layerId = "82B1C968-1149-4E0D-B361-F2F5D539D913";
paths = (
{
closed = 1;
nodes = (
"334 0 LINE",
"352 13 OFFCURVE",
"452 139 OFFCURVE",
"503 256 CURVE SMOOTH",
"538 337 OFFCURVE",
"555 441 OFFCURVE",
"525 495 CURVE",
"503 495 LINE",
"530 436 OFFCURVE",
"525 363 OFFCURVE",
"485 264 CURVE SMOOTH",
"442 157 OFFCURVE",
"344 35 OFFCURVE",
"332 26 CURVE",
"310 471 LINE",
"289 471 LINE",
"312 0 LINE"
);
},
{
closed = 1;
nodes = (
"89 0 LINE",
"68 495 LINE",
"47 495 LINE",
"67 0 LINE"
);
},
{
closed = 1;
nodes = (
"89 0 LINE",
"310 471 LINE",
"288 471 LINE",
"67 0 LINE"
);
}
);
width = 540;
},
{
background = {
paths = (
{
closed = 1;
nodes = (
"289 471 LINE",
"326 0 LINE",
"441 0 LINE",
"481 13 OFFCURVE",
"559 139 OFFCURVE",
"590 211 CURVE SMOOTH",
"645 337 OFFCURVE",
"648 459 OFFCURVE",
"632 495 CURVE",
"486 495 LINE",
"500 451 OFFCURVE",
"497 373 OFFCURVE",
"492 330 CURVE SMOOTH",
"486 279 OFFCURVE",
"460 233 OFFCURVE",
"438 224 CURVE",
"417 471 LINE"
);
},
{
closed = 1;
nodes = (
"187 495 LINE",
"47 495 LINE",
"67 0 LINE",
"208 0 LINE"
);
},
{
closed = 1;
nodes = (
"231 0 LINE",
"315 229 LINE",
"288 471 LINE",
"115 0 LINE"
);
}
);
};
layerId = "8A3706BD-364F-4FE3-9C2E-7E87DF0DB4CC";
paths = (
{
closed = 1;
nodes = (
"441 0 LINE",
"481 13 OFFCURVE",
"559 139 OFFCURVE",
"590 211 CURVE SMOOTH",
"645 337 OFFCURVE",
"648 459 OFFCURVE",
"632 495 CURVE",
"486 495 LINE",
"500 451 OFFCURVE",
"497 373 OFFCURVE",
"492 330 CURVE SMOOTH",
"486 279 OFFCURVE",
"460 233 OFFCURVE",
"438 224 CURVE",
"417 471 LINE",
"289 471 LINE",
"326 0 LINE"
);
},
{
closed = 1;
nodes = (
"208 0 LINE",
"187 495 LINE",
"47 495 LINE",
"67 0 LINE"
);
},
{
closed = 1;
nodes = (
"231 0 LINE",
"315 229 LINE",
"288 471 LINE",
"115 0 LINE"
);
}
);
width = 640;
}
);
unicode = 0077;
},
{
glyphname = x;
lastChange = "2021-05-18 00:21:14 +0000";
layers = (
{
background = {
paths = (
{
closed = 1;
nodes = (
"20 0 LINE",
"61 132 OFFCURVE",
"146 224 OFFCURVE",
"170 244 CURVE",
"200 220 OFFCURVE",
"247 92 OFFCURVE",
"245 0 CURVE",
"265 0 LINE",
"267 113 OFFCURVE",
"213 244 OFFCURVE",
"181 264 CURVE",
"211 283 OFFCURVE",
"298 409 OFFCURVE",
"319 495 CURVE",
"298 495 LINE",
"286 437 OFFCURVE",
"204 300 OFFCURVE",
"170 282 CURVE",
"133 312 OFFCURVE",
"101 417 OFFCURVE",
"105 495 CURVE",
"84 495 LINE",
"76 422 OFFCURVE",
"118 295 OFFCURVE",
"159 264 CURVE",
"124 236 OFFCURVE",
"24 101 OFFCURVE",
"0 0 CURVE"
);
}
);
};
layerId = "82B1C968-1149-4E0D-B361-F2F5D539D913";
paths = (
{
closed = 1;
nodes = (
"20 0 LINE",
"61 132 OFFCURVE",
"146 224 OFFCURVE",
"170 244 CURVE",
"200 220 OFFCURVE",
"247 92 OFFCURVE",
"245 0 CURVE",
"265 0 LINE",
"267 113 OFFCURVE",
"213 244 OFFCURVE",
"181 264 CURVE",
"211 283 OFFCURVE",
"298 409 OFFCURVE",
"319 495 CURVE",
"298 495 LINE",
"286 437 OFFCURVE",
"204 300 OFFCURVE",
"170 282 CURVE",
"133 312 OFFCURVE",
"101 417 OFFCURVE",
"105 495 CURVE",
"84 495 LINE",
"76 422 OFFCURVE",
"118 295 OFFCURVE",
"159 264 CURVE",
"124 236 OFFCURVE",
"24 101 OFFCURVE",
"0 0 CURVE"
);
}
);
width = 334;
},
{
background = {
paths = (
{
closed = 1;
nodes = (
"140 0 LINE",
"155 52 OFFCURVE",
"178 107 OFFCURVE",
"202 115 CURVE",
"230 102 OFFCURVE",
"220 36 OFFCURVE",
"223 0 CURVE",
"380 0 LINE",
"382 113 OFFCURVE",
"341 244 OFFCURVE",
"309 264 CURVE",
"339 283 OFFCURVE",
"429 409 OFFCURVE",
"450 495 CURVE",
"313 495 LINE",
"296 422 OFFCURVE",
"268 376 OFFCURVE",
"246 367 CURVE",
"221 382 OFFCURVE",
"204 455 OFFCURVE",
"207 495 CURVE",
"84 495 LINE",
"76 422 OFFCURVE",
"102 295 OFFCURVE",
"143 264 CURVE",
"108 236 OFFCURVE",
"24 101 OFFCURVE",
"0 0 CURVE"
);
}
);
};
layerId = "8A3706BD-364F-4FE3-9C2E-7E87DF0DB4CC";
paths = (
{
closed = 1;
nodes = (
"140 0 LINE",
"155 52 OFFCURVE",
"178 107 OFFCURVE",
"202 115 CURVE",
"230 102 OFFCURVE",
"220 36 OFFCURVE",
"223 0 CURVE",
"380 0 LINE",
"382 113 OFFCURVE",
"341 244 OFFCURVE",
"309 264 CURVE",
"339 283 OFFCURVE",
"429 409 OFFCURVE",
"450 495 CURVE",
"313 495 LINE",
"296 422 OFFCURVE",
"268 376 OFFCURVE",
"246 367 CURVE",
"221 382 OFFCURVE",
"204 455 OFFCURVE",
"207 495 CURVE",
"84 495 LINE",
"76 422 OFFCURVE",
"102 295 OFFCURVE",
"143 264 CURVE",
"108 236 OFFCURVE",
"24 101 OFFCURVE",
"0 0 CURVE"
);
}
);
width = 428;
}
);
unicode = 0078;
},
{
glyphname = y;
lastChange = "2021-05-18 00:21:22 +0000";
layers = (
{
background = {
paths = (
{
closed = 1;
nodes = (
"60 495 LINE",
"80 -56 LINE",
"102 -56 LINE",
"81 495 LINE"
);
},
{
closed = 1;
nodes = (
"121 -117 OFFCURVE",
"-71 -94 CURVE",
"-76 -112 LINE",
"-60 -117 OFFCURVE",
"-24 -117 OFFCURVE",
"-5 -113 CURVE SMOOTH",
"211 -65 OFFCURVE",
"297 219 OFFCURVE",
"317 381 CURVE SMOOTH",
"325 442 OFFCURVE",
"324 471 OFFCURVE",
"319 495 CURVE",
"296 495 LINE",
"300 479 OFFCURVE",
"302 426 OFFCURVE",
"293 365 CURVE SMOOTH",
"259 132 OFFCURVE"
);
}
);
};
layerId = "82B1C968-1149-4E0D-B361-F2F5D539D913";
paths = (
{
closed = 1;
nodes = (
"211 -65 OFFCURVE",
"297 219 OFFCURVE",
"317 381 CURVE SMOOTH",
"325 442 OFFCURVE",
"324 471 OFFCURVE",
"319 495 CURVE",
"296 495 LINE",
"300 479 OFFCURVE",
"302 426 OFFCURVE",
"293 365 CURVE SMOOTH",
"259 132 OFFCURVE",
"121 -117 OFFCURVE",
"-71 -94 CURVE",
"-76 -112 LINE",
"-60 -117 OFFCURVE",
"-24 -117 OFFCURVE",
"-5 -113 CURVE SMOOTH"
);
},
{
closed = 1;
nodes = (
"102 -56 LINE",
"81 495 LINE",
"60 495 LINE",
"80 -56 LINE"
);
}
);
width = 323;
},
{
background = {
paths = (
{
closed = 1;
nodes = (
"53 495 LINE",
"98 -33 LINE",
"226 80 LINE",
"213 495 LINE"
);
},
{
closed = 1;
nodes = (
"173 -53 OFFCURVE",
"-9 -21 CURVE",
"-20 -103 LINE",
"12 -113 OFFCURVE",
"67 -118 OFFCURVE",
"102 -118 CURVE SMOOTH",
"321 -118 OFFCURVE",
"426 219 OFFCURVE",
"444 410 CURVE SMOOTH",
"447 442 OFFCURVE",
"446 471 OFFCURVE",
"441 495 CURVE",
"290 495 LINE",
"297 465 OFFCURVE",
"297 426 OFFCURVE",
"280 279 CURVE SMOOTH",
"266 157 OFFCURVE"
);
}
);
};
layerId = "8A3706BD-364F-4FE3-9C2E-7E87DF0DB4CC";
paths = (
{
closed = 1;
nodes = (
"321 -118 OFFCURVE",
"426 219 OFFCURVE",
"444 410 CURVE SMOOTH",
"447 442 OFFCURVE",
"446 471 OFFCURVE",
"441 495 CURVE",
"290 495 LINE",
"297 465 OFFCURVE",
"297 426 OFFCURVE",
"280 279 CURVE SMOOTH",
"266 157 OFFCURVE",
"173 -53 OFFCURVE",
"-9 -21 CURVE",
"-20 -103 LINE",
"12 -113 OFFCURVE",
"67 -118 OFFCURVE",
"102 -118 CURVE SMOOTH"
);
},
{
closed = 1;
nodes = (
"226 80 LINE",
"213 495 LINE",
"53 495 LINE",
"98 -33 LINE"
);
}
);
width = 431;
}
);
unicode = 0079;
},
{
glyphname = z;
lastChange = "2021-05-18 00:21:14 +0000";
layers = (
{
background = {
paths = (
{
closed = 1;
nodes = (
"192 0 LINE",
"195 18 LINE",
"11 18 LINE",
"260 485 LINE",
"262 495 LINE",
"63 495 LINE",
"60 477 LINE",
"234 477 LINE",
"-13 10 LINE",
"-15 0 LINE"
);
}
);
};
layerId = "82B1C968-1149-4E0D-B361-F2F5D539D913";
paths = (
{
closed = 1;
nodes = (
"192 0 LINE",
"195 18 LINE",
"11 18 LINE",
"260 485 LINE",
"262 495 LINE",
"63 495 LINE",
"60 477 LINE",
"234 477 LINE",
"-13 10 LINE",
"-15 0 LINE"
);
}
);
width = 247;
},
{
background = {
paths = (
{
closed = 1;
nodes = (
"269 0 LINE",
"284 105 LINE",
"172 105 LINE",
"330 429 LINE",
"339 495 LINE",
"60 495 LINE",
"46 396 LINE",
"149 396 LINE",
"-16 60 LINE",
"-25 0 LINE"
);
}
);
};
layerId = "8A3706BD-364F-4FE3-9C2E-7E87DF0DB4CC";
paths = (
{
closed = 1;
nodes = (
"269 0 LINE",
"284 105 LINE",
"172 105 LINE",
"330 429 LINE",
"339 495 LINE",
"60 495 LINE",
"46 396 LINE",
"149 396 LINE",
"-16 60 LINE",
"-25 0 LINE"
);
}
);
width = 314;
}
);
unicode = 007A;
},
{
glyphname = f_f;
lastChange = "2021-05-18 00:21:22 +0000";
layers = (
{
background = {
paths = (
{
closed = 1;
nodes = (
"456 619 OFFCURVE",
"494 614 OFFCURVE",
"494 614 CURVE",
"496 632 LINE",
"481 634 OFFCURVE",
"451 636 OFFCURVE",
"426 636 CURVE SMOOTH",
"374 636 OFFCURVE",
"347 602 OFFCURVE",
"339 547 CURVE SMOOTH",
"329 476 LINE",
"112 476 LINE",
"122 544 LINE SMOOTH",
"127 579 OFFCURVE",
"145 619 OFFCURVE",
"186 619 CURVE SMOOTH",
"220 619 OFFCURVE",
"258 614 OFFCURVE",
"258 614 CURVE",
"260 632 LINE",
"245 634 OFFCURVE",
"215 636 OFFCURVE",
"190 636 CURVE SMOOTH",
"138 636 OFFCURVE",
"111 602 OFFCURVE",
"103 547 CURVE SMOOTH",
"93 476 LINE",
"62 476 LINE",
"60 459 LINE",
"91 459 LINE",
"26 0 LINE",
"45 0 LINE",
"110 459 LINE",
"327 459 LINE",
"262 0 LINE",
"281 0 LINE",
"346 459 LINE",
"472 459 LINE",
"474 476 LINE",
"348 476 LINE",
"358 544 LINE SMOOTH",
"363 579 OFFCURVE",
"381 619 OFFCURVE",
"422 619 CURVE SMOOTH"
);
}
);
};
layerId = "82B1C968-1149-4E0D-B361-F2F5D539D913";
paths = (
{
closed = 1;
nodes = (
"45 0 LINE",
"110 459 LINE",
"327 459 LINE",
"262 0 LINE",
"281 0 LINE",
"346 459 LINE",
"472 459 LINE",
"474 476 LINE",
"348 476 LINE",
"358 544 LINE SMOOTH",
"363 579 OFFCURVE",
"381 619 OFFCURVE",
"422 619 CURVE SMOOTH",
"456 619 OFFCURVE",
"494 614 OFFCURVE",
"494 614 CURVE",
"496 632 LINE",
"481 634 OFFCURVE",
"451 636 OFFCURVE",
"426 636 CURVE SMOOTH",
"374 636 OFFCURVE",
"347 602 OFFCURVE",
"339 547 CURVE SMOOTH",
"329 476 LINE",
"112 476 LINE",
"122 544 LINE SMOOTH",
"127 579 OFFCURVE",
"145 619 OFFCURVE",
"186 619 CURVE SMOOTH",
"220 619 OFFCURVE",
"258 614 OFFCURVE",
"258 614 CURVE",
"260 632 LINE",
"245 634 OFFCURVE",
"215 636 OFFCURVE",
"190 636 CURVE SMOOTH",
"138 636 OFFCURVE",
"111 602 OFFCURVE",
"103 547 CURVE SMOOTH",
"93 476 LINE",
"62 476 LINE",
"60 459 LINE",
"91 459 LINE",
"26 0 LINE"
);
}
);
width = 472;
},
{
background = {
paths = (
{
closed = 1;
nodes = (
"588 557 OFFCURVE",
"615 554 OFFCURVE",
"615 554 CURVE",
"624 624 LINE",
"615 624 OFFCURVE",
"558 630 OFFCURVE",
"513 630 CURVE SMOOTH",
"458 630 OFFCURVE",
"388 624 OFFCURVE",
"373 512 CURVE SMOOTH",
"368 476 LINE",
"226 476 LINE",
"231 513 LINE SMOOTH",
"234 533 OFFCURVE",
"242 557 OFFCURVE",
"264 557 CURVE SMOOTH",
"290 557 OFFCURVE",
"317 554 OFFCURVE",
"317 554 CURVE",
"326 624 LINE",
"317 624 OFFCURVE",
"260 630 OFFCURVE",
"215 630 CURVE SMOOTH",
"160 630 OFFCURVE",
"90 624 OFFCURVE",
"75 512 CURVE SMOOTH",
"70 476 LINE",
"38 476 LINE",
"25 389 LINE",
"57 389 LINE",
"3 0 LINE",
"159 0 LINE",
"213 389 LINE",
"355 389 LINE",
"301 0 LINE",
"457 0 LINE",
"511 389 LINE",
"591 389 LINE",
"604 476 LINE",
"524 476 LINE",
"529 513 LINE SMOOTH",
"532 533 OFFCURVE",
"540 557 OFFCURVE",
"562 557 CURVE SMOOTH"
);
}
);
};
layerId = "8A3706BD-364F-4FE3-9C2E-7E87DF0DB4CC";
paths = (
{
closed = 1;
nodes = (
"159 0 LINE",
"213 389 LINE",
"355 389 LINE",
"301 0 LINE",
"457 0 LINE",
"511 389 LINE",
"591 389 LINE",
"604 476 LINE",
"524 476 LINE",
"529 513 LINE SMOOTH",
"532 533 OFFCURVE",
"540 557 OFFCURVE",
"562 557 CURVE SMOOTH",
"588 557 OFFCURVE",
"615 554 OFFCURVE",
"615 554 CURVE",
"624 624 LINE",
"615 624 OFFCURVE",
"558 630 OFFCURVE",
"513 630 CURVE SMOOTH",
"458 630 OFFCURVE",
"388 624 OFFCURVE",
"373 512 CURVE SMOOTH",
"368 476 LINE",
"226 476 LINE",
"231 513 LINE SMOOTH",
"234 533 OFFCURVE",
"242 557 OFFCURVE",
"264 557 CURVE SMOOTH",
"290 557 OFFCURVE",
"317 554 OFFCURVE",
"317 554 CURVE",
"326 624 LINE",
"317 624 OFFCURVE",
"260 630 OFFCURVE",
"215 630 CURVE SMOOTH",
"160 630 OFFCURVE",
"90 624 OFFCURVE",
"75 512 CURVE SMOOTH",
"70 476 LINE",
"38 476 LINE",
"25 389 LINE",
"57 389 LINE",
"3 0 LINE"
);
}
);
width = 596;
}
);
leftMetricsKey = f;
rightMetricsKey = f;
},
{
glyphname = f_f_i;
lastChange = "2021-05-18 00:21:14 +0000";
layers = (
{
background = {
paths = (
{
closed = 1;
nodes = (
"45 0 LINE",
"110 459 LINE",
"327 459 LINE",
"262 0 LINE",
"281 0 LINE",
"346 459 LINE",
"558 459 LINE",
"493 0 LINE",
"512 0 LINE",
"579 476 LINE",
"348 476 LINE",
"358 544 LINE SMOOTH",
"363 579 OFFCURVE",
"381 619 OFFCURVE",
"457 619 CURVE SMOOTH",
"497 619 OFFCURVE",
"563 607 OFFCURVE",
"596 596 CURVE",
"599 614 LINE",
"542 636 OFFCURVE",
"486 636 OFFCURVE",
"460 636 CURVE SMOOTH",
"374 636 OFFCURVE",
"347 602 OFFCURVE",
"339 547 CURVE SMOOTH",
"329 476 LINE",
"112 476 LINE",
"122 544 LINE SMOOTH",
"127 579 OFFCURVE",
"145 619 OFFCURVE",
"186 619 CURVE SMOOTH",
"220 619 OFFCURVE",
"258 614 OFFCURVE",
"258 614 CURVE",
"260 632 LINE",
"245 634 OFFCURVE",
"215 636 OFFCURVE",
"190 636 CURVE SMOOTH",
"138 636 OFFCURVE",
"111 602 OFFCURVE",
"103 547 CURVE SMOOTH",
"93 476 LINE",
"62 476 LINE",
"60 459 LINE",
"91 459 LINE",
"26 0 LINE"
);
}
);
};
layerId = "82B1C968-1149-4E0D-B361-F2F5D539D913";
paths = (
{
closed = 1;
nodes = (
"45 0 LINE",
"110 459 LINE",
"327 459 LINE",
"262 0 LINE",
"281 0 LINE",
"346 459 LINE",
"558 459 LINE",
"493 0 LINE",
"512 0 LINE",
"579 476 LINE",
"348 476 LINE",
"358 544 LINE SMOOTH",
"363 579 OFFCURVE",
"381 619 OFFCURVE",
"457 619 CURVE SMOOTH",
"497 619 OFFCURVE",
"563 607 OFFCURVE",
"596 596 CURVE",
"599 614 LINE",
"542 636 OFFCURVE",
"486 636 OFFCURVE",
"460 636 CURVE SMOOTH",
"374 636 OFFCURVE",
"347 602 OFFCURVE",
"339 547 CURVE SMOOTH",
"329 476 LINE",
"112 476 LINE",
"122 544 LINE SMOOTH",
"127 579 OFFCURVE",
"145 619 OFFCURVE",
"186 619 CURVE SMOOTH",
"220 619 OFFCURVE",
"258 614 OFFCURVE",
"258 614 CURVE",
"260 632 LINE",
"245 634 OFFCURVE",
"215 636 OFFCURVE",
"190 636 CURVE SMOOTH",
"138 636 OFFCURVE",
"111 602 OFFCURVE",
"103 547 CURVE SMOOTH",
"93 476 LINE",
"62 476 LINE",
"60 459 LINE",
"91 459 LINE",
"26 0 LINE"
);
}
);
width = 617;
},
{
background = {
paths = (
{
closed = 1;
nodes = (
"159 0 LINE",
"213 389 LINE",
"355 389 LINE",
"301 0 LINE",
"457 0 LINE",
"511 389 LINE",
"636 389 LINE",
"582 0 LINE",
"738 0 LINE",
"805 476 LINE",
"524 476 LINE",
"529 513 LINE SMOOTH",
"532 533 OFFCURVE",
"540 557 OFFCURVE",
"589 557 CURVE SMOOTH",
"644 557 OFFCURVE",
"715 550 OFFCURVE",
"741 539 CURVE",
"751 609 LINE",
"696 630 OFFCURVE",
"616 630 OFFCURVE",
"584 630 CURVE SMOOTH",
"458 630 OFFCURVE",
"388 624 OFFCURVE",
"373 512 CURVE SMOOTH",
"368 476 LINE",
"226 476 LINE",
"231 513 LINE SMOOTH",
"234 533 OFFCURVE",
"242 557 OFFCURVE",
"264 557 CURVE SMOOTH",
"290 557 OFFCURVE",
"317 554 OFFCURVE",
"317 554 CURVE",
"326 624 LINE",
"317 624 OFFCURVE",
"260 630 OFFCURVE",
"215 630 CURVE SMOOTH",
"160 630 OFFCURVE",
"90 624 OFFCURVE",
"75 512 CURVE SMOOTH",
"70 476 LINE",
"38 476 LINE",
"25 389 LINE",
"57 389 LINE",
"3 0 LINE"
);
}
);
};
layerId = "8A3706BD-364F-4FE3-9C2E-7E87DF0DB4CC";
paths = (
{
closed = 1;
nodes = (
"159 0 LINE",
"213 389 LINE",
"355 389 LINE",
"301 0 LINE",
"457 0 LINE",
"511 389 LINE",
"636 389 LINE",
"582 0 LINE",
"738 0 LINE",
"805 476 LINE",
"524 476 LINE",
"529 513 LINE SMOOTH",
"532 533 OFFCURVE",
"540 557 OFFCURVE",
"589 557 CURVE SMOOTH",
"644 557 OFFCURVE",
"715 550 OFFCURVE",
"741 539 CURVE",
"751 609 LINE",
"696 630 OFFCURVE",
"616 630 OFFCURVE",
"584 630 CURVE SMOOTH",
"458 630 OFFCURVE",
"388 624 OFFCURVE",
"373 512 CURVE SMOOTH",
"368 476 LINE",
"226 476 LINE",
"231 513 LINE SMOOTH",
"234 533 OFFCURVE",
"242 557 OFFCURVE",
"264 557 CURVE SMOOTH",
"290 557 OFFCURVE",
"317 554 OFFCURVE",
"317 554 CURVE",
"326 624 LINE",
"317 624 OFFCURVE",
"260 630 OFFCURVE",
"215 630 CURVE SMOOTH",
"160 630 OFFCURVE",
"90 624 OFFCURVE",
"75 512 CURVE SMOOTH",
"70 476 LINE",
"38 476 LINE",
"25 389 LINE",
"57 389 LINE",
"3 0 LINE"
);
}
);
width = 812;
}
);
leftMetricsKey = f;
rightMetricsKey = i;
},
{
glyphname = longs_t;
lastChange = "2021-05-18 00:21:18 +0000";
layers = (
{
background = {
paths = (
{
closed = 1;
nodes = (
"78 -147 OFFCURVE",
"105 -114 OFFCURVE",
"112 -58 CURVE SMOOTH",
"197 544 LINE SMOOTH",
"202 579 OFFCURVE",
"221 619 OFFCURVE",
"262 619 CURVE SMOOTH",
"299 619 OFFCURVE",
"367 611 OFFCURVE",
"394 606 CURVE",
"399 617 LINE",
"370 624 OFFCURVE",
"301 636 OFFCURVE",
"265 636 CURVE SMOOTH",
"213 636 OFFCURVE",
"186 603 OFFCURVE",
"179 547 CURVE SMOOTH",
"163 440 LINE",
"132 440 LINE",
"130 422 LINE",
"161 422 LINE",
"94 -55 LINE SMOOTH",
"89 -90 OFFCURVE",
"70 -130 OFFCURVE",
"29 -130 CURVE SMOOTH",
"12 -130 OFFCURVE",
"-4 -129 OFFCURVE",
"-19 -128 CURVE SMOOTH",
"-42 -125 LINE",
"-44 -143 LINE",
"-30 -146 OFFCURVE",
"1 -147 OFFCURVE",
"26 -147 CURVE SMOOTH"
);
},
{
closed = 1;
nodes = (
"393 0 OFFCURVE",
"416 2 OFFCURVE",
"431 4 CURVE",
"434 21 LINE",
"419 20 OFFCURVE",
"397 18 OFFCURVE",
"377 18 CURVE",
"328 18 OFFCURVE",
"319 48 OFFCURVE",
"326 93 CURVE",
"380 478 LINE",
"498 478 LINE",
"500 495 LINE",
"382 495 LINE",
"399 617 LINE",
"387 617 LINE",
"363 495 LINE",
"321 488 LINE",
"320 478 LINE",
"361 478 LINE",
"306 89 LINE",
"298 33 OFFCURVE",
"313 0 OFFCURVE",
"368 0 CURVE"
);
}
);
};
layerId = "82B1C968-1149-4E0D-B361-F2F5D539D913";
paths = (
{
closed = 1;
nodes = (
"78 -147 OFFCURVE",
"105 -114 OFFCURVE",
"112 -58 CURVE SMOOTH",
"197 544 LINE SMOOTH",
"202 579 OFFCURVE",
"221 619 OFFCURVE",
"262 619 CURVE SMOOTH",
"299 619 OFFCURVE",
"367 611 OFFCURVE",
"394 606 CURVE",
"399 617 LINE",
"370 624 OFFCURVE",
"301 636 OFFCURVE",
"265 636 CURVE SMOOTH",
"213 636 OFFCURVE",
"186 603 OFFCURVE",
"179 547 CURVE SMOOTH",
"163 440 LINE",
"132 440 LINE",
"130 422 LINE",
"161 422 LINE",
"94 -55 LINE SMOOTH",
"89 -90 OFFCURVE",
"70 -130 OFFCURVE",
"29 -130 CURVE SMOOTH",
"12 -130 OFFCURVE",
"-4 -129 OFFCURVE",
"-19 -128 CURVE SMOOTH",
"-42 -125 LINE",
"-44 -143 LINE",
"-30 -146 OFFCURVE",
"1 -147 OFFCURVE",
"26 -147 CURVE SMOOTH"
);
},
{
closed = 1;
nodes = (
"393 0 OFFCURVE",
"416 2 OFFCURVE",
"431 4 CURVE",
"434 21 LINE",
"419 20 OFFCURVE",
"397 18 OFFCURVE",
"377 18 CURVE SMOOTH",
"328 18 OFFCURVE",
"319 48 OFFCURVE",
"326 93 CURVE SMOOTH",
"380 478 LINE",
"498 478 LINE",
"500 495 LINE",
"382 495 LINE",
"399 617 LINE",
"387 617 LINE",
"363 495 LINE",
"321 488 LINE",
"320 478 LINE",
"361 478 LINE",
"306 89 LINE SMOOTH",
"298 33 OFFCURVE",
"313 0 OFFCURVE",
"368 0 CURVE SMOOTH"
);
}
);
width = 485;
},
{
background = {
paths = (
{
closed = 1;
nodes = (
"122 -135 OFFCURVE",
"194 -89 OFFCURVE",
"212 39 CURVE SMOOTH",
"276 490 LINE SMOOTH",
"278 510 OFFCURVE",
"286 536 OFFCURVE",
"310 540 CURVE SMOOTH",
"368 549 OFFCURVE",
"420 540 OFFCURVE",
"451 537 CURVE SMOOTH",
"472 610 LINE SMOOTH",
"444 617 OFFCURVE",
"344 630 OFFCURVE",
"310 630 CURVE SMOOTH",
"219 630 OFFCURVE",
"137 624 OFFCURVE",
"122 512 CURVE SMOOTH",
"112 440 LINE",
"69 440 LINE",
"56 350 LINE",
"99 350 LINE",
"46 -25 LINE",
"43 -34 OFFCURVE",
"36 -42 OFFCURVE",
"28 -48 CURVE SMOOTH",
"19 -55 OFFCURVE",
"8 -59 OFFCURVE",
"-2 -59 CURVE SMOOTH",
"-38 -59 LINE",
"-48 -136 LINE",
"-19 -142 OFFCURVE",
"12 -144 OFFCURVE",
"40 -142 CURVE SMOOTH"
);
},
{
closed = 1;
nodes = (
"546 -5 OFFCURVE",
"593 9 OFFCURVE",
"593 9 CURVE SMOOTH",
"606 101 LINE SMOOTH",
"606 101 OFFCURVE",
"575 98 OFFCURVE",
"559 98 CURVE SMOOTH",
"527 98 OFFCURVE",
"525 122 OFFCURVE",
"528 142 CURVE SMOOTH",
"565 405 LINE",
"649 405 LINE",
"661 495 LINE",
"577 495 LINE",
"593 610 LINE",
"472 610 LINE",
"435 495 LINE",
"369 472 LINE",
"360 405 LINE",
"409 405 LINE",
"368 115 LINE SMOOTH",
"352 3 OFFCURVE",
"436 -5 OFFCURVE",
"501 -5 CURVE SMOOTH"
);
}
);
};
layerId = "8A3706BD-364F-4FE3-9C2E-7E87DF0DB4CC";
paths = (
{
closed = 1;
nodes = (
"122 -135 OFFCURVE",
"194 -89 OFFCURVE",
"212 39 CURVE SMOOTH",
"276 490 LINE SMOOTH",
"278 510 OFFCURVE",
"286 536 OFFCURVE",
"310 540 CURVE SMOOTH",
"368 549 OFFCURVE",
"420 540 OFFCURVE",
"451 537 CURVE",
"472 610 LINE",
"444 617 OFFCURVE",
"344 630 OFFCURVE",
"310 630 CURVE SMOOTH",
"219 630 OFFCURVE",
"137 624 OFFCURVE",
"122 512 CURVE SMOOTH",
"112 440 LINE",
"69 440 LINE",
"56 350 LINE",
"99 350 LINE",
"46 -25 LINE",
"43 -34 OFFCURVE",
"36 -42 OFFCURVE",
"28 -48 CURVE SMOOTH",
"19 -55 OFFCURVE",
"8 -59 OFFCURVE",
"-2 -59 CURVE SMOOTH",
"-38 -59 LINE",
"-48 -136 LINE",
"-19 -142 OFFCURVE",
"12 -144 OFFCURVE",
"40 -142 CURVE SMOOTH"
);
},
{
closed = 1;
nodes = (
"546 -5 OFFCURVE",
"593 9 OFFCURVE",
"593 9 CURVE",
"606 101 LINE",
"606 101 OFFCURVE",
"575 98 OFFCURVE",
"559 98 CURVE SMOOTH",
"527 98 OFFCURVE",
"525 122 OFFCURVE",
"528 142 CURVE SMOOTH",
"565 405 LINE",
"649 405 LINE",
"661 495 LINE",
"577 495 LINE",
"593 610 LINE",
"472 610 LINE",
"435 495 LINE",
"369 472 LINE",
"360 405 LINE",
"409 405 LINE",
"368 115 LINE SMOOTH",
"352 3 OFFCURVE",
"436 -5 OFFCURVE",
"501 -5 CURVE SMOOTH"
);
}
);
width = 641;
}
);
leftMetricsKey = longs;
rightMetricsKey = t;
},
{
glyphname = s_t;
lastChange = "2021-05-18 00:21:22 +0000";
layers = (
{
background = {
paths = (
{
closed = 1;
nodes = (
"26 126 LINE",
"17 66 OFFCURVE",
"4 -6 OFFCURVE",
"127 -6 CURVE",
"233 -6 OFFCURVE",
"253 59 OFFCURVE",
"261 111 CURVE",
"263 128 LINE",
"275 214 OFFCURVE",
"239 234 OFFCURVE",
"181 260 CURVE",
"108 292 OFFCURVE",
"80 316 OFFCURVE",
"89 380 CURVE",
"91 399 LINE",
"98 449 OFFCURVE",
"124 488 OFFCURVE",
"199 488 CURVE",
"262 488 OFFCURVE",
"290 464 OFFCURVE",
"279 380 CURVE",
"273 337 LINE",
"293 337 LINE",
"299 384 LINE",
"312 474 OFFCURVE",
"278 505 OFFCURVE",
"201 505 CURVE",
"120 505 OFFCURVE",
"81 465 OFFCURVE",
"72 406 CURVE",
"68 375 LINE",
"58 303 OFFCURVE",
"99 274 OFFCURVE",
"169 245 CURVE",
"233 219 OFFCURVE",
"251 183 OFFCURVE",
"244 134 CURVE",
"241 114 LINE",
"235 72 OFFCURVE",
"223 11 OFFCURVE",
"130 11 CURVE",
"27 11 OFFCURVE",
"38 67 OFFCURVE",
"46 129 CURVE",
"52 166 LINE",
"32 166 LINE"
);
},
{
closed = 1;
nodes = (
"455 0 OFFCURVE",
"478 2 OFFCURVE",
"494 4 CURVE",
"496 21 LINE",
"482 20 OFFCURVE",
"460 18 OFFCURVE",
"440 18 CURVE",
"391 18 OFFCURVE",
"382 48 OFFCURVE",
"388 93 CURVE",
"442 478 LINE",
"560 478 LINE",
"563 495 LINE",
"445 495 LINE",
"458 589 LINE",
"446 589 LINE",
"426 495 LINE",
"384 488 LINE",
"382 478 LINE",
"423 478 LINE",
"369 89 LINE",
"361 33 OFFCURVE",
"375 0 OFFCURVE",
"430 0 CURVE"
);
},
{
closed = 1;
nodes = (
"449 592 OFFCURVE",
"429 601 OFFCURVE",
"392 601 CURVE SMOOTH",
"354 601 OFFCURVE",
"312 588 OFFCURVE",
"298 497 CURVE",
"282 354 LINE",
"295 354 LINE",
"318 497 LINE SMOOTH",
"329 565 OFFCURVE",
"358 584 OFFCURVE",
"393 584 CURVE SMOOTH",
"418 584 OFFCURVE",
"448 577 OFFCURVE",
"452 574 CURVE",
"458 589 LINE"
);
}
);
};
layerId = "82B1C968-1149-4E0D-B361-F2F5D539D913";
paths = (
{
closed = 1;
nodes = (
"233 -6 OFFCURVE",
"253 59 OFFCURVE",
"261 111 CURVE SMOOTH",
"263 128 LINE SMOOTH",
"275 214 OFFCURVE",
"239 234 OFFCURVE",
"181 260 CURVE SMOOTH",
"108 292 OFFCURVE",
"80 316 OFFCURVE",
"89 380 CURVE SMOOTH",
"91 399 LINE SMOOTH",
"98 449 OFFCURVE",
"124 488 OFFCURVE",
"199 488 CURVE SMOOTH",
"262 488 OFFCURVE",
"290 464 OFFCURVE",
"279 380 CURVE SMOOTH",
"273 337 LINE",
"293 337 LINE",
"299 384 LINE SMOOTH",
"312 474 OFFCURVE",
"278 505 OFFCURVE",
"201 505 CURVE SMOOTH",
"120 505 OFFCURVE",
"81 465 OFFCURVE",
"72 406 CURVE SMOOTH",
"68 375 LINE SMOOTH",
"58 303 OFFCURVE",
"99 274 OFFCURVE",
"169 245 CURVE SMOOTH",
"233 219 OFFCURVE",
"251 183 OFFCURVE",
"244 134 CURVE SMOOTH",
"241 114 LINE SMOOTH",
"235 72 OFFCURVE",
"223 11 OFFCURVE",
"130 11 CURVE SMOOTH",
"27 11 OFFCURVE",
"38 67 OFFCURVE",
"46 129 CURVE SMOOTH",
"52 166 LINE",
"32 166 LINE",
"26 126 LINE SMOOTH",
"17 66 OFFCURVE",
"4 -6 OFFCURVE",
"127 -6 CURVE SMOOTH"
);
},
{
closed = 1;
nodes = (
"455 0 OFFCURVE",
"478 2 OFFCURVE",
"494 4 CURVE",
"496 21 LINE",
"482 20 OFFCURVE",
"460 18 OFFCURVE",
"440 18 CURVE SMOOTH",
"391 18 OFFCURVE",
"382 48 OFFCURVE",
"388 93 CURVE SMOOTH",
"442 478 LINE",
"560 478 LINE",
"563 495 LINE",
"445 495 LINE",
"458 589 LINE",
"446 589 LINE",
"426 495 LINE",
"384 488 LINE",
"382 478 LINE",
"423 478 LINE",
"369 89 LINE SMOOTH",
"361 33 OFFCURVE",
"375 0 OFFCURVE",
"430 0 CURVE SMOOTH"
);
},
{
closed = 1;
nodes = (
"295 354 LINE",
"318 497 LINE SMOOTH",
"329 565 OFFCURVE",
"358 584 OFFCURVE",
"393 584 CURVE SMOOTH",
"418 584 OFFCURVE",
"448 577 OFFCURVE",
"452 574 CURVE",
"458 589 LINE",
"449 592 OFFCURVE",
"429 601 OFFCURVE",
"392 601 CURVE SMOOTH",
"354 601 OFFCURVE",
"312 588 OFFCURVE",
"298 497 CURVE SMOOTH",
"282 354 LINE"
);
}
);
width = 555;
},
{
background = {
paths = (
{
closed = 1;
nodes = (
"22 144 LINE",
"22 39 OFFCURVE",
"58 -14 OFFCURVE",
"198 -14 CURVE",
"338 -14 OFFCURVE",
"380 35 OFFCURVE",
"380 134 CURVE",
"380 170 LINE",
"380 240 OFFCURVE",
"331 267 OFFCURVE",
"284 284 CURVE",
"247 297 OFFCURVE",
"195 303 OFFCURVE",
"195 350 CURVE",
"195 397 LINE",
"195 412 OFFCURVE",
"202 423 OFFCURVE",
"216 423 CURVE",
"232 423 OFFCURVE",
"235 410 OFFCURVE",
"235 384 CURVE",
"235 321 LINE",
"380 321 LINE",
"380 353 LINE",
"380 454 OFFCURVE",
"346 505 OFFCURVE",
"211 505 CURVE",
"76 505 OFFCURVE",
"35 458 OFFCURVE",
"35 363 CURVE",
"35 335 LINE",
"35 260 OFFCURVE",
"85 232 OFFCURVE",
"130 215 CURVE",
"178 195 OFFCURVE",
"213 191 OFFCURVE",
"213 141 CURVE",
"213 95 LINE",
"213 80 OFFCURVE",
"209 68 OFFCURVE",
"196 68 CURVE",
"181 68 OFFCURVE",
"179 82 OFFCURVE",
"179 109 CURVE",
"179 178 LINE",
"22 178 LINE"
);
},
{
closed = 1;
nodes = (
"666 -5 OFFCURVE",
"711 9 OFFCURVE",
"711 9 CURVE",
"711 101 LINE",
"711 101 OFFCURVE",
"680 98 OFFCURVE",
"664 98 CURVE",
"632 98 OFFCURVE",
"627 122 OFFCURVE",
"627 142 CURVE",
"627 405 LINE",
"711 405 LINE",
"711 495 LINE",
"627 495 LINE",
"627 585 LINE",
"506 585 LINE",
"485 495 LINE",
"422 472 LINE",
"422 405 LINE",
"471 405 LINE",
"471 115 LINE",
"471 3 OFFCURVE",
"556 -5 OFFCURVE",
"621 -5 CURVE"
);
},
{
closed = 1;
nodes = (
"588 607 OFFCURVE",
"524 639 OFFCURVE",
"429 639 CURVE SMOOTH",
"313 639 OFFCURVE",
"266 624 OFFCURVE",
"267 483 CURVE",
"265 348 LINE",
"380 353 LINE",
"380 373 LINE SMOOTH",
"380 539 OFFCURVE",
"387 562 OFFCURVE",
"432 563 CURVE SMOOTH",
"457 564 OFFCURVE",
"507 550 OFFCURVE",
"513 548 CURVE",
"627 585 LINE"
);
}
);
};
layerId = "8A3706BD-364F-4FE3-9C2E-7E87DF0DB4CC";
paths = (
{
closed = 1;
nodes = (
"338 -14 OFFCURVE",
"380 35 OFFCURVE",
"380 134 CURVE SMOOTH",
"380 170 LINE SMOOTH",
"380 240 OFFCURVE",
"331 267 OFFCURVE",
"284 284 CURVE SMOOTH",
"247 297 OFFCURVE",
"195 303 OFFCURVE",
"195 350 CURVE SMOOTH",
"195 397 LINE SMOOTH",
"195 412 OFFCURVE",
"202 423 OFFCURVE",
"216 423 CURVE SMOOTH",
"232 423 OFFCURVE",
"235 410 OFFCURVE",
"235 384 CURVE SMOOTH",
"235 321 LINE",
"380 321 LINE",
"380 353 LINE SMOOTH",
"380 454 OFFCURVE",
"346 505 OFFCURVE",
"211 505 CURVE SMOOTH",
"76 505 OFFCURVE",
"35 458 OFFCURVE",
"35 363 CURVE SMOOTH",
"35 335 LINE SMOOTH",
"35 260 OFFCURVE",
"85 232 OFFCURVE",
"130 215 CURVE SMOOTH",
"178 195 OFFCURVE",
"213 191 OFFCURVE",
"213 141 CURVE SMOOTH",
"213 95 LINE SMOOTH",
"213 80 OFFCURVE",
"209 68 OFFCURVE",
"196 68 CURVE SMOOTH",
"181 68 OFFCURVE",
"179 82 OFFCURVE",
"179 109 CURVE SMOOTH",
"179 178 LINE",
"22 178 LINE",
"22 144 LINE SMOOTH",
"22 39 OFFCURVE",
"58 -14 OFFCURVE",
"198 -14 CURVE SMOOTH"
);
},
{
closed = 1;
nodes = (
"666 -5 OFFCURVE",
"711 9 OFFCURVE",
"711 9 CURVE",
"711 101 LINE",
"711 101 OFFCURVE",
"680 98 OFFCURVE",
"664 98 CURVE SMOOTH",
"632 98 OFFCURVE",
"627 122 OFFCURVE",
"627 142 CURVE SMOOTH",
"627 405 LINE",
"711 405 LINE",
"711 495 LINE",
"627 495 LINE",
"627 585 LINE",
"506 585 LINE",
"485 495 LINE",
"422 472 LINE",
"422 405 LINE",
"471 405 LINE",
"471 115 LINE SMOOTH",
"471 3 OFFCURVE",
"556 -5 OFFCURVE",
"621 -5 CURVE SMOOTH"
);
},
{
closed = 1;
nodes = (
"380 353 LINE",
"380 373 LINE SMOOTH",
"380 539 OFFCURVE",
"387 562 OFFCURVE",
"432 563 CURVE SMOOTH",
"457 564 OFFCURVE",
"507 550 OFFCURVE",
"513 548 CURVE",
"627 585 LINE",
"588 607 OFFCURVE",
"524 639 OFFCURVE",
"429 639 CURVE SMOOTH",
"313 639 OFFCURVE",
"266 624 OFFCURVE",
"267 483 CURVE SMOOTH",
"265 348 LINE"
);
}
);
width = 726;
}
);
leftMetricsKey = s;
rightMetricsKey = t;
},
